<?xml version="1.0" encoding="UTF-8"?>
<!-- Created with Inkscape (http://www.inkscape.org/) -->
<svg width="28mm" height="36mm" version="1.1" viewBox="0 0 28 36" xmlns="http://www.w3.org/2000/svg">
 <g transform="matrix(.075059 0 0 .075059 -5.5701 -3.8143)">
  <g stroke-width=".26458">
   <path d="m190.97 465.25c12.764-1.9627 23.47-9.9858 31.969-19.31-0.77603-2.5041-1.5994-5.054-2.4828-7.5416-7.6319 8.8629-17.307 16.945-29.19 18.944-16.025 2.5899-33.864-5.1441-41.04-20.107-7.0273-13.198-4.4622-29.418 2.4014-42.12 0.5125 1.9647 0.45667 6.7462 1.4309 9.5617 3.42 14.959 18.577 25.955 33.865 24.627 8.4482-0.22956 16.381-4.3129 22.123-10.395 4.4439-3.1345 10.339-5.3226 8.8432-12.014 6.9929-21.6 11.825-47.217 14.718-44.517-8.0841-2.3569-16.653-25.96-36.019-22.58-15.116 3.0192-27.331 17.256-36.713 28.653-9.6885 12.569-17.54 27.122-20.225 42.905-2.5135 16.19 2.1619 34.643 15.704 44.861 9.721 7.4515 22.461 11.058 34.614 9.0313z" fill="#2b96f9"/>
   <path d="m374.01 466.66c6.1606-0.74933 10.662-2.1245 16.152-4.9341 10.62-5.4351 18.706-14.823 22.473-26.09 1.6293-4.8733 2.1918-8.5361 2.2056-14.363 0.0185-7.6227-1.2007-13.479-4.5977-22.096-5.2565-13.333-15.866-29.537-25.902-39.562-12.339-12.325-25.748-16.431-39.171-11.993-5.3494 1.7685-9.7541 4.5884-13.961 8.9372-4.1172 4.2562-7.1189 9.1309-9.4626 15.368l-0.9943 2.6458 0.41989 1.9844c0.23098 1.0914 0.73131 3.4131 1.1118 5.1594 0.89112 4.0873 2.6167 14.324 3.2885 19.507 0.88873 6.8546 1.1512 12.018 0.99218 19.519-0.16033 7.5524-0.34554 9.4812-1.393 14.489l-0.67839 3.244 0.60193 0.98936c1.1425 1.878 4.0188 5.7589 5.9298 8.0008 11.978 14.052 27.665 21.056 42.985 19.193z" fill="#fedf2d"/>
   <path d="m278.09 469.66c19.407-1.9265 36.683-17.491 39.768-36.897 3.1144-16.654-0.0773-33.65-3.3128-50.032-3.1107-13.12-8.0756-27.018-19.405-35.274-7.4332-5.7339-16.957-8.5426-26.314-7.7776-16.761 0.77533-31.656 13.65-36.001 29.695-5.1456 17.849-7.3724 36.585-6.7985 55.145 0.54081 16.783 9.6406 33.91 25.335 41.013 8.2442 4.0496 17.659 5.239 26.727 4.1267z" fill="#f48a8f"/>
   <path d="m384.72 262.78c11.424-2.1676 22.675-7.6258 31.596-15.328 6.9517-6.0017 11.9-12.358 15.591-20.029 4.5921-9.5423 6.3566-18.434 6.0076-30.276-0.61675-20.933-7.6409-40.308-21.349-58.888-5.5721-7.5526-14.327-16.46-21.754-22.133-16.259-12.419-36.552-18.346-53.782-15.707-4.6117 0.7063-13.442 3.0857-14.245 3.838-0.12171 0.11433 0.6522 0.89631 1.7198 1.7377 8.0296 6.3274 16.38 15.332 22.067 23.797 9.7769 14.552 16.416 32.829 18.693 51.461 0.46567 3.8093 0.45906 20.086-0.0106 23.812-2.2479 17.866-8.2788 34.771-16.802 47.096-1.1573 1.6735-2.3556 3.3202-2.6628 3.6594-0.55748 0.61531-0.55748 0.61748-0.0296 1.0249 1.0255 0.79113 6.3828 3.215 9.1395 4.135 2.3969 0.79986 7.5591 2.0142 10.175 2.3935 0.43656 0.0633 3.4726 0.081 6.7469 0.0394 4.7122-0.0599 6.567-0.19209 8.8977-0.63434z" fill="#438425"/>
   <path d="m373.13 222.05c-3.7568-0.4867-9.525-2.2938-9.525-2.984 0-0.16396 0.36195-0.95297 0.80407-1.7533 6.9413-12.565 8.0899-25.816 3.7835-43.656-0.8591-3.5592-3.4938-11.995-4.3897-14.054-0.21405-0.49215-0.84111-1.9664-1.3936-3.276-4.3463-10.305-11.812-23.426-16.983-29.85-1.4049-1.7453-2.2545-2.3015-1.2078-0.7909 0.73078 1.0548 0.9181 1.4043 0.753 1.4043-0.32411 0-1.511-2.1083-1.3414-2.3827 0.20903-0.33827-0.62282-1.3771-0.94376-1.1787-0.11616 0.0717-0.29713-9e-3 -0.40244-0.17942-0.13123-0.21224-0.0746-0.23873 0.17992-0.0841 0.20452 0.12411 0.0537-0.12539-0.3347-0.55444-0.38867-0.42905-1.6603-1.9888-2.8258-3.4662-3.7576-4.7628-6.7971-8.1227-11.272-12.46-2.4082-2.3342-4.3786-4.364-4.3786-4.5107 0-0.14661 0.9226-0.46109 2.0505-0.69879 1.1279-0.23773 2.5268-0.54097 3.1088-0.6739 4.4887-1.025 14.093-1.2499 19.182-0.44918 13.756 2.1644 27.026 8.3631 38.1 17.798 5.2247 4.4514 12.822 12.786 17.485 19.183 10.151 13.925 16.082 26.444 18.873 39.839 0.88794 4.2621-0.61648 13.141-3.1853 18.8-3.0544 6.7276-8.8546 13.172-16.239 18.042-9.0125 5.9441-20.906 9.1009-29.898 7.936z" fill="#9af200"/>
   <path d="m233.11 351.37c-0.28178-0.28249-0.66304-0.41418-0.91704-0.31676-0.23892 0.0917-0.34925 0.0815-0.24501-0.0228-10.376-6.8007-19.657-27.889-19.305-40.664 0.09-2.0662 0.36486-6.3166 0.61119-9.4453 0.24606-3.1287 0.45852-6.1165 0.47228-6.6396l0.0238-0.95104 1.7198 0.77994c2.2005 0.99798 7.0305 2.8791 9.5517 3.72 13.793 4.6003 32.896 6.1786 48.524 4.009 9.18-1.2744 20.262-4.3211 27.495-7.5592 7.8208-4.1952 3.5941 8.1161 3.5936 11.395 0 5.486-0.12436 10.666-0.2839 11.83-0.87366 6.3706-3.1332 12.954-6.4863 18.898-0.85328 1.5127-1.5216 2.8485-1.4851 2.9684 0.0365 0.11997-0.0265 0.16389-0.13864 0.0976-0.11298-0.0663-1.0361-0.62642-2.0521-1.2448-4.5101-2.7455-10.142-4.6574-16.806-5.7049-4.1376-0.65043-11.557-0.40918-15.346 0.49895-6.6826 1.6018-13.102 4.639-18.783 8.8864-2.7268 2.0388-7.4814 6.6807-8.6749 8.4696-0.95541 1.4319-1.0022 1.4636-1.4692 0.99549z" fill="#ec3942"/>
   <path d="m141.66 263.84c-5.2814-0.26633-9.6554-1.194-16.053-3.4047-4.9281-1.7029-13.303-6.5314-18.078-10.422-3.4126-2.7813-8.4481-8.0899-11.321-11.935-1.2086-1.6175-3.2181-5.0785-3.1112-5.3576 0.07567-0.19717 0.02381-0.28795-0.11589-0.20177-1.7074-7.5349-2.6043-16.484-2.6427-32.269 0.01587-9.8663 1.9042-19.37 5.8592-29.508 3.9378-10.094 11.322-23.316 17.953-32.147 5.9066-7.8664 15.909-17.522 22.747-21.957 5.2467-3.4034 8.173-4.924 12.832-6.6682 8.3648-3.1312 19.354-3.7558 31.221-1.7742 4.0971 0.68413 3.8661 0.48659 2.2262 1.9038-4.8001 4.1483-10.506 10.197-14.375 15.239-2.0929 2.7272-5.1184 7.1385-5.4729 7.9798-0.0579 0.13756-0.97525 1.7052-2.0381 3.4837-1.7428 2.9162-5.8727 11.114-5.8727 11.658 0 0.12057-0.42942 1.2842-0.95435 2.5858-4.69 11.628-7.2901 22.852-8.2955 35.808-0.71702 9.2374 0.0437 20.965 1.9664 30.323 0.96573 4.7005 2.6059 10.305 3.9098 13.361 0.2794 0.65484 0.69136 1.7264 0.91546 2.3812 1.1173 3.2653 4.6098 10.573 6.9503 14.542 12.76 13.811 4.9686 17.438-18.249 16.38z" fill="#ec3942"/>
   <path d="m363.6 249.65c-2.5862-0.68084-7.5097-0.71141-8.4911-2.6002 3.8811-8.6926 8.4204-17.107 11.843-25.994 2.351-0.92518 6.0583-0.4276 8.9566-0.836 7.197-0.63204 14.7-0.84693 21.402-3.8164 11.558-5.5482 21.571-15.725 24.301-28.559 0.70672-1.5606 0.6591-6.3874 1.2806-6.2917 1.7525 12.957 0.51876 26.687-5.8125 38.33-6.6506 12.532-18.377 22.106-31.601 27.026-6.9752 2.6961-14.479 3.2454-21.879 2.7414z" fill="#69a121"/>
   <path d="m264.34 477.21c-8.4082-1.1275-16.151-4.0142-23.019-8.5814-4.3275-2.8781-11.111-9.9385-13.915-14.483-0.20188-0.32742-0.49001-0.59531-0.64003-0.59531-0.15028 0-1.2824 1.0209-2.5162 2.2687-5.2856 5.3459-12.91 10.551-19.748 13.482-14.135 6.0584-28.858 5.7383-42.556-0.92522-9.9555-4.8432-17.854-12.031-22.905-20.845-3.1967-5.5776-5.5629-13.233-6.3241-20.46-0.33629-3.1923-0.33814-11.018-3e-3 -14.267 1.4094-13.684 8.0785-29.058 19.574-45.124 3.8447-5.373 6.6675-8.6667 11.894-13.878 12.486-12.451 23.483-18.19 36.47-19.034 1.788-0.11615 3.3126-0.27283 3.3877-0.34813 0.0754-0.0753-0.16351-0.87649-0.53075-1.7804-0.82418-2.0284-2.1008-6.571-2.6408-9.3964-1.992-10.424-1.728-21.433 0.75618-31.529 0.4953-2.0133 0.81942-3.7424 0.71993-3.8424-0.0992-0.10001-1.1925-0.73736-2.4294-1.4163-7.3096-4.0124-17.466-11.772-23.673-18.088-1.0147-1.0324-2.0267-1.8771-2.249-1.8771-0.22225 3e-5 -1.5946 0.42677-3.0499 0.94829-6.0952 2.1844-13.555 3.6362-20.986 4.0838-15.848 0.95469-31.839-3.9662-44.63-13.734-2.8665-2.189-8.4415-7.3093-10.792-9.9121-8.9249-9.8818-14.88-22.497-16.693-35.361-1.892-13.427-0.92022-26.544 3.0091-40.614 8.3502-29.901 27.078-54.545 52.489-69.068 8.2653-4.724 16.126-7.3931 25.717-8.732 3.9516-0.55163 13.809-0.40719 18.105 0.2653 4.5746 0.71607 10.717 2.1709 15.214 3.6033l4.2333 1.3486 2.4014-1.5835c7.4541-4.9153 13.958-7.9671 23.66-11.102 7.0157-2.2668 13.648-3.6226 23.151-4.7328 5.5105-0.64376 18.609-0.64675 23.68-0.0053 11.519 1.4566 21.614 3.9992 31.75 7.9964 4.1767 1.6471 10.726 4.9501 15.339 7.7362l4.3593 2.6325 2.123-0.92112c11.05-4.7945 21.811-6.6364 32.815-5.6166 10.224 0.94753 22.366 4.6261 31.618 9.5793 9.4395 5.0534 17.486 11.029 25.01 18.575 4.6307 4.644 4.9816 5.0326 8.4937 9.4108 13.634 16.996 22.153 36.519 24.881 57.018 0.64109 4.8163 0.6395 16.398-3e-3 21.034-1.8799 13.569-6.4114 24.669-14.15 34.66-2.413 3.1153-8.074 8.8575-11.556 11.722-9.748 8.0189-22.316 13.747-34.408 15.684-3.6007 0.57656-13.402 0.80098-17.016 0.3896-7.7539-0.88262-16.749-3.8423-22.578-7.4287l-1.3073-0.80449-3.356 3.3938c-7.1133 7.194-17.052 14.808-24.816 19.01-1.0028 0.54284-1.859 1.0123-1.9029 1.0432-0.0437 0.0309 0.15743 0.99274 0.44715 2.1374 0.87259 3.4484 1.5978 7.7006 1.9476 11.418l0.33073 3.5161 9.525 0.0799c6.999 0.0587 10.371 0.19553 12.716 0.51602 3.706 0.50655 8.799 1.5151 11.788 2.3343 1.1496 0.31507 2.1206 0.52417 2.1577 0.46466 2.8816-4.625 5.5451-7.6565 9.0154-10.261 7.6769-5.7615 15.347-8.2118 24.739-7.9035 5.805 0.19055 9.8843 1.2209 15.578 3.9348 1.4875 0.70905 2.7411 1.2892 2.7855 1.2892 0.0445 0 0.71094-0.71594 1.4811-1.591l1.4004-1.591-0.32227-1.9988c-1.0284-6.3747 3.0411-12.1 9.4919-13.354 3.479-0.67654 8.3111 0.31266 11.877 2.4313 2.0548 1.221 5.2996 4.5021 6.5064 6.579 2.7228 4.6865 3.0308 10.674 0.7866 15.287-2.0135 4.1384-7.1893 7.0537-10.973 6.1803-1.2438-0.28707-1.3682-0.26982-1.7246 0.23897-0.2114 0.30166-1.0276 1.3068-1.8137 2.2336-0.78635 0.92686-1.4298 1.7855-1.4298 1.9082 0 0.12264 0.34925 1.0542 0.77602 2.07 5.9002 14.046 3.8394 30.485-5.4681 43.616-1.9291 2.7214-8.1902 9.0055-11.335 11.377l-2.4011 1.8103 2.9673 4.4468c8.3643 12.534 13.691 24.588 15.958 36.112 3.9714 20.188-3.5613 40.817-19.271 52.776-8.8202 6.7142-17.942 10.251-28.763 11.153-13.738 1.1444-28.555-3.7039-39.466-12.914l-2.0291-1.7127-1.8521 0.14414c-1.0186 0.0793-5.3279 0.29089-9.5761 0.47019l-7.724 0.326-1.9333 1.837c-3.8179 3.6279-8.926 7.1782-13.989 9.7227-5.4615 2.7447-10.523 4.2659-17.038 5.1199-3.8529 0.50514-11.846 0.50392-15.621-3e-3zm13.758-7.5574c9.965-1.1419 19.414-5.5289 26.469-12.289 7.6705-7.3504 11.872-15.566 13.722-26.832 1.4986-9.1238 1.1126-19.395-1.3229-35.19-3.4166-22.159-9.23-36.51-18.164-44.839-5.8301-5.4353-11.669-8.5366-19.28-10.241-2.3783-0.53248-3.4562-0.61447-8.0383-0.61138-4.118 3e-3 -5.7796 0.11012-7.4917 0.48398-11.085 2.4205-19.924 8.508-26.091 17.969-5.171 7.9333-8.7294 21.634-10.977 42.265-1.0904 10.008-1.3748 18.858-0.81677 25.4 0.85566 10.032 3.416 17.813 8.2254 24.998 4.2804 6.3947 9.42 10.94 16.249 14.371 8.4026 4.2217 17.314 5.6836 27.517 4.5144zm33.267-66.109c0-0.50933 0.0545-0.71769 0.12117-0.46302 0.0664 0.25466 0.0664 0.67138 0 0.92604-0.0667 0.25466-0.12117 0.0463-0.12117-0.46302zm62.645 63.113c6.1606-0.74933 10.662-2.1245 16.152-4.9341 10.368-5.306 18.618-14.731 22.343-25.523 1.9778-5.73 2.8302-12.698 2.3011-18.809-0.71041-8.2081-3.0075-15.693-7.8637-25.621-4.7673-9.746-10.638-18.544-18.604-27.879-7.7182-9.0444-16.022-14.719-25.118-17.165-2.3228-0.62463-3.0462-0.69294-7.4668-0.70516-4.2952-0.0119-5.2025 0.0633-7.4083 0.6137-12.552 3.1323-21.802 11.957-26.658 25.431l-0.99854 2.7712 0.46196 1.8521c0.9234 3.7027 1.8463 8.3299 2.8612 14.347 2.2233 13.179 2.7686 19.525 2.5527 29.706-0.16007 7.5524-0.34554 9.4812-1.3928 14.489l-0.67866 3.244 0.60193 0.98936c1.1425 1.878 4.0188 5.7589 5.9298 8.0008 11.978 14.052 27.665 21.056 42.985 19.193zm-185.08-0.96118c3.3713-0.4077 8.7736-1.8496 12.096-3.2285 6.8493-2.8426 14.446-8.3002 19.86-14.267l2.0585-2.2689-1.4229-4.3265c-2.9009-8.8187-3.4846-12.914-3.2816-23.022 0.12277-6.1191 0.36592-9.0578 1.66-20.066 1.6947-14.417 3.9865-25.871 6.7424-33.695 0.56674-1.6085 1.0046-2.9407 0.9734-2.9604-0.0312-0.0196-1.0229-0.60394-2.2034-1.2984-3.1626-1.8602-5.4343-3.6387-8.7696-6.8652-3.0165-2.9181-3.4975-3.5159-7.0787-8.7942-2.3114-3.4065-2.0376-3.2731-6.7106-3.2714-12.1 4e-3 -23.436 6.1455-35.614 19.295-12.84 13.865-22.604 31.331-25.893 46.321-1.1242 5.1233-1.3354 7.0774-1.3438 12.435-8e-3 5.7236 0.28284 8.3528 1.4634 13.19 1.9397 7.947 5.2435 14.131 10.501 19.657 6.6043 6.941 16.587 11.869 26.644 13.152 2.6707 0.34087 7.5605 0.34745 10.319 0.0138zm134.36-12.144c1.7232-3e-3 2.831-0.10404 2.7781-0.25739-0.10504-0.30358-4.7228-5.8303-4.8715-5.8303-0.0564 0-0.41936 0.62508-0.80619 1.3891-0.38708 0.76399-1.1628 2.1454-1.7243 3.0698-0.56144 0.92437-1.0208 1.7446-1.0208 1.8228s0.62521 0.067 1.3891-0.0249c0.76412-0.0917 2.6789-0.16788 4.2556-0.16915zm-6.0288-89.498c0.0992-0.32742 0.77655-1.6669 1.5047-2.9766 4.414-7.9379 10.651-14.097 18.189-17.962 5.9103-3.0306 10.558-4.3047 16.674-4.5711 7.447-0.32438 15.585 1.7973 22.549 5.8784 0.8562 0.50183 1.6192 0.91241 1.6957 0.91241 0.51038 0-1.8336-7.0474-3.388-10.186-2.8416-5.739-7.344-11.256-12.114-14.845-4.3108-3.2428-10.938-6.1284-17.238-7.5062-5.8089-1.2703-15.512-1.8492-23.651-1.4109l-3.9688 0.21373-0.19606 2.5135c-0.7239 9.2733-1.02 11.014-2.9668 17.451-1.6177 5.3482-3.8187 10.401-6.6463 15.258l-0.48154 0.82706 1.0763 1.2896c2.5495 3.055 6.4654 10.128 7.928 14.32 0.53102 1.5219 0.76041 1.6978 1.0345 0.79375zm83.433-1.6998c5.2692-4.6195 8.3288-7.9762 10.985-12.051 2.766-4.2434 4.9432-10.076 5.7155-15.31 0.52017-3.5266 0.21696-10.012-0.62468-13.361-1.6714-6.6497-4.6487-12.008-9.0667-16.316-12.162-11.861-31.321-12.07-42.979-0.46985-1.9582 1.9484-4.4865 5.0429-4.4752 5.477 3e-3 0.1202 1.1263 0.84545 2.4961 1.6116 7.4353 4.1594 14.218 11.311 18 18.98 2.7265 5.5282 3.746 9.4413 4.0161 15.414l0.17039 3.7725 2.9353 2.7067c3.5907 3.3109 5.3033 5.0858 8.2976 8.5991 1.2708 1.4911 2.3566 2.7115 2.413 2.712 0.0564 0 1.0089-0.79378 2.1167-1.7651zm-167.97-9.0158c2.4514-3.8814 3.0469-4.6307 5.7716-7.261 6.8678-6.6303 14.657-10.954 23.59-13.095 3.7886-0.90813 11.208-1.1494 15.346-0.49896 4.7188 0.74179 9.4213 2.0683 12.913 3.6424 1.9801 0.8927 6.5344 3.61 8.8384 5.2734 0.83079 0.59974 1.67 1.0292 1.8648 0.95446 0.54213-0.20801 3.4724-5.8309 4.5312-8.6944 2.9345-7.9379 4.132-14.75 4.132-23.504 0-2.8525-0.1733-6.6545-0.38655-8.4776-0.4326-3.6968-1.3438-8.8102-1.7338-9.7285l-0.25559-0.60201-1.0348 0.52795c-5.1263 2.6152-14.024 5.905-20.017 7.4008-9.8732 2.4643-17.537 3.4621-26.579 3.4603-18.17-3e-3 -32.271-2.9354-46.003-9.5646-2.0913-1.0096-3.859-1.779-3.928-1.7098-0.5469 0.54689-2.0754 8.5698-2.4506 12.863-1.3044 14.926 1.8468 27.591 9.4803 38.1 2.3601 3.2493 7.9364 8.597 11.255 10.793 1.5849 1.0488 3.0292 1.907 3.2102 1.907 0.18071 0 0.83635-0.80368 1.4565-1.7859zm186.49-49.085c0.49265-0.76137 1.6184-2.3666 2.5019-3.5671l1.606-2.1828h1.3039c1.814 0 3.1787-0.46442 4.3757-1.4889 1.3015-1.114 1.8844-2.3492 1.8844-3.9931 0-4.7571-4.0246-9.3905-8.5098-9.7972-2.8763-0.26082-5.0453 0.9002-6.309 3.3774-0.67601 1.3249-0.68632 3.85-0.0238 5.7687l0.48604 1.4075-1.0131 0.63961c-0.55721 0.35179-1.759 1.3406-2.6704 2.1973l-1.6574 1.5576 2.3093 2.3407c1.2703 1.2874 2.7551 2.9635 3.3001 3.7247 0.54505 0.76123 1.1099 1.3876 1.2554 1.392 0.14552 4e-3 0.66781-0.61497 1.1605-1.3764zm-148.56-9.56c19.61-2.5272 38.643-10.952 55.855-24.723 4.1518-3.3219 12.597-11.77 15.779-15.785 9.3176-11.755 16.264-28.322 18.62-44.407 2.4979-17.054 0.69718-35.132-5.0779-50.975-3.5687-9.7908-6.9612-16.525-12.196-24.209-13.297-19.519-31.765-33.792-52.844-40.84-6.9117-2.3111-13.068-3.6918-21.034-4.7177-5.035-0.64841-18.191-0.64751-23.416 0.0026-22.14 2.7505-37.512 9.0767-53.708 22.103-3.7603 3.0243-11.328 10.485-14.362 14.157-4.3175 5.2271-9.1842 12.865-12.499 19.615-5.0964 10.378-8.332 20.77-10.42 33.47-1.0065 6.1203-1.2184 9.1594-1.2187 17.464 0 11.623 1.0784 18.864 4.4143 29.632 6.4236 20.733 20.749 38.801 41.381 52.19 14.688 9.5319 30.796 15.308 48.132 17.26 4.3405 0.48865 18.087 0.34541 22.594-0.23546zm108.24-30.327c13.49-0.97811 27.066-6.6748 37.703-15.82 12.613-10.843 19.718-24.06 21.596-40.168 0.51779-4.4428 0.36777-14.376-0.28946-19.148-2.2296-16.19-7.0001-29.173-15.773-42.924-4.7352-7.4233-9.0175-12.752-15.541-19.34-8.5299-8.6136-16.008-14.138-25.315-18.7-6.8606-3.363-14.863-5.9234-21.917-7.0126-6.7074-1.0357-15.37-0.72343-22.268 0.80256-3.2282 0.71416-9.9174 2.7988-9.92 3.0914 0 0.10295 0.86149 0.86728 1.9164 1.6985 5.1623 4.0672 11.402 10.214 16.035 15.796 13.01 15.676 21.626 36.205 24.532 58.449 0.57202 4.3787 0.80645 16.983 0.40243 21.64-1.7103 19.718-8.7836 39.438-19.018 53.021-1.3819 1.8339-1.4811 1.6583 1.9079 3.376 6.3323 3.2094 12.939 4.8735 21.715 5.4697 0.29104 0.0198 2.196-0.0849 4.2333-0.23265zm-224.63-1.043c4.8188-0.7828 13.015-3.0463 13.801-3.8111 0.23151-0.22534-0.21114-0.9516-1.7949-2.9449-4.5318-5.7039-8.0933-11.672-11.29-18.918-0.86677-1.9645-1.7592-4.1077-1.9833-4.7625-0.2241-0.65485-0.63606-1.7264-0.91546-2.3812-2.7509-6.4474-4.8043-15.97-5.7544-26.687-1.5351-17.31 1.3346-35.849 8.1735-52.806 0.5252-1.3016 0.95462-2.4652 0.95462-2.5857 0-0.54351 4.1299-8.7417 5.8727-11.658 1.0628-1.7785 1.9799-3.3462 2.0378-3.4837 0.35481-0.84127 3.3803-5.2526 5.4732-7.9798 4.0119-5.2279 10.131-11.674 14.793-15.583 4.2672-3.5775 5.8219-4.98 5.8219-5.2516 0-0.67765-10.63-3.0885-15.855-3.5959-6.4677-0.62809-14.688-0.0981-20.066 1.2936-4.5733 1.1835-7.3377 2.2326-12.233 4.6425-13.274 6.5348-25.137 16.701-35.167 30.137-9.4726 12.69-15.21 24.557-18.672 38.624-2.1889 8.8924-3.0128 15.325-3.0197 23.58-0.0079 8.7105 1.0046 15.004 3.7179 23.125 1.5005 4.4916 5.5261 12.341 8.0862 15.768 2.8728 3.8454 7.9081 9.154 11.321 11.935 4.7744 3.8909 13.15 8.7195 18.077 10.422 6.3976 2.2106 10.772 3.1384 16.053 3.4047 3.783 0.19076 9.8467-0.0435 12.568-0.48546z" fill="#150750"/>
   <g fill="#ec3942">
    <path d="m155.24 178.12c0.59002-3.3696 0.93689-6.9428 2.1135-10.111 1.8034-3.3441 2.7416-7.1726 4.5569-10.558 9.0154-19.747 23.229-37.515 41.839-48.958 4.4683-2.6356 9.0477-5.2336 13.974-6.8894 1.115 2.9611 0.72072 6.37 0.88291 9.5249 0.68871 11.63-5.3242 22.606-13.213 30.739-8.033 8.1931-17.699 14.508-26.331 22.021-7.1046 5.8317-14.72 11.332-23.342 14.652-0.26008 0.0954-0.54107-0.15703-0.48101-0.42204z"/>
    <path d="m359.54 180.9c-7.1882-4.3302-25.198-17.229-35.061-25.112-12.177-9.7315-18.649-16.31-22.841-23.216-3.8796-6.3907-5.6904-13.546-5.3726-21.226 0.15452-3.738 0.65194-7.5834 1.0298-7.9611 0.40217-0.40217 8.9609 3.6585 13.426 6.37 3.4404 2.0891 8.5072 5.489 10.583 7.1015 14.147 10.987 24.586 23.725 32.827 40.052 1.2636 2.5038 2.3781 4.472 2.4762 4.3737 0.0984-0.0983 0.0939 0.0557-0.0106 0.34235-0.1061 0.2935-0.0873 0.42878 0.0431 0.30972 0.32385-0.29568 2.1082 6.0681 3.2597 11.624 0.54161 2.6133 1.3817 8.0961 1.2594 8.2184-0.0339 0.0338-0.76253-0.36092-1.6195-0.87712z"/>
    <path d="m416.76 304.27c-0.54504-0.76123-2.0302-2.4374-3.3002-3.7247l-2.3093-2.3407 1.6574-1.5577c0.91122-0.85672 2.1233-1.852 2.6929-2.2116l1.0358-0.65392-0.40534-0.97036c-0.22304-0.53369-0.34793-1.1905-0.27755-1.4597 0.0704-0.26913 0.0212-0.42261-0.11192-0.34107 3.605-7.975 11.995-9.075 14.681-0.68739 0.88265 2.9726 0.41698 5.1172-1.46 6.7238-1.197 1.0245-2.5617 1.489-4.3757 1.489h-1.3039l-1.606 2.1828c-0.88344 1.2005-2.0092 2.8058-2.5019 3.5671-0.49265 0.76139-1.0149 1.3808-1.1605 1.3764-0.14552-4e-3 -0.71041-0.63076-1.2554-1.392z"/>
    <path d="m394.39 359.44c-2.2929-2.574-3.2954-3.5813-6.5622-6.594l-2.9353-2.707-0.17039-3.7724c-0.27014-5.9728-1.2896-9.886-4.0161-15.414-2.9509-5.983-8.5759-12.604-13.965-16.437l-2.2765-1.6193 0.83952-1.1582c3.8851-5.3591 10.281-9.0603 17.366-10.049 5.288-0.73801 11.766 0.70601 16.983 3.7854 2.3064 1.3614 6.2873 5.1947 7.9126 7.619 2.272 3.3886 4.0402 7.6746 4.8027 11.642 0.54504 2.8343 0.39185 9.1958-0.29527 12.273-1.5092 6.758-4.1614 12.123-8.564 17.324-1.9362 2.2873-4.8768 5.067-6.5744 6.2151l-0.97261 0.65775z"/>
   </g>
   <path d="m335.29 442.8c-3.5864-4.1127-7.2678-8.5763-9.0956-13.697 1.192-13.604-0.21034-27.256-2.6609-40.645-0.712-4.0794-1.5097-8.1472-2.5585-12.155 1.7648-3.5433 3.7349-7.7468 7.6086-9.1978-0.74401 6.146-0.98187 12.58-0.0921 18.808 3.7301 19.14 9.6695 43.54 31.004 46.043 11.01 1.1046 22.696-0.81944 32.125-6.8206 6.3016-5.3488 11.798-17.068 11.055-24.881 0.37333-3.6738 2.1392 4.0201 2.8488 5.1205 4.2381 10.722 4.5236 23.307-1.0877 33.602-22.641 42.724-48.351 25.232-69.146 3.8235z" fill="#fa7516"/>
   <path d="m267.67 469.97c-7.1869-0.56235-15.427-3.3067-21.239-7.0735-4.1137-2.6664-10.819-9.1133-10.458-10.055 0.073-0.19056 0.0286-0.28208-0.0987-0.20334-0.34158 0.21106-0.89853-0.56917-0.67019-0.93869 0.11509-0.18645 0.0839-0.24791-0.0757-0.14922-11.841-12.611-1.0475-8.0061-2.979-23.098-0.34872-2.883-0.3466-12.913 3e-3 -18.528 1.8957-30.373 6.785-46.498 17.001-56.068 3.9357-3.6871 8.3704-6.0271 14.21-7.498 1.8288-0.46066 3.0644-0.56925 6.6146-0.58118 4.7638-0.0161 6.6151 0.24786 10.446 1.489 10.191 3.3015 17.85 10.015 22.895 20.068 6.7911 13.533 11.532 48.534 8.5643 63.227-6.7834 15.927 13.434 5.1365-5.6057 25.003-4.2648 4.4315-7.737 7.0074-13.019 9.6578-7.279 3.6528-16.859 5.4297-25.591 4.7465z" fill="#ec3942"/>
  </g>
  <rect x="188" y="209.83" width="24.988" height="18.012" ry="9.0061" fill="#fb8757" stop-color="#000000" stroke-width=".40444"/>
  <rect x="301.19" y="208.46" width="24.988" height="18.012" ry="9.0061" fill="#fb8757" stop-color="#000000" stroke-width=".40444"/>
  <g stroke-width=".26458">
   <path d="m241.17 236.7c-5.996-1.473-11.116-6.3505-12.258-11.677-1.0792-5.0318 1.8767-9.4405 5.4605-8.1446 1.9857 0.71797 2.911 2.6995 2.6141 5.5977-0.1405 1.3699-0.0736 1.9066 0.35877 2.8843 0.75909 1.716 2.2561 3.255 3.9881 4.1 1.2507 0.61018 1.8473 0.73162 3.6145 0.73573 1.8299 4e-3 2.3543-0.10764 3.869-0.8254 4.1222-1.9531 6.0426-5.2692 6.0497-10.447l3e-3 -2.281-1.3491-0.17896c-5.0715-0.67276-10.723-4.0922-13.19-7.981-1.7537-2.7638-2.4305-7.2177-1.4952-9.8367 2.3183-6.4905 12.673-11.016 22.648-9.8974 4.0196 0.45061 6.9485 1.2246 9.6584 2.5526 5.5642 2.7265 8.0698 6.0044 8.0698 10.557 0 6.9708-6.591 13.199-15.439 14.59l-1.0197 0.16023 0.0937 3.0976c0.086 2.8512 0.1606 3.2339 0.93821 4.8115 1.098 2.2279 2.7067 3.8397 4.8437 4.8538 1.4695 0.69726 2.0278 0.81696 3.8365 0.82246 1.832 6e-3 2.3479-0.10435 3.8364-0.81722 1.7865-0.85561 3.4417-2.3075 4.1886-3.6742 0.31988-0.58486 0.43895-1.5249 0.45297-3.5719 0.0275-3.9993 0.8972-5.2917 3.5605-5.2917 1.905 0 3.5764 1.3163 4.2455 3.3439 0.42042 1.2741 0.18812 4.6217-0.42915 6.1811-1.2189 3.0798-3.806 6.1438-6.7546 7.9999-6.3804 4.0163-13.431 3.7714-19.241-0.66834-1.1904-0.90979-1.7708-1.5709-3.2478-3.6988-0.0873-0.12602-1.2184 0.82291-2.5135 2.1087-2.6752 2.6563-4.576 3.7921-7.6716 4.5838-2.5 0.63945-5.1464 0.64312-7.7208 0.0109z" fill="#150750"/>
   <path d="m318.6 361.96c3.8208-7.5485 9.6279-14.137 16.999-18.371 6.2987-3.7621 13.622-5.9725 20.997-5.5476 7.615-0.14645 14.996 2.7219 21.469 6.5323 0.67231-1.8478-1.1792-5.0739-1.8195-7.3366-4.1815-10.296-12.556-18.959-23.085-22.757-10.82-4.1299-24.245-3.4894-35.644-2.872 0.87974 6.4535-10.291 36.05-10.291 36.05 0.3503 0.50533 7.534 11.525 9.3946 17.193 0.69929-0.44943 1.5661-2.2025 1.9783-2.8914z" fill="#9df200"/>
   <g fill="#150750">
    <path d="m220.46 438.39c-0.0516-0.0647-0.47096 0.35205-0.93187 0.92604-1.4645 1.823-6.3548 6.7307-8.2751 8.3048-6.182 5.0667-12.59 8.2508-19.304 9.5917-3.4478 0.68858-9.7436 0.73885-13.372 0.10679-15.215-2.6504-26.04-11.721-30.658-25.691-1.3443-4.0665-1.8854-7.3426-1.8854-11.415 0-7.8718 2.1452-16.51 5.9005-23.758l0.83105-1.6042 0.18389 2.6541c0.62124 8.9608 3.7251 16.242 9.3464 21.924 3.3928 3.4299 6.8419 5.7695 11.148 7.562 8.2217 3.4226 19.081 3.0947 26.895-0.81224 2.8845-1.4422 6.0838-3.738 8.2579-5.9258 1.915-1.9273 7.2856-8.5427 11.08-10.665"/>
    <path d="m199.76 205.06c-8.2489-1.7939-14.854-8.8305-16.517-17.597-0.46699-2.461-0.39608-7.3926 0.14234-9.918 1.5684-7.3539 6.2386-13.617 12.442-16.685 3.4319-1.6973 5.1813-2.0975 9.1281-2.0882 4.7175 0.0111 8.2606 1.0885 12.206 3.7111 6.8352 4.5442 11.059 12.863 10.452 20.587-0.87154 11.097-8.6138 19.984-19.175 22.012-2.3937 0.45963-6.5103 0.44902-8.6778-0.0222z"/>
    <path d="m306.53 204.6c-2.1971-0.43188-5.7179-1.952-7.9656-3.4394-4.9488-3.2748-8.3251-7.8552-9.8451-13.357-0.48445-1.7533-0.57944-2.7806-0.57362-6.2023 8e-3 -4.7992 0.43101-6.7657 2.2966-10.677 2.5707-5.3894 6.355-8.9924 11.998-11.423 4.9146-2.1171 11.149-1.867 16.425 0.65916 2.767 1.3249 4.2627 2.3475 6.3775 4.3604 3.1067 2.957 5.5449 7.1171 6.6762 11.392 0.79825 3.0154 0.8046 7.857 0.0159 11.08-2.1492 8.7706-9.0824 15.775-17.294 17.471-2.1614 0.44643-6.1881 0.51409-8.1103 0.13629z"/>
   </g>
  </g>
  <g fill="#fff">
   <ellipse cx="313.44" cy="172.66" rx="9.0086" ry="9.5886" stop-color="#000000" stroke-width="1.152"/>
   <ellipse cx="210.92" cy="173.51" rx="9.0086" ry="9.5886" stop-color="#000000" stroke-width="1.152"/>
   <g stroke-width=".91299">
    <ellipse cx="212.35" cy="373.36" rx="7.1393" ry="7.599" stop-color="#000000"/>
    <ellipse cx="282.95" cy="369.99" rx="7.1393" ry="7.599" stop-color="#000000"/>
    <ellipse cx="365.4" cy="365.51" rx="7.1393" ry="7.599" stop-color="#000000"/>
   </g>
   <ellipse cx="396.81" cy="318.24" rx="4.5948" ry="4.8907" stop-color="#000000" stroke-width=".5876"/>
   <g stroke-width=".26458">
    <path d="m393.59 145.61c-5.2345-1.1842-9.524-5.6134-10.334-10.671-1.2224-7.635 6.1857-11.405 13.244-6.74 3.9529 2.6125 7.1438 7.5874 7.1438 11.138 0 2.5894-1.3343 4.7934-3.552 5.867-1.5311 0.74113-4.2648 0.9116-6.5021 0.40548z"/>
    <path d="m140.06 145.62c-7.3184-2.0145-8.827-10.883-2.7969-16.442 2.5418-2.343 5.5192-3.4286 8.8217-3.2166 3.1435 0.20174 5.5446 1.8826 7.1784 5.0252 0.64082 1.2325 0.72839 1.697 0.73686 3.9121 8e-3 2.2777-0.0677 2.6774-0.8173 4.2593-2.3733 5.0083-8.1211 7.8386-13.123 6.4618z"/>
    <path d="m257.15 201.64c-3.1559-0.44766-6.4563-1.414-8.7675-3.7182-1.2482-1.3593 0.76437-2.2219 1.8022-2.6751 4.0765-1.9503 8.7526-2.2084 13.175-1.6394 2.3458 0.3778 4.7169 1.1078 6.6474 2.5266 1.4161 0.80113 0.38732 2.25-0.67952 2.748-3.4164 2.6019-8.0105 3.1811-12.178 2.7582z"/>
   </g>
  </g>
  <path d="m121.27 321.36c-3.0681-3.6899-4.4162-8.4325-5.3076-13.06-2.1982-1.2842-4.9447-1.0035-7.1938-2.2515-2.3235-0.85356-7.079-2.9336-4.9835-6.0174 3.174-3.135 7.6705-4.2868 11.862-5.3977 0.77101-5.0807 2.1342-10.381 5.6187-14.312 2.7044-1.1886 4.0158 2.4536 5.0054 4.3342 1.4542 3.0619 2.3504 6.3796 2.8272 9.7202 2.4223 1.4862 5.6993 1.5189 8.2264 3.221 2.4208 0.91604 6.4608 3.8845 3.3423 6.4115-3.1286 2.547-7.2661 3.3131-11.131 4.0346-1.2318 2.7332-1.2333 5.8597-2.6207 8.5581-0.87053 1.5918-3.3656 8.2164-5.6444 4.7589z" fill="#ccc" stroke-width=".26458"/>
  <path d="m340.9 334.39c-3.5314-0.59592-5.8661-1.6948-7.1652-3.3727-1.6828-2.1732-0.22622-4.5091 3.6965-5.9291 2.0876-0.75567 7.5941-0.96475 10.305-0.39123 4.032 0.85301 6.7024 2.8917 6.7024 5.1166 0 0.97292-0.14949 1.2906-1.0052 2.1352-2.1407 2.1131-7.8676 3.2286-12.533 2.4413z" fill="#fff" stroke-width=".26458"/>
 </g>
</svg>
