<?xml version="1.0" encoding="UTF-8"?>
<!-- Created with Inkscape (http://www.inkscape.org/) -->
<svg id="svg100135" width="32.4mm" height="37.3mm" version="1.1" viewBox="0 0 32.4 37.3" xmlns="http://www.w3.org/2000/svg">
 <g id="layer1" transform="translate(-67.5 -114)">
  <ellipse id="path101315" cx="83.1" cy="150" rx="11.8" ry="2.46" fill="#f1ddd1" stop-color="#000000" stroke-width=".5"/>
  <g stroke-width=".0447">
   <path id="path109064" d="m93.9 138c-0.13-0.633-0.266-1.27-0.315-1.91 0.0014-0.122 0.212-0.106 0.306-0.162 0.518-0.16 1.06-0.258 1.61-0.232 0.271 0.0117 0.554 0.13 0.712 0.358 0.153 0.236 0.0595 0.536-0.0697 0.759-0.343 0.586-0.872 1.04-1.44 1.4-0.206 0.124-0.415 0.244-0.639 0.334-0.0895-0.169-0.115-0.364-0.163-0.547z"/>
   <path id="path108254" d="m87.6 149c-2.51-0.309-4.98-1.17-7.09-2.59-2.69-1.65-4.84-4.13-6.18-6.98-0.662-2.26-1.1-4.61-0.901-6.97 0.242-6.55 4.45-12.6 10.2-15.6 3.16-1.89 7.02-2.34 10.6-1.55 0.595 0.0757 1.23 0.433 1.75-0.0261 0.617-0.313 1.23-0.625 1.85-0.938-0.348 0.808 1.2 2.14 0.28 2.35-1.1 0.348-2.95 1.38-0.933 2.04 0.498 0.164-1.06 1.5-1.06 2.29-0.67 2.04-1.37 4.08-1.97 6.14-0.701 3.26-0.838 6.67-0.349 9.97 0.465 2.53 1.56 4.93 3.11 6.99-1.28-8e-3 -2.41 2.13-1.19 3.11-0.503 0.764-2.28 1.16-3.35 1.52-1.54 0.367-3.15 0.401-4.73 0.242z" fill="#fabf2e"/>
   <path id="lefteye" d="m78.8 136c-0.387-0.225-1.24-0.325-1.78-0.21-0.318 0.0677-0.334 0.0671-0.455-0.0188-0.189-0.134-0.485-0.487-0.6-0.713-0.247-0.487-0.32-1.16-0.177-1.65 0.211-0.711 0.837-1.32 1.56-1.51 0.511-0.137 1.25-0.0373 1.7 0.23 0.628 0.367 1.09 1.17 1.09 1.9 0.0011 0.285-0.155 0.864-0.298 1.11-0.161 0.274-0.468 0.596-0.726 0.762-0.236 0.152-0.223 0.148-0.316 0.0943z"/>
   <path id="path116591" d="m95.4 146c-1.52-0.885-2.86-2.23-3.89-3.7-0.923-1.31-1.53-2.81-1.92-4.35-1.04-0.0946-1.43-1.66-0.327-1.88 0.664-0.575 1.71 0.244 2.22-0.376 1-0.925 0.825-2.71-0.343-3.41-0.423-0.568-2.04 0.104-1.51-1.08 0.502-4.86 3.05-9.37 6.61-12.7 0.4-0.282 1.43-0.899 1.51-0.843-0.705 0.404-2.43 1.01-0.96 1.7 1.3 0.206-0.306 0.967-0.388 1.75-0.835 1.84-1.25 3.83-1.97 5.71-0.927 3.05-1.07 6.29-0.894 9.46 0.246 2 0.641 4.02 1.58 5.83 0.439 0.971 1.06 1.84 1.6 2.75-0.389 0.0861-0.672 0.418-0.988 0.736-0.191 0.0932-0.214 0.212-0.328 0.368z" fill="#f89015"/>
   <path id="path116513" d="m87.8 149c-1.96-0.157-3.84-0.807-5.61-1.63-0.779-0.351-1.48-0.866-2.2-1.31-2.08-1.41-3.8-3.36-5.04-5.54-0.51-0.665-0.922-1.63-0.226-2.34 0.188-0.34 0.488-1.19 0.691-0.367 2.24 4.72 6.89 8.3 12.1 8.9 2.56 0.266 5.35 0.138 7.54-1.37 0.61-0.14-0.296 0.919 0.209 1.25 0.445 0.518 0.349 1.07-0.361 1.22-2.19 1.08-4.7 1.42-7.12 1.18z" fill="#f89015"/>
   <path id="path108314" d="m84.5 121c0.92-0.305 1.74-0.882 2.37-1.61 0.27-0.324 0.538-0.737 0.443-1.18-0.0607-0.34-0.339-0.64-0.692-0.674-0.478-0.0598-0.935 0.158-1.35 0.372-0.711 0.389-1.36 0.913-1.83 1.58-0.218 0.322-0.325 0.732-0.24 1.12 0.0981 0.343 0.478 0.511 0.812 0.486 0.163-5e-3 0.325-0.039 0.48-0.0868z" fill="#fff"/>
   <path id="path108312" d="m78.2 129c1.12-0.579 1.93-1.58 2.65-2.59 0.708-1.05 1.31-2.2 1.61-3.44 0.127-0.544 0.122-1.24-0.376-1.6-0.416-0.277-0.946-0.115-1.34 0.116-0.998 0.534-1.78 1.39-2.46 2.27-0.697 0.948-1.33 1.97-1.66 3.12-0.149 0.601-0.218 1.28 0.068 1.85 0.254 0.423 0.823 0.572 1.27 0.38 0.0837-0.0276 0.165-0.0609 0.245-0.0981z" fill="#fff"/>
   <path id="path109076" d="m99.4 118c-0.212-0.0921-0.723-0.595-0.94-0.923-0.415-0.629-0.655-1.33-0.661-1.93-0.0032-0.304 0.0087-0.356 0.105-0.458 0.166-0.177 0.47-0.163 0.726 0.0317 0.411 0.313 0.909 1.23 1.12 2.06 0.115 0.455 0.0999 0.951-0.0348 1.13-0.114 0.153-0.143 0.161-0.313 0.0866z"/>
   <path id="leftpupil" d="m77.3 133c0.224-0.108 0.416-0.392 0.416-0.616 0-0.205-0.151-0.473-0.328-0.582-0.444-0.275-1.06 0.0835-1.06 0.617 0 0.166 0.0278 0.24 0.142 0.379 0.245 0.297 0.502 0.359 0.828 0.202z" fill="#fff"/>
   <path id="righteye" d="m88.7 136c-0.333-0.225-0.465-0.356-0.668-0.659-0.713-1.07-0.361-2.58 0.728-3.14 0.632-0.321 1.47-0.327 2.12-0.016 0.814 0.394 1.32 1.35 1.18 2.23-0.0889 0.552-0.402 1.13-0.764 1.4-0.147 0.112-0.154 0.113-0.417 0.0507-0.517-0.122-1.23-0.0437-1.68 0.183-0.12 0.0606-0.226 0.11-0.236 0.11-0.0103 0-0.127-0.073-0.258-0.162z"/>
   <path id="rightpupil" d="m89.2 133c0.0791-0.0338 0.203-0.124 0.275-0.201 0.107-0.113 0.135-0.188 0.149-0.396 0.015-0.214 5.28e-4 -0.282-0.0865-0.409-0.213-0.31-0.585-0.398-0.907-0.215-0.497 0.281-0.517 0.936-0.0367 1.19 0.2 0.106 0.408 0.117 0.607 0.0319z" fill="#fff"/>
  </g>
  <g stroke-width=".0447">
   <path id="path109066" d="m83.4 136c-0.688-0.192-1.25-0.76-1.44-1.45-0.0939-0.34-0.126-0.707-0.0441-1.05 0.0363-0.186 0.255-0.31 0.429-0.229 0.17 0.0891 0.252 0.277 0.267 0.461 0.0564 0.43 0.115 0.896 0.413 1.24 0.298 0.347 0.81 0.488 1.24 0.327 0.44-0.147 0.778-0.555 0.829-1.02 0.0665-0.298 0.0301-0.625 0.179-0.901 0.11-0.209 0.411-0.193 0.534-6e-3 0.182 0.21 0.133 0.505 0.112 0.758-0.0939 0.778-0.587 1.54-1.34 1.82-0.361 0.106-0.748 0.132-1.12 0.0712l-0.0296-7e-3 -0.0278-8e-3z"/>
   <path id="path109062" d="m95.6 148c-0.486-0.515-0.554-1.46-0.148-2.05 0.267-0.387 1.08-1.05 1.28-1.05 0.0379 0 0.797 0.834 0.944 1.04 0.0509 0.0704 0.0343 0.125-0.125 0.415-0.407 0.738-1.01 1.36-1.73 1.78-0.0374 0.022-0.115-0.0268-0.22-0.137z"/>
   <path id="path109060" d="m85.5 150c-0.293-0.15-0.431-0.353-0.537-0.793-0.153-0.634-0.149-0.596-0.0584-0.56 0.123 0.0489 1.57 0.382 1.79 0.412 0.107 0.0147 0.203 0.0414 0.215 0.0595 0.0431 0.0696-0.124 0.444-0.28 0.626-0.301 0.351-0.744 0.452-1.13 0.256z"/>
   <path id="path106750" d="m80.5 150c-0.287-0.0986-0.519-0.335-0.651-0.605-0.213-0.648-0.367-1.31-0.538-1.97-0.158-0.651-0.332-1.3-0.452-1.96 0.0172-0.157 0.213 0.0955 0.284 0.128 0.728 0.554 1.5 1.05 2.29 1.51 0.169 0.0799 0.38 0.177 0.319 0.405-0.0371 0.552-0.0832 1.1-0.157 1.65-0.0399 0.271-0.113 0.584-0.38 0.719-0.211 0.131-0.473 0.189-0.716 0.125z"/>
  </g>
  <g id="g114929" transform="matrix(.14 0 0 .14 -146 -275)" fill="#fb5558" stroke-width=".32">
   <path id="path114904" d="m1646 2940c-3.85-1.38-5.95-4.94-6.31-10.7-0.01-0.088 4.02-0.16 8.94-0.16h8.95l-0.172 1.76c-0.379 3.89-1.43 6-3.91 7.9-2.2 1.68-4.99 2.14-7.51 1.24z"/>
   <path id="path114902" d="m1691 2953c-2.64-0.515-5.44-1.44-7.2-3.6-1.36-1.6-1.73-4.02-0.648-5.86 1.45-2.59 4.34-3.86 7.07-4.64 3.56-1.03 7.28-0.345 10.9-0.2 1.04-0.127 1.1 1 2.05 1.08 1.32 0.814 2.58 1.81 3.51 3.07 1.21 2.2 0.547 5.11-1.11 6.9-1.46 1.38-3.35 2.24-5.25 2.81-2.84 0.616-5.78 0.792-8.67 0.55-0.216-0.024-0.432-0.054-0.647-0.093z"/>
   <path id="path114900" d="m1601 2954c-2.21-0.383-6.05-2.24-7.39-3.58-2.75-2.75-2.56-6.7 0.437-8.95 2.78-2.09 4.1-2.47 9.36-2.7 3.57-0.158 5.44 0.161 9.24 1.58 1.79 0.668 3.93 3.17 4.34 5.05 0.752 3.51-1.28 6.01-6.49 8-1.95 0.743-6.87 1.06-9.48 0.606z"/>
  </g>
  <g id="g113114" transform="matrix(.14 0 0 .14 193 -28.3)" stroke-width=".32">
   <path id="path109044" d="m-847 1284c-3.76-2.83-6.31-7.27-10.7-9.65-1.42-1.04-2.9-3.14-3.94-0.589-3.99 2.42-9.13 1.14-13.6 1.24-3.15-0.245-4.13-4.59-6.98-0.739-4.91 2.08-6.95 7.02-11 9.7-4.32 1.54-8.26-4.85-4.6-7.86 5.69-4.4 11.6-8.58 17.6-12.4 8e-3 -4.26 3.94-5.12 7.43-4.81 2.43 0.655 1.33-2.1 1.55-3.57-0.0428-4.63 0.0578-9.27-0.221-13.9-3.04-0.019-3.31-2.62-3.58-4.56-3.34 0.206-7.33-0.877-7.9-4.74 0.274-4.81-6.18-8.4-1.81-13.3 1.38-2.97 2.88-5.87 4.33-8.8-4.63-4.41-7.52-10.6-7.07-17.1-4e-3 -11.5 8.45-21.8 18.7-26.3 9.84-4.15 22.5-1.53 28.8 7.42 4.39 5.37 4.16 12.8 3.31 19.2-3.02 11.7-13.3 22.2-25.8 23-2.13-0.383-3.38 0.084-2.75 2.44-0.0882 4.96 0.239 9.94-0.284 14.9-1.74 4.78-0.701 10-1.07 15-0.0291 3.41-0.0583 6.81-0.0874 10.2 3.98-0.758 6.82 1.8 7.47 5.43 5.72 4.59 12.3 8.14 17.7 13.1 2.41 3.48-1.79 8.1-5.57 6.58z"/>
   <g id="g112948" transform="translate(153 2.98)" fill="#cebfc2">
    <path id="path109058" d="m-993 1177c-1.82-7.1-8.68-12.4-17-13.2-1.1-0.101-2-0.078-1.99 0.051 0 0.129 0.757 0.739 1.67 1.36 4.45 3 13.4 11.3 16.3 15.2l1.42 1.9 0.097-1.66c0.053-0.916-0.132-2.56-0.411-3.65z"/>
    <path id="path109056" d="m-995 1192c0.596-1.47 1.08-2.99 1.08-3.37 0-1.29-7.44-10.1-11.8-14.1-5.69-5.09-11.1-9.12-12.2-9.12-0.604 0-3.55 1.5-4.82 2.45-1.25 0.935-1.31 1.48-0.244 1.97 1.8 0.819 7.24 4.59 10.1 6.99 6.93 5.85 14.1 13.7 15.7 17.2 0.217 0.475 0.547 0.813 0.734 0.751 0.187-0.062 0.828-1.32 1.42-2.79z"/>
    <path id="path109054" d="m-1e3 1201c1.03-0.9 2.96-2.08 1.48-3.48-2.33-3.84-5.12-7.39-8.31-10.6-4.88-5.09-10.4-9.62-16.3-13.4-1.17-1.05-2.78-1.16-3.51 0.417-1.08 1.5-2.29 3.05-2.72 4.88 0.777 1.06 2.29 1.42 3.39 2.15 5.9 3.5 11.2 7.96 16.1 12.7 2.56 2.47 4.95 5.12 6.84 8.14 0.765 1.89 2.06-0.388 3.05-0.882z"/>
    <path id="path109052" d="m-1011 1205c0.733-0.15 0.732-0.151-0.32-1.65-1.95-2.78-9.87-10.4-14.1-13.5-4.16-3.11-7.79-5.42-8.51-5.42-0.41 0-0.531 1.45-0.409 4.93 0.124 3.56 2.26 7.93 5.22 10.7 1.66 1.53 4.88 3.37 7.46 4.27 2.99 1.04 7.62 1.37 10.6 0.754z"/>
   </g>
  </g>
  <path id="path117861" d="m97.1 119c-1.16-0.323-1.9-1.89-1.54-3.13 1.53-1.26 1.93-0.918 2.28-1.1 0 0 0.0053 2.14 1.7 2.95 0.0762 0.0337 0.139 0.0764 0.139 0.0947 0 0.0184-0.219 0.143-0.487 0.277-0.555 0.278-1.18 0.638-1.49 0.858-0.245 0.173-0.345 0.182-0.592 0.0528z" fill="#5c8722" stroke-width=".0447"/>
 </g>
</svg>
