<?xml version="1.0" encoding="UTF-8"?>
<!-- Created with Inkscape (http://www.inkscape.org/) -->
<svg width="36.6mm" height="44.2mm" version="1.1" viewBox="0 0 36.6 44.2" xmlns="http://www.w3.org/2000/svg">
 <g transform="scale(1.1)">
  <path id="a" d="m14.8 18.5c-1.54-0.65-1.5-3.24 0.188-3.66 1.69-0.656 3.32 1.44 2.33 2.9-0.5 0.861-1.63 1.15-2.52 0.757z" fill="#171148" stroke-width=".0183"/>
  <path d="m15 39.1c-0.408-1.55-0.6-3.16-1.04-4.71-0.422-0.728-1.29-1.22-1.38-2.11 0.0025-0.198-0.102-0.53 0.209-0.431 3.74 0.013 7.48 0.0261 11.2 0.0391 4.41e-4 0.862 0.0638 1.81-0.507 2.52-0.256 0.326-0.607 0.586-0.962 0.781-1.44 0.0111-2.88-0.027-4.32 0.0297-0.537 0.0246-1.2 0.142-1.41 0.715-0.327 0.884-0.35 1.84-0.559 2.76 0.0591 0.637-0.631 0.583-1.07 0.515l-0.0969-0.044-0.0577-0.0715z" fill="#f98855" stroke-width=".0768"/>
  <path d="m23.1 39.1c-0.425-1.04-0.204-2.35-1.08-3.2-0.256-0.354-1.47-0.181-1.36-0.293 0.852-0.442 1.83-1.01 2.05-2.03 0.0981-0.497 0.0573-1.01 0.0663-1.51-3.54-0.0235-7.07-0.0358-10.6-0.0695 5.6-0.0158 11.2-0.0039 16.8-0.0069-0.0253 0.529 0.108 1.22-0.463 1.51-0.618 0.217-0.96 0.754-1.01 1.39-0.312 1.36-0.538 2.76-0.856 4.12-0.512 0.429-1.3 0.19-1.93 0.267-0.512-0.0741-1.19 0.162-1.61-0.181z" fill="#935579" stroke-width=".0795"/>
  <g stroke-width=".0693">
   <path d="m16.1 39.1c0.0371-0.0666 0.149-0.62 0.248-1.23 0.0991-0.609 0.226-1.26 0.282-1.42 0.201-0.635 0.645-0.829 1.85-0.813 0.608 0.0078 0.686 0.0189 0.374 0.0524-0.461 0.0494-0.697 0.201-1 0.643-0.178 0.262-0.239 0.469-0.37 1.25-0.204 1.21-0.269 1.46-0.404 1.57-0.0646 0.0498-0.312 0.0865-0.584 0.0865-0.429 0-0.466-0.0111-0.404-0.121z" fill="#935579"/>
   <path d="m8.99 28.3c-0.288-0.0408-0.406-0.385-0.325-0.637 0.0961-0.384 0.371-0.689 0.617-0.981 0.278-0.302 0.595-0.564 0.91-0.827 0.269-0.0399 0.415 0.259 0.395 0.489 0.0194 0.284-0.0126 0.587 0.13 0.845 0.16 0.529-0.26 1.09-0.778 1.2-0.307 0.0811-0.683 0.128-0.951-0.0835z" fill="#d1c862"/>
   <path d="m13.9 31.2c-1.08-3.87-1.63-7.91-1.66-12 0.0446-3.26 0.315-6.65 1.86-9.57 0.851-1.5 1.93-2.92 3.28-4.01-1.11 1.31-1.59 3.02-2.08 4.64-0.368 1.42-0.533 2.88-0.687 4.35-0.454 0.476-1.1 0.91-1.01 1.62-0.277 1.41 1.29 2.7 2.63 2.18 1.39-0.402 1.85-2.39 0.765-3.36-0.584-0.522-1.66-0.476-1.16-1.57 0.319-2.97 1.11-6.01 2.96-8.42 0.779-0.646 1.9-0.334 2.84-0.29 1.07 0.307 1.43 1.58 1.93 2.46 0.977 2.27 1.38 4.73 1.54 7.17-0.341 0.515-1.57-0.405-2.16 0.324-0.98 0.462-1.23 1.72-0.826 2.66 0.198 0.82 1.19 1.25 2.05 1.17 0.628-0.0109 1.08-0.673 1.55-0.119 1.29 0.0558 0.33-1.95 0.549-2.74-0.153-2.82-0.44-5.68-1.54-8.3 0.368 0.232 0.897 1.72 1.22 2.44 1.44 4.21 1.29 8.72 1.16 13.1-0.192 2.76-0.494 5.54-1.29 8.2-0.708 0.138-1.16-0.0454-0.681-0.82 0.938-3.3 1.11-6.74 1.17-10.1-0.323 0.0435-0.809-0.0843-1.03 0.0608-0.143 3.65-0.223 7.4-1.5 10.9-2.04 0.165-4.09 0.0574-6.14 0.0865-0.312-0.0769-0.857 0.197-0.936-0.231-1.07-3.47-1.29-7.14-1.29-10.8-0.936 0.0701-1.17 0.764-1.03 1.65 0.024 3.07 0.408 6.14 1.18 9.12-0.08 0.435-1.24 0.14-1.65 0.171z" fill="#d1c862"/>
  </g>
  <g fill="#568272" stroke-width=".0693">
   <path d="m23.8 31.2c0.096-0.124 0.403-1.14 0.603-1.99 0.465-1.98 0.699-3.95 0.814-6.83l0.0837-2.1h1.03l-0.0452 1.79c-0.0816 3.22-0.519 6.41-1.17 8.52l-0.218 0.71h-0.586c-0.458 0-0.571-0.0188-0.519-0.0865z"/>
   <path d="m14.7 14.6c0.0328-0.0626 0.0964-0.472 0.141-0.91 0.255-2.49 0.694-4.28 1.52-6.2 0.392-0.911 0.687-1.41 1.14-1.92 0.183-0.21 0.335-0.408 0.336-0.44 0.0022-0.0571 0.777-0.307 1.22-0.391l0.226-0.0437-0.238 0.209c-0.468 0.411-1.29 1.83-1.81 3.11-0.629 1.58-1.04 3.32-1.26 5.31l-0.121 1.12-0.414 0.0433c-0.228 0.0237-0.501 0.0867-0.607 0.14-0.175 0.0874-0.187 0.0857-0.133-0.0174z"/>
   <path d="m30.7 28.3c-0.257-0.134-0.503-0.33-0.62-0.602-0.0484-0.151 0.0111-0.309 0.0234-0.461 0.1-0.669 0.231-1.33 0.325-2 0.0078-0.16 0.163-0.169 0.255-0.0639 0.393 0.294 0.75 0.637 1.07 1.01 0.274 0.338 0.546 0.721 0.577 1.17 0.0271 0.501-0.346 1.01-0.852 1.08-0.265 0.0453-0.54-0.0142-0.778-0.132z"/>
   <path d="m26.1 30.3c1.21-4.68 1.31-9.55 1.14-14.3-0.195-2.99-0.743-6.03-2.22-8.67-0.441-0.643 0.239 0.758 0.273 1.05 0.945 3.02 1.08 6.21 1.18 9.36 0.321 0.855-1.51 0.475-0.885-0.0255 0.836-0.86 0.702-2.44-0.296-3.12-0.195-0.77-0.0862-1.61-0.243-2.4-0.389-2.56-0.991-5.25-2.65-7.31-0.512-0.466 0.749 0.0748 0.976 0.123 2.78 1.07 4.89 3.56 5.63 6.43 0.84 3 0.817 6.16 0.676 9.25-0.227 3.47-0.853 6.91-1.75 10.3-0.664 0.0557-1.33 0.0245-2 0.0327 0.0572-0.202 0.115-0.404 0.172-0.605z"/>
   <path d="m15.7 31.2c0.0221-0.0221-0.0219-0.264-0.0978-0.537-0.697-2.51-1.23-7.19-1.06-9.46 0.0416-0.582 0.0695-0.7 0.164-0.702 0.0625-0.0029 0.278-0.0588 0.477-0.128l0.363-0.126 9e-4 0.872c0.0027 2.49 0.261 5.39 0.663 7.45 0.153 0.782 0.502 2.16 0.616 2.43l0.0963 0.231h-0.631c-0.347 0-0.613-0.018-0.591-0.0402z"/>
  </g>
  <path d="m14.5 40.1c-2.09-0.181-1.6-2.83-2.11-4.28 0.0049-0.928-0.432-1.45-1.16-1.93-0.588-1.27-0.316-2.79 0.346-3.52-0.262-0.77-0.206-2.25-1.27-1.19-1.98 1.11-3.94-1.57-2.82-3.32 0.403-1.27 2.28-1.88 2.61-2.8-1.28-0.0262-1.52-1.57-0.0338-1.02-0.0741-1.82-0.131-3.66-0.155-5.48-0.619 0.407-2.97 1.35-2.34-0.166 0.785-0.447 2.34-0.741 0.667-1.22-1.66-0.594-0.034-1.75 0.905-0.707 1.63 1.23 0.744-1.83 1.33-2.75-0.16-1.26 1.76-2.96 0.811-3.74-1.85-0.519-0.272-1.87 0.827-0.832 0.98-0.542 1.71-2.04 2.89-2.62 1.12-0.779 2.43-1.26 3.79-1.44-0.644-0.504-1.18-2.51 0.155-1.62 0.479 0.512 1.03 1.27 0.826 0.0918-0.525-1.03 0.909-2.38 1.23-0.858-0.0363 0.938-0.0515 2.06 0.789 0.812 1.71-1.04 0.292 1.44 0.266 1.64 2.46 0.467 4.64 1.93 6.13 3.93 0.706-0.318 2.95-0.576 1.54 0.684-1.8 0.265 0.224 1.82 0.14 2.9 0.507 1.29 0.422 3.16 0.877 4.15 0.561-0.666 3.28-1.38 2.06 0.116-1.04 0.434-1.7 0.952-0.195 1.21 1.65 0.709-0.57 1.65-1.29 0.677-1.27-0.678-0.43 1.91-0.728 2.81 0.25 0.717-0.876 2.84 0.501 2.32 1.68 0.582-0.822 0.837-0.748 1.46 1.54 0.876 3.43 2.47 2.81 4.46-0.472 1.62-2.62 1.99-3.8 0.892-0.103 0.882-1.06 2.06 0.206 2.32 0.307 1.4-0.105 3.06-1.25 3.86-0.359 1.52-0.515 3.14-1.08 4.59-1.17 0.959-3.18 0.706-4.51 0.243-1.14-1.02-0.252-3.9-2.57-3.33-2.41-0.577-1.16 2.56-2.56 3.43-0.953 0.416-2.1 0.231-3.11 0.241zm2.54-1.39c0.488-1.11 0.161-3 1.62-3.41 1.2 0.0689 2.46-0.221 3.59 0.237 1.38 0.556 0.305 3.15 1.68 3.32 0.902-0.147 2.52 0.516 2.62-0.796 0.55-1.49-0.0184-3.72 1.59-4.54 0.656-0.926 0.189-1.58-0.804-1.3l-15.2 0.0329c-0.0475 1.4 1.68 1.94 1.43 3.52 0.298 1.42 0.161 3.8 2.31 3.1 0.364-0.058 0.847 0.0855 1.16-0.16zm10.6-8.11c1.5-5.73 2.32-11.8 1.41-17.7-0.505-3.92-3.34-7.73-7.37-8.46-3.99-0.941-8.03 1.91-9.4 5.61-1.6 4.36-1.44 9.12-0.94 13.6 0.292 2.39 0.798 4.77 1.45 7.09h14.8c0.024-0.075 0.048-0.15 0.072-0.225zm-17.6-2.54c1.08-0.25 0.696-1.17 0.581-1.92 0.333-2.62-2.63-0.0461-2.18 1.29 0.149 0.664 1.03 0.937 1.59 0.626zm21.6-0.0415c1.38-0.869-1.1-3.79-1.56-2.76-0.0532 0.743-0.381 1.58-0.301 2.28 0.422 0.535 1.25 0.919 1.86 0.479z" fill="#171148" stroke-width=".0693"/>
  <rect x="23.5" y="18.5" width="3.13" height="1.84" ry=".924" fill="#fa8654" stop-color="#000000" stroke-width=".981"/>
  <rect x="13.3" y="18.5" width="3.13" height="1.84" ry=".924" fill="#fa8654" stop-color="#000000" stroke-width=".981"/>
  <g transform="matrix(.981 0 0 .981 -70.4 -90.4)" stroke-width=".0187">
   <path id="b" d="m87.3 109c1.16-1.5-2.05-1.49-0.965 0.0337 0.251 0.307 0.727 0.261 0.965-0.0337z" fill="#fff"/>
   <path id="c" d="m95.9 111c-1.74-0.196-2.36-2.68-0.951-3.7 1.77-1.56 4.46 1.16 2.86 2.92-0.449 0.523-1.22 0.883-1.91 0.782z" fill="#171148"/>
   <path id="d" d="m91.6 114c-1.38-0.754-1-3.04-0.528-4.25 2.15-1.44 2.5 1.73 2.2 3.19 6.59e-4 0.809-0.959 1.31-1.67 1.06z" fill="#171148"/>
   <path id="e" d="m96.1 109c1.05-1.93-2.51-0.881-0.719 0.216 0.25 0.0722 0.574 0.0397 0.719-0.216z" fill="#fff"/>
  </g>
  <path d="m4.3 18.5s-1.3 3.01 0.943 5.19l2.24 2.18" fill="none" stroke="#000" stroke-width=".488"/>
  <g stroke="#171148">
   <path d="m3.64 17.6c0.0957 0.0158 0.327 0.0298 0.515 0.0311l0.341 0.0024-0.00731 0.236c-0.00399 0.13-0.0199 0.291-0.0353 0.359l-0.028 0.124 0.101 0.0414c0.0554 0.0228 0.113 0.0617 0.127 0.0866 0.0145 0.0249 0.0294 0.0325 0.0332 0.0168 0.32 0.848-0.214 1.54-1.03 1.13-0.282-0.153-0.405-0.344-0.386-0.6 0.0126-0.163 0.0786-0.297 0.212-0.43l0.0955-0.0955-0.0423-0.278c-0.0232-0.153-0.0584-0.353-0.078-0.445-0.0197-0.0919-0.0268-0.176-0.0158-0.186 0.011-0.0102 0.0983-0.0056 0.194 0.01z" fill="#ec3942" stroke-width=".552"/>
   <path d="m2.8 7.85c-1.35 0.298-2.45 1.63-2.53 3.15-0.102 1.31 0.24 2.6 0.582 3.83 0.31 0.988 0.755 2.02 1.61 2.57 0.561 0.385 1.25 0.529 1.9 0.398 1.17-0.189 2.13-1.3 2.32-2.57 0.236-1.42 0.262-2.88 0.0918-4.31-0.155-1.29-0.913-2.54-2.06-2.97-0.607-0.249-1.28-0.269-1.9-0.113z" fill="#171148" stroke-width=".492"/>
   <path d="m6.27 11.7c0.0422 0.189 0.122 0.893 0.136 1.27 0.0749 2.03-0.328 3.13-0.942 3.83-0.237 0.271-0.516 0.455-0.894 0.592-0.118 0.0427-0.2 0.058-0.435 0.0823-0.316 0.0325-0.441 0.0273-0.703-0.0298-0.698-0.152-1.25-0.547-1.65-1.18-0.54-0.853-1.09-3.15-0.986-4.14-0.891-4.55 5.76-5.6 5.48-0.419z" fill="#ec3942" stroke-width=".0178"/>
  </g>
  <ellipse transform="rotate(174)" cx="-.876" cy="-11.2" rx=".476" ry=".507" fill="#fff" stop-color="#000000" stroke-width=".0609"/>
  <path d="m5.76 13.4-1.04 1c-0.294 0.269-0.527 0.405-0.916 0.538-0.421 0.143-0.999 0.19-1.43 0.117l-0.184-0.031-0.015 0.0942c-0.0695 0.436 0.0576 0.912 0.345 1.29 0.215 0.284 0.588 0.522 0.98 0.623 0.173 0.0446 0.542 0.0515 0.733 0.0138 0.267-0.0527 0.553-0.171 0.776-0.323 0.159-0.108 0.452-0.415 0.565-0.593 0.248-0.39 0.376-0.768 0.413-1.22 0.23-1.42-1.16-0.174-0.223-1.51z" fill="#df1520" stroke-width=".0176"/>
 </g>
 <path d="m27.8 14.2c-0.464-0.434-0.731-0.535-1.42-0.535l-0.435-4.07e-4 -0.109-0.0726c-0.213-0.142-0.278-0.408-0.148-0.602 0.156-0.232 0.43-0.328 0.919-0.324 0.595 0.0055 1.16 0.243 1.59 0.662 0.206 0.204 0.274 0.294 0.328 0.442 0.08 0.216 0.0848 0.306 0.0244 0.45-0.0628 0.15-0.195 0.244-0.345 0.244-0.111 0-0.153-0.0272-0.406-0.264z" fill="#0b2d2b" stroke-width=".00846"/>
 <path d="m15.1 14.5c-0.226-0.0654-0.389-0.347-0.343-0.591 0.0295-0.157 0.237-0.457 0.451-0.653 0.232-0.212 0.528-0.359 0.977-0.486 0.298-0.0842 0.419-0.102 0.696-0.104 0.402-0.0022 0.582 0.0546 0.745 0.235 0.147 0.163 0.174 0.317 0.0883 0.495-0.101 0.208-0.247 0.276-0.598 0.276-0.606 0.0011-1.05 0.174-1.41 0.548-0.201 0.209-0.364 0.32-0.463 0.313-0.0226-0.0011-0.0868-0.0162-0.143-0.0324z" fill="#0b2d2b" stroke-width=".00846"/>
</svg>
