<?xml version="1.0" encoding="UTF-8"?>
<!-- Created with Inkscape (http://www.inkscape.org/) -->
<svg width="26.1mm" height="35.8mm" version="1.1" viewBox="0 0 26.1 35.8" xmlns="http://www.w3.org/2000/svg">
 <g transform="matrix(.642 0 0 .642 -15 -71)">
  <path d="m38.8 165c-0.0243-0.0633-0.131-0.529-0.237-1.04-0.889-4.26-1.03-4.68-1.83-5.5-0.71-0.727-0.729-0.761-0.8-1.41-0.0615-0.561-0.0523-0.603 0.141-0.649 0.114-0.027 1.76-0.0282 3.66-3e-3 1.9 0.0256 4.74 0.0489 6.32 0.0519l2.87 5e-3 -0.0573 0.767c-0.0712 0.952-0.376 1.64-0.962 2.18-0.733 0.674-0.767 0.68-3.79 0.683-2.9 2e-3 -3.05 0.0248-3.43 0.513-0.202 0.257-0.384 1.22-0.565 2.99-0.153 1.49-0.168 1.52-0.781 1.52-0.305 0-0.51-0.0437-0.537-0.115z" fill="#fa8858" stroke-width=".0947"/>
  <path d="m39.9 165c0.269-1.32 0.271-2.68 0.555-4 0.111-0.642 0.742-0.998 1.36-0.919 1.46-0.0634 2.94 0.0573 4.39-0.111 0.679-0.137 1.15-0.75 1.46-1.33 0.342-0.67 0.307-1.44 0.329-2.17-2.58-0.0279-5.16-0.0429-7.75-0.0827 4.21-0.0451 8.42-0.0324 12.6-0.0505 0.615-2e-3 1.23-3e-3 1.84-5e-3 -0.0208 0.476 0.0546 0.967-0.063 1.43-0.463 0.333-1.01 0.638-1.28 1.17-0.481 1.83-0.627 3.74-1.05 5.58-0.178 0.717-1.02 0.535-1.57 0.563-0.575-0.043-1.21 0.0958-1.75-0.133-0.388-1.18-0.301-2.48-0.81-3.62-0.324-0.601-0.986-0.942-1.66-0.918-1.25-0.0382-2.5 0.0134-3.75 0.023-0.527 0.332-0.989 0.816-1.09 1.45-0.228 0.973-0.255 1.99-0.538 2.95-0.228 0.397-0.926 0.258-1.26 0.159z" fill="#92547f" stroke-width=".09"/>
  <path d="m37.5 155c-1.81-6.08-2.68-12.5-2.07-18.8 0.298-2.08 0.459-4.3 1.55-6.15 0.9-1.56 2.88-2.06 4.55-1.67 3.44 0.75 6.37 2.89 9.11 5 1.27 1.01 2.51 2.08 3.68 3.21-0.251 6.14-0.502 12.3-0.754 18.4-5.36 0.0145-10.7 0.0289-16.1 0.0434z" fill="#ccd365"/>
  <path d="m47.1 121c0.287-0.0976 0.537-0.19 0.554-0.205 0.0177-0.015-0.0829-0.175-0.224-0.355-0.705-0.901-2.76-3.95-3.64-5.4-0.0479-0.0789-0.413-0.648-0.811-1.26-0.692-1.07-0.737-1.12-1.02-1.12-0.384 7e-3 -1.19 0.749-0.586 0.182 0.524-0.495 0.977-0.34 1.92 0.66 0.257 0.272 0.747 0.785 1.09 1.14 0.739 0.771 1.35 1.43 2.23 2.41 0.359 0.4 1.1 1.21 1.65 1.79 0.59 0.631 0.961 1.09 0.914 1.14-0.28 0.466-3.28 1.43-2.08 1.02z" fill="#90547a" stroke-width=".0866"/>
  <path d="m57 152c-0.11-0.0643-0.362-0.267-0.56-0.451l-0.36-0.334 0.156-0.956c0.0858-0.526 0.207-1.43 0.27-2.02 0.147-1.36 0.133-1.32 0.391-1.18 0.426 0.24 1.24 0.894 1.57 1.26 0.827 0.915 1.12 2.15 0.697 2.96-0.314 0.6-0.608 0.778-1.35 0.811-0.383 0.0171-0.695-0.017-0.818-0.0893z" fill="#59877d" stroke-width=".0921"/>
  <path d="m41.5 122c-1.82-0.329-3.61-0.796-5.44-1.06-0.0883-0.793 0.158-1.58 0.264-2.36 0.169-0.839 0.198-1.71 0.436-2.53 0.187-0.578 0.875-0.869 1.43-0.652 0.78 0.354 1.76 0.104 2.26-0.59 0.5-0.574 0.748-1.4 1.45-1.77 0.528-0.211 0.736 0.512 1.01 0.822 1.38 2.18 2.69 4.4 4.2 6.5 0.162 0.274 0.59 0.784 0.54 0.94-0.369 0.133-0.831 0.347-1.26 0.442-1.37 0.382-2.82 0.388-4.23 0.324-0.221-0.0155-0.441-0.0368-0.659-0.0723z" fill="#fa8858" stroke-width=".0868"/>
  <path d="m26.8 136c-1.4-1.82-1.27-4.3-0.652-6.4 1.21-3.71 4.78-6.4 8.64-6.75 1.94-0.134 3.83 0.496 5.72 0.817 3.72 0.811 7.96 0.176 10.8-2.55 1.53-1.28 2.48-3.05 3.73-4.57 0.507-0.858 2.54-1.64 2.89-1.13-2.19 1.08-3.2 3.46-4.93 5.07-2.08 2.1-4.77 3.6-7.71 4.03-4.48 0.862-9.34 0.742-13.4 3.15-2.51 1.49-4.75 3.93-4.96 6.97-0.248 0.387 0.758 2.75-0.121 1.36z" fill="#fa8858" stroke-width=".0847"/>
  <path d="m39.5 129s-1.91 12-1.3 12.7c0.609 0.704 1.33 0 1.33 0s1.06-12.4 1.53-13" fill="#728658"/>
  <g stroke-width=".0847">
   <path d="m37.7 142c-0.822-0.163-0.935-1.47-0.154-1.79 0.327-0.132 2.02-0.157 2.41-0.0351 0.367 0.114 0.529 0.369 0.529 0.832 0 0.523-0.244 0.908-0.617 0.978-0.436 0.0818-1.78 0.091-2.17 0.0147z" fill="#fd5555"/>
   <path d="m42.3 166c0-0.0233 0.019-0.0423 0.0423-0.0423s0.0423 0.019 0.0423 0.0423-0.019 0.0423-0.0423 0.0423-0.0423-0.019-0.0423-0.0423z" fill="#fa8858"/>
   <path d="m52.5 166c0-0.0233 0.019-0.0423 0.0423-0.0423s0.0423 0.019 0.0423 0.0423-0.019 0.0423-0.0423 0.0423-0.0423-0.019-0.0423-0.0423z" fill="#fa8858"/>
  </g>
  <path d="m38.6 155c1.07-0.0407 1.24-0.0654 1.13-0.164-0.305-0.258-0.807-2.12-0.982-3.64-0.255-2.22-0.512-6.61-0.515-8.79l-3e-3 -1.23h1.33l0.0586 2.95c0.108 5.46 0.511 8.85 1.2 10.1 0.288 0.506 0.633 0.804 0.974 0.841 0.163 0.0178-0.77 0.0324-2.07 0.0325-1.77 1.7e-4 -2.05-0.012-1.11-0.0477z" fill="#728658" stroke-width=".0855"/>
  <path d="m48.4 155c0.332-0.287 0.809-1.03 1.03-1.61 0.664-1.73 1.13-5.54 1.24-10.2 0.0489-2.01 0.0687-2.23 0.189-2.18 0.0741 0.0351 0.358 0.0797 0.63 0.099l0.496 0.0351-0.0563 2.19c-0.157 6.09-0.83 10.2-1.86 11.5-0.116 0.141-0.186 0.282-0.156 0.312 0.0297 0.0305-0.355 0.0555-0.856 0.0555h-0.91z" fill="#365d4b" stroke-width=".0858"/>
  <g stroke-width=".0847">
   <path d="m38.1 166c-2.53-1.18-1.18-4.88-2.85-6.7-1.57-1.23-0.601-4.04-0.0475-5.02-0.394-1.03-0.413-2.97-1.77-1.41-2.69 1.21-4.75-2.33-3.52-4.56 0.429-1.9 2.87-2.46 3.52-3.79-1.53 0.302-2.74-1.12-0.522-1.1 0.989-0.178-0.0381-2.24 0.304-3.08-1.2-0.344-3.02-0.163-4.31-0.867-4.51-1.78-6.6-7.36-4.96-11.8 1.25-4 4.96-7 9.11-7.5 1.03-2.14 0.113-5.19 2.02-6.95 1.61-1.56 4.32 1.11 4.92-1.73 1.69-2.02 4.32-0.376 5.39 1.41 1.71 1.82 3.28 3.79 5.09 5.51 2-1.96 3.06-5.29 6.19-5.76 4.26-0.681 7.66 3.84 7.41 7.8 0.142 4.83-3.28 9.03-7.38 11.2 0.347 0.991-0.516 3.57 1.08 3.32 1.33-0.393 2.49 1.09 0.439 1.07-1.48-0.336-1.09 0.967-1.12 1.92-0.0037 1.81 0.0144 3.63-0.109 5.44 1.24-0.214 2.65 0.986 0.542 1.09-1.73 0.8 2.17 1.67 2.38 2.96 1.64 1.79 0.959 5.43-1.76 5.61-1.43 0.294-2.66-1.96-2.69 0.37-0.777 1.79 1.98 4.67-0.758 6.03-1.3 1.95-0.0695 5.76-2.82 6.58-2.45 0.657-5.26-0.41-4.89-3.37-0.67-1.9-4.72-1.23-4.02 1.26 0.0206 2.68-3.1 2.21-4.86 2.06zm2.66-1.41c1.49-0.891 0.453-5.25 3.74-4.3 2.52-0.699 4.42 1.04 4.2 3.6 0.573 1.48 4.35 1.01 3.69-1.27-0.0468-2.18 1.04-3.96 2.08-5.44 0.285-1.14-1.26-0.452-1.93-0.64-5.55-0.0132-11.1-9e-3 -16.7-0.0391-0.227 1.98 2.22 2.96 1.8 5.24 0.338 2.41 0.266 3.38 3.08 2.85zm13-10.5c1.95-6.46 2.07-13.3 1.57-20-0.403-3.17-0.957-6.43-2.6-9.23-2.59 0.951-5.17 1.95-7.9 2.46-2.89 0.741-5.88 1.09-8.74 1.93-1.71 4.85-1.57 10.1-1.34 15.2 0.364 3.51 0.805 7.07 2.05 10.4 5.57-0.0145 11.1-0.0289 16.7-0.0434 0.0818-0.24 0.162-0.481 0.245-0.72zm-5.27 0.55c0.108-0.152 0.108 0.152 0 0zm0.246-0.197c0.579-0.789-0.154 0.498 0 0zm2.07-13.4c-0.0601-0.238 0.29 0.31 0 0zm-10.3-1.86c-2.99-0.616-2.08-5.66 1.03-4.85 3.17 0.625 2.11 5.54-1.03 4.85zm0.233-2.96c1.49-2.16-2.93-1.38-0.879 0.207 0.3 0.15 0.655 5e-3 0.879-0.207zm9.19 2.79c-3.46-1.12-0.624-6.8 2.16-4.19 1.92 1.49 0.275 5.21-2.16 4.19zm0.285-2.64c2.1-1.42-2.08-2.67-1.05-0.23 0.244 0.289 0.702 0.459 1.05 0.23zm-11-5.22c0.0908-0.219 0.0907 0.219 0 0zm0.593-2.41c0.108-0.152 0.108 0.152 0 0zm-6.76 22.8c1.97-0.812 0.753-3.68 0.389-4.89-1.98 0.633-3.65 4.45-0.839 5zm25.1-0.0634c3.2-0.986-1.93-7.09-1.71-3.12-0.418 1.46-0.529 3.64 1.71 3.12zm-25-13.7c1.26-2-3.34-1.17-1.22-2.95 2.09 0.634 1.48-1.68 1.87-2.99-0.0803-2.75 1.67-5.04 4.57-4.98 4.68-1.07 9.53-1.78 13.8-4.06 0.688-1.66 5.3-2.81 4.53-0.248-1.19 1.02-3.73 1.14-2 2.97 0.998 1.34 0.716 5.54 2.97 3.03 3.5-2.37 5.6-7.25 3.68-11.2-1.05-2.07-3.87-3.92-6.02-2.25-2.17 2.22-3.61 5.26-6.49 6.73-3.24 1.89-7.15 1.47-10.6 0.621-3.34-0.798-7.25-0.825-9.91 1.69-3.47 2.91-4.39 8.77-1.07 12.1 1.3 1.43 4.38 2.73 5.89 1.89 0.0098-0.127 0.0196-0.254 0.0294-0.382zm12.2-16.7c1.62-0.312 4.98-1.29 2.39-2.93-1.8-1.9-3.44-3.98-5.41-5.71-1.85-0.182-2.48 3.69-4.86 2-2.9-0.397-1.97 3.73-2.68 5.52 2.42 0.31 4.85 0.935 7.29 1.29 1.09 0.0411 2.19 0.0221 3.27-0.159z"/>
   <path d="m39.1 132c0-0.186 0.238-1.78 0.345-2.31l0.0888-0.44 0.482-0.101c0.265-0.0555 0.615-0.128 0.779-0.161l0.297-0.0598-0.51 3.04-0.662 0.0308c-0.364 0.0169-0.698 0.0526-0.741 0.0792-0.0431 0.0266-0.0784-0.0111-0.0784-0.0841z" fill="#365d4b"/>
   <path d="m51.2 135c-0.116-0.0373-0.367-0.0716-0.557-0.0762-0.212-5e-3 -0.348-0.0494-0.352-0.114-0.0167-0.277-0.711-4.96-0.857-5.78-0.0912-0.512-0.212-1.19-0.268-1.51-0.056-0.317-0.088-0.587-0.0711-0.6 0.0169-0.0132 0.306-0.124 0.643-0.247l0.613-0.223 0.0414 0.188c0.451 2.05 1.23 7.2 1.23 8.12 0 0.335-0.0407 0.357-0.423 0.235z" fill="#365d4b"/>
   <path d="m40.6 132c0.169-0.992 0.279-2 0.521-2.97 1.67-0.428 3.38-0.713 5.06-1.15 0.968-0.232 1.93-0.498 2.88-0.788 0.35 1.43 0.526 2.91 0.766 4.36 0.178 1.11 0.289 2.24 0.505 3.35 0.757 0.201-0.464 0.193-0.704 0.403-0.173-0.534-0.874-0.771-1.3-1.11-2.09-1.32-4.54-2.03-7.01-2.08-0.222-0.0116-0.444-0.0231-0.666-0.0347m-3.1 0.369c-0.684 0.134-1.39 0.197-2.06 0.379-0.344 0.663 6e-3 -0.36 0.0553-0.606 0.187-0.659 0.214-1.38 0.538-1.99 0.594-0.363 1.37-0.339 2.04-0.537 0.419 0.0155 1.19-0.453 1.4-0.102-0.15 0.855-0.283 1.71-0.404 2.57" fill="#59877d"/>
   <path d="m32.1 139c-1.95-0.0402-4.03-1.08-5.09-2.58-0.221-0.974-0.399-2.53 0.138-3.67 1.42-3.92 5.44-6.18 9.34-7.01 4.07-0.999 8.45-0.709 12.3-2.47 2.85-1.36 4.92-3.82 6.83-6.25 0.9-1 2.32-2.58 3.7-1.36 2.01 1.21 3.07 3.62 2.88 5.93-0.116 3.38-2.32 6.35-5.11 8.12-1.52 1.37-1.06-1.91-1.83-2.66-0.163-1.05-2.14-2.53-0.158-2.8 0.94-0.472 3.45-1.27 2.14-2.61-1.5-0.101-2.83 0.956-4.2 1.46-3 1.54-6.21 2.66-9.52 3.31-2.6 0.656-5.3 0.933-7.82 1.87-1.58 0.746-1.42 2.78-1.79 4.22-0.403 1.08 0.169 3.4-1.62 2.96-1.78 0.466-0.126 2.09 1.07 1.61-0.209 0.621 0.32 2.06-0.527 1.99-0.255-0.0168-0.511-0.0322-0.766-0.047z" fill="#90547a"/>
  </g>
  <path d="m32.5 152 0.264-0.0333-0.233-0.233c-0.699-0.699-0.402-2.34 0.594-3.28 0.435-0.413 0.586-0.498 0.627-0.355 0.0529 0.183 0.39 2.55 0.39 2.74 0 0.226-0.718 0.927-1.12 1.09-0.173 0.072-0.421 0.125-0.55 0.117-0.226-0.013-0.225-0.0149 0.0286-0.0469z" fill="#59877d" stroke-width=".0847"/>
  <path d="m49.8 155c0.56-0.869 1.01-1.84 1.23-2.87 0.82-3.53 0.882-7.18 0.968-10.8 0.642-0.21 1.38-0.0236 2.01-0.172 0.605-0.443 0.475-1.32-0.135-1.69-1.06-0.016-2.13 6e-3 -3.2-0.0521 1.51-0.0919 2.74-1.7 2.24-3.17-0.306-1.19-1.73-1.64-1.48-3.03-0.243-2.45-0.781-4.85-1.22-7.26 0.862-0.13 2.12-1.33 2.76-0.54 2.07 3.7 2.59 8.01 2.83 12.2 0.197 5.36-0.189 10.8-1.72 16-0.146 0.454-0.307 0.904-0.461 1.36-1.26 0.162-2.56 0.143-3.82 0.0742z" fill="#5b867d" stroke-width=".0881"/>
  <path d="m51.1 142c-0.943-0.163-1.07-1.47-0.176-1.79 0.375-0.132 2.31-0.157 2.76-0.0351 0.422 0.114 0.607 0.369 0.607 0.832 0 0.523-0.28 0.908-0.708 0.978-0.5 0.0818-2.04 0.091-2.48 0.0147z" fill="#fd5555" stroke-width=".0907"/>
  <circle id="a" cx="50.7" cy="137" r="2.47" stop-color="#000000"/>
  <path id="b" d="m49.6 137c-0.269-0.212-0.437-0.665-0.361-0.971 0.0303-0.121 0.186-0.334 0.345-0.474 0.915-0.804 2.1 0.464 1.22 1.31-0.339 0.324-0.89 0.388-1.21 0.139z" fill="#fff" stroke-width=".0847"/>
  <circle id="c" cx="41" cy="137" r="2.47" stop-color="#000000"/>
  <path id="d" d="m39.9 137c-0.319-0.173-0.453-0.617-0.298-0.985 0.184-0.435 0.443-0.621 0.865-0.621 0.878 0 1.18 1.09 0.445 1.6-0.234 0.164-0.713 0.165-1.01 3e-3z" fill="#fff" stroke-width=".0847"/>
  <circle id="e" cx="45.8" cy="143" r="2.29" stop-color="#000000" stroke-width=".217"/>
 </g>
</svg>
