<?xml version="1.0" encoding="UTF-8"?>
<!-- Created with Inkscape (http://www.inkscape.org/) -->
<svg width="45.415mm" height="47.6mm" version="1.1" viewBox="0 0 45.415 47.6" xmlns="http://www.w3.org/2000/svg">
 <g transform="translate(-94.799 -95.608)">
  <path d="m120.89 102.18c-1.7282 4e-3 -3.4576 0.30278-5.0209 1.0439-1.0678 0.61995 0.73081-0.0531 0.85835 0.67799-0.0151 1.0572-1.725 0.35849-2.1373 1.3498-1.3648-0.0589-0.14061-1.692 0.7059-1.6583-0.41912-0.19427-1.0534 0.20642-1.2816 0.62631-0.94036 1.0733-1.8021 2.2372-2.3797 3.5533-0.80884 1.6758-1.0937 3.5454-1.0284 5.394 0.0781 0.0397 0.34924 0.98923 0.60668 1.5674 1.4992 3.2933 4.9848 5.4486 8.5566 5.6622 1.5622 0.11134 3.1558-0.10116 4.6188-0.66817 3.2226-1.2832 5.9685-4.2237 6.3578-7.7577 0.11531-0.41554-0.0988-2.2762 0.33021-1.0149 0.29894 0.9942 0.17609-0.25434 0.123-0.67541 0.15803-0.78951-0.65648-1.059-0.68369-1.756-0.91277-3.2804-3.9834-5.6546-7.2859-6.181-0.7692-0.10624-1.5544-0.16511-2.3399-0.1633zm4.0897 3.6773c0.82128-5e-3 1.6546 0.38362 2.0908 1.1157 0.99934 1.3285 0.23596 3.4965-1.4046 3.8494-0.53912 0.13558-1.1246 0.0738-1.6263-0.16433-1.4474-0.66912-1.9032-2.7485-0.84335-3.9502 0.43047-0.57242 1.1029-0.84645 1.7834-0.85059zm-10.411 1e-3c0.81967-0.0157 1.6554 0.38764 2.0588 1.1395 0.89739 1.3326 0.13571 3.3948-1.4495 3.7502-0.39055 0.0792-0.82552 0.0905-1.2077-0.0346-1.7013-0.48461-2.2027-2.9032-0.99632-4.1248 0.40711-0.48435 0.99659-0.71874 1.5947-0.73019zm4.8803 4.4437c1.7304-2.1e-4 3.6109 0.65462 4.3734 2.3074 0.43911 0.80906 0.29963 1.7293 0.24443 2.6009 0.0938 2.2231-1.8118 4.1926-3.992 4.3744-1.1274 0.10967-2.323-0.22004-3.191-0.9617-1.7436-1.4147-2.3104-3.9567-1.5317-6.0291 0.52225-1.457 2.0693-2.2792 3.5662-2.2712 0.17439-0.0137 0.35171-0.0207 0.53072-0.0207z" fill="#f6c127" stroke-width=".029068"/>
  <g transform="matrix(.029068 0 0 .029068 -207.34 233.13)" fill="#75c52b">
   <path d="m11350-4574.1c-24.633-5.5772-76.725-7.4187-103.07-3.6435-7.054 1.0107-13.063 1.5994-13.354 1.3082-0.571-0.5706-3.368-14.5-3.244-16.154 0.147-1.9629 2.772 6.0514 2.847 8.6909 0.04 1.4801 0.422 2.9053 0.846 3.1672s4.291-0.3625 8.593-1.3876c21.197-5.0499 62.187-7.1453 81.137-4.1476 17.254 2.7294 31.058 5.481 32.25 6.4283 0.687 0.5465 1.25 2.0901 1.25 3.4302 0 3.6808 1.651 1.899 2.363-2.5491 0.344-2.1515 1.528-5.874 2.633-8.2721 1.104-2.3981 1.704-3.2352 1.333-1.8602s-1.393 5.6153-2.271 9.423c-0.878 3.8078-2.038 7.013-2.578 7.1228-0.539 0.1098-4.47-0.5905-8.735-1.5562z"/>
   <path d="m11081-4527.8c-3.129-5.4386-3.11-5.4084-7.829-12.378-4.189-6.1871-3.326-5.6855 1.859 1.0799l2.541 3.3152 6.93-4.7441c8.995-6.1586 28.705-15.646 39.489-19.009 17.449-5.4411 40.035-9.4623 53.784-9.5758 3.694-0.03 10.991-0.6073 16.216-1.2817l9.5-1.2262 0.597-6.9684 0.598-6.9683-0.1 7.4724-0.1 7.4725-13 2.169c-17.089 2.8514-20.413 3.6661-36.989 9.0665-28.197 9.1867-45.418 17.116-60.404 27.814-4.734 3.3794-9.131 6.4535-9.771 6.8313-0.706 0.416-2.017-0.7943-3.326-3.0694z"/>
   <path d="m11494-4520.6c-29.112-19.53-60.99-34.603-89.006-42.085-7.276-1.9433-13.792-3.7121-14.479-3.9307-0.781-0.2482-1.187-2.0048-1.082-4.6788l0.168-4.2814 0.392 3.75c0.388 3.7098 2.357 5.0399 3.86 2.6079 1.017-1.6465 19.441-0.4617 32.531 2.0919 20.484 3.9965 41.648 11.881 62.779 23.388 5.72 3.1144 10.943 5.6625 11.607 5.6625 2.301 0 10.213-6.8872 11.833-10.3 0.895-1.8864 2.515-7.1452 3.599-11.686 1.085-4.5411 2.193-8.4774 2.463-8.7474 0.27-0.2699 2.621 0.2348 5.224 1.1216 5.828 1.986 5.267 2.0423 6.345-0.6375l0.904-2.25 0.06 2.1495c0.03 1.1822-1.592 4.5572-3.616 7.5-10.581 15.389-13.99 21.013-18.913 31.2-2.964 6.1328-5.393 11.713-5.398 12.401-0.02 2.1927-2.358 1.3663-9.274-3.2737z"/>
   <path d="m10965-4431.2c-5.706-5.0843-20.88-16.452-27.807-20.831-4.179-2.6421-5.946-4.6209-8.315-9.3153-1.655-3.2784-2.835-6.1349-2.622-6.3479 0.213-0.2129 1.665 2.2876 3.228 5.5566 1.562 3.2691 3.42 6.1659 4.127 6.4374 1.409 0.5406 1.601 0.026 3.428-9.1837 0.686-3.4536 1.616-6.5077 2.068-6.7869 0.451-0.2791 2.004 1.4215 3.45 3.7793 7.417 12.093 16.774 23.787 19.033 23.787 0.79 0 6.021-4.7594 11.624-10.576 16.261-16.883 31.153-27.114 47.428-32.583 6.023-2.0238 9.982-4.1671 14.565-7.8838 3.461-2.8073 10.019-7.5966 14.573-10.643l8.28-5.5386-3.511-6.3877c-1.931-3.5133-3.317-6.3878-3.078-6.3878 0.621 0 7.529 11.93 7.529 13.002 0 0.4923-3.488 3.2242-7.75 6.0708-4.263 2.8466-10.675 7.4886-14.25 10.316-3.575 2.827-8.196 6.4004-10.269 7.9409-11.504 8.55-36.427 34.862-49.18 51.921-3.186 4.2625-6.302 7.7308-6.922 7.7074-0.621-0.023-3.154-1.8473-5.629-4.0529z"/>
   <path d="m11599-4427.7c-21.846-28.27-47.767-53.755-71.903-70.695-2.634-1.8482-3.282-5.0232-1.573-7.7033 0.661-1.0368 0.777-0.3832 0.375 2.1168-0.481 2.9964-0.194 3.8876 1.674 5.1959 1.334 0.9342 3.328 1.3645 4.882 1.0536 8.109-1.6217 48.049 20.938 77.084 43.539 5.719 4.452 10.972 8.0946 11.672 8.0946 2.052 0 14.966-11.62 20.947-18.846 7.445-8.995 11.805-16.363 14.449-24.419 2.442-7.4393 4.044-8.3488 6.463-3.6708 1.997 3.8619 3.597 3.3577 5.218-1.644 1.14-3.5178 1.22-3.5865 0.784-0.6698-0.267 1.7875-1.394 5.2458-2.506 7.6851-1.111 2.4393-3.384 8.1768-5.052 12.75-3.906 10.711-9.066 21.028-10.977 21.948-0.825 0.3971-4.505 2.0657-8.178 3.7079-12.272 5.4873-24.931 15.534-33.464 26.557l-3.018 3.8984z"/>
   <path d="m10894-4298.2c-2.75-0.4733-12.415-1.0208-21.478-1.2168l-16.479-0.3563-8.8-8.2638c-10.044-9.4303-17.636-18.455-26.836-31.897-3.524-5.1488-7.068-10.276-7.875-11.395l-1.468-2.0331 2.089 1.3046c1.802 1.1255 2.505 1.0082 5.122-0.8554 1.668-1.188 3.448-2.16 3.955-2.16 0.506 0 3.114 3.4875 5.796 7.75 2.681 4.2625 8.803 11.659 13.604 16.438 13.489 13.424 26.922 19.107 45.37 19.192 4.95 0.023 11.795-0.5608 15.211-1.2974l6.211-1.3392 2.179-6.6216c9.911-30.126 28.205-66.272 40.043-79.122l4.146-4.5-3.672 5c-6.383 8.6914-17.546 28.045-24.087 41.762-6.229 13.06-11.791 27.485-19.085 49.488l-3.729 11.25-2.608-0.1336c-1.435-0.073-4.859-0.5208-7.609-0.994z"/>
   <path d="m11664-4293.3c-0.199-0.6875-1.374-5.3-2.612-10.25-6.809-27.237-27.214-73.312-38.305-86.493-1.463-1.7385-2.659-3.9138-2.659-4.8341 0-2.3143 12.918-17.272 19.216-22.25 2.849-2.252 7.678-5.3434 10.732-6.8697 6.089-3.0439 15.935-6.5035 16.604-5.8343 0.233 0.2327-2.159 1.2332-5.314 2.2233-7.965 2.4989-15.742 6.6393-22.342 11.895-6.006 4.7823-17.903 18.639-17.886 20.833 0.01 0.7307 4.755 6.5036 10.554 12.829 21.051 22.959 36.903 51.684 41.941 76 1.378 6.6479 1.614 6.6323 16.38-1.0796 17.691-9.2391 33.743-19.862 43.114-28.533 4.125-3.8164 9.486-8.7273 11.912-10.913 12.873-11.598 15.666-14.458 19.249-19.724 4.181-6.1412 6.32-7.9116 3.023-2.5-1.09 1.7875-5.116 8.5158-8.948 14.952-13.031 21.886-24.676 36.26-39.969 49.328l-7.234 6.1817-12.766 0.5613c-9.075 0.3991-15.589 1.3083-22.529 3.1444-11.216 2.9676-11.674 3.0179-12.161 1.333z"/>
   <path d="m10842-4135.6c-19.405-4.2641-39.5-15.651-56.337-31.924-13.228-12.784-29.135-32.44-29.135-36 0-0.7943 3.169-6.1836 7.042-11.976 10.293-15.392 25.208-30.562 37.458-38.096 4.53-2.7863 1.857-0.4614-6.245 5.4327-3.985 2.8987-10.899 9.167-15.365 13.93-8.527 9.0936-21.89 28.188-21.89 31.278 0 2.4467 2.244 3.4691 10.369 4.7243 3.778 0.5837 6.97 1.1952 7.095 1.359 0.124 0.1637 2.044 2.9977 4.266 6.2977 12.231 18.163 38.397 36.546 61.419 43.15 8.123 2.3303 10.306 2.5597 19.742 2.0753 9.975-0.512 22.747-3.4216 25.757-5.8675 0.827-0.6724 1.001-6.5773 0.622-21.145-0.819-31.509 2.193-63.749 8.146-87.188 1.688-6.6462 2.2-10.309 1.534-10.975-0.55-0.5497-3.351-1.285-6.225-1.6341l-5.225-0.6346 4.185-0.1408c2.301-0.077 5.386 0.316 6.854 0.8742 2.288 0.8698 2.57 1.4065 1.974 3.75-1.856 7.2874-5.535 27.036-7.124 38.235-1.414 9.9665-1.816 20.385-1.982 51.404-0.181 33.941-0.405 39.015-1.756 39.771-0.852 0.4766-5.734 1.7501-10.85 2.8299-10.756 2.2704-25.232 2.4683-34.329 0.4693z"/>
   <path d="m11710-4133c-5.974-2.4288-14.247-4.4915-31.5-7.8536-4.153-0.8093-4.041 0.8769-1.545-23.174 1.552-14.955 1.655-19.536 0.706-31.5-0.611-7.7-1.36-18.05-1.665-23-0.735-11.917-3.302-32.536-4.969-39.917-0.735-3.2542-1.108-6.5131-0.828-7.2419 0.554-1.4445 12.195-5.3752 15.656-5.2863 1.18 0.03-1.22 0.9358-5.332 2.0124-9.705 2.5407-10.6 3.4278-8.6 8.5237 1.96 4.9916 4.22 22.542 5.602 43.489 0.682 10.353 2.366 23.177 4.557 34.708 5.34 28.108 8.268 34.156 17.49 36.134 27.014 5.7933 69.411-12.837 96.761-42.519l7.167-7.778 2.805 2.6872c3.48 3.3344 3.87 3.3312 7.719-0.063 1.716-1.5125-2.538 2.8187-9.452 9.6249-22.48 22.128-36.553 32.856-55.663 42.431-8.651 4.3344-28.301 11.766-30.756 11.632-0.634-0.035-4.303-1.3438-8.153-2.9092z"/>
   <path d="m11673-3976.6c-4.193-0.7592-12.005-2.946-17.36-4.8597-9.678-3.4591-26.308-12.12-27.142-14.136-0.24-0.5802 1.921-5.2912 4.802-10.469 15.212-27.336 29.098-66.474 33.465-94.324 1.536-9.7955 2.205-12.014 3.86-12.805 1.737-0.8311 1.792-0.7852 0.414 0.348-2.023 1.664-3.361 13.786-3.013 27.305 0.753 29.323-6.626 56.089-23.112 83.834l-2.278 3.8344 1.89 1.3817c2.807 2.0528 15.713 6.055 27.461 8.5162 8.86 1.8561 12.554 2.1 25.5 1.684 18.419-0.592 32.005-3.8151 52.135-12.368 16.411-6.9726 16.504-7.0008 16.504-4.9994 0 4.4167 11.561-1.3274 12.281-6.1021l0.42-2.7813 0.149 2.595c0.188 3.2505-1.373 4.6158-11.35 9.9291-31.332 16.686-40.373 20.466-56.338 23.556-9.111 1.7632-28.159 1.6938-38.288-0.1395z"/>
   <path d="m10868-3976.1c-14.018-2.4708-29.538-7.7419-45.82-15.563-7.35-3.5298-13.961-6.4179-14.691-6.4179-0.731 0-1.558-0.3708-1.839-0.8241-0.28-0.4532 0.436-0.7907 1.59-0.75 1.686 0.06 2.48-1.0568 4.034-5.6759 1.064-3.1625 2.315-5.75 2.78-5.75 0.466 0 3.466 1.7361 6.667 3.8579 14.379 9.5301 26.045 14.635 42.982 18.809 8.961 2.2079 13.005 2.6586 23.339 2.6012 11.112-0.062 13.557-0.4106 22.024-3.1432 5.238-1.6905 10.37-3.6924 11.404-4.4486l1.88-1.3748-3.65-8.4991c-8.071-18.792-11.797-34.918-12.086-52.302-0.16-9.6832-0.69-12.736-4.425-25.5-2.334-7.975-4.809-17.838-5.5-21.918-0.96-5.6746-1.713-7.6097-3.202-8.2328-1.688-0.7068-1.624-0.7838 0.485-0.5818l2.43 0.2328 2.21 10.5c1.215 5.775 3.422 14.55 4.905 19.5 1.482 4.95 3.515 12.15 4.518 16 3.725 14.309 18.411 46.689 29.086 64.129l4.144 6.7711-2.317 1.8764c-4.981 4.0338-20.72 12.7-26.623 14.659-13.211 4.3844-27.35 5.0368-44.325 2.045z"/>
   <path d="m10920-3836.2c-0.865-1.322-1.82-4.4287-2.122-6.9037l-0.55-4.5 1.372 5.3233c0.755 2.9278 1.814 5.7648 2.353 6.3043 1.267 1.2662 12.824 0.691 12.611-0.6276-0.09-0.55-0.464-2.6186-0.833-4.5968l-0.67-3.5968 15.832 5e-4c28.206 0 51.732-6.0804 73.411-18.976 7.786-4.6314 8.774-5.8897 5.862-7.4692-16.182-8.7788-30.628-19.785-44.811-34.142-14.886-15.069-32.129-38.756-32.129-44.137 0-1.097 2.426-4.2027 5.5-7.0408 3.025-2.7929 5.5-5.4374 5.5-5.8766 0-1.6184-5.285-7.6652-6.699-7.6652-1.889 0-9.152 5.906-16.6 13.5-4.203 4.2843-7.312 8.8595-10.873 16-2.743 5.5-4.667 8.875-4.277 7.5 1.347-4.7368 7.278-15.604 11.281-20.669 5.114-6.4693 18.647-17.578 20.889-17.147 0.937 0.1804 2.973 2.1252 4.524 4.3216 24.563 34.769 47.285 57.887 79.005 80.385 4.812 3.4134 8.756 6.5216 8.764 6.9072 0.01 0.3855-1.637 4.6599-3.657 9.4986l-3.671 8.7976-7.011 4.0946c-26.719 15.605-49.818 21.46-88.802 22.509l-22.626 0.6089z"/>
   <path d="m11637-3834.1c-24.69-0.9791-42.276-4.3742-60.5-11.68-16.986-6.8097-20.986-9.5351-34.729-23.664-7.001-7.1971-12.722-13.761-12.714-14.586 0.01-0.825 3.711-4.355 8.229-7.8444 25.316-19.554 49.908-45.518 69.225-73.085 3.11-4.4389 5.818-8.0706 6.018-8.0706 0.199 0 4.55 2.9694 9.667 6.5987 5.117 3.6292 11.357 7.6439 13.866 8.9215 4.584 2.3344 15.92 13.525 17.956 17.727 0.697 1.4376 0.268 1.1672-1.185-0.7476-5.229-6.8892-13.229-14.5-15.235-14.493-1.154 0-3.448 0.9006-5.098 1.9934-1.65 1.0927-4.363 1.9898-6.028 1.9934-4.178 0.01-6.756 2.0805-10.253 8.2398-10.12 17.822-35.346 45.237-54.469 59.195-5.913 4.3155-10.75 8.221-10.75 8.6787s3.262 3.0337 7.25 5.7244c22.63 15.27 54.391 25.303 85.082 26.876l11.832 0.6065-0.628 3.3432c-0.482 2.5727-0.284 3.3432 0.859 3.3432 0.818 0 1.765 0.45 2.105 1s0.03 0.9242-0.691 0.8316c-0.72-0.093-9.634-0.4985-19.809-0.902z"/>
   <path d="m11495-3731.1c-0.96-0.5595-6.36-2.3179-12-3.9075-34.268-9.6596-64.715-28.845-79.796-50.282-4.767-6.7752-11.201-21.186-12.463-27.912l-0.672-3.5791 5.339-1.2522c26.834-6.294 71.366-25.88 98.747-43.431 3.912-2.5072 7.6-4.5586 8.197-4.5586 0.596 0 5.204 3.4225 10.24 7.6056 9.312 7.7359 14.761 15.134 16.129 21.894 0.393 1.9423-0.07 1.3476-1.313-1.6867-2.495-6.0912-6.053-11.813-7.346-11.813-0.562 0-3.252 2.0052-5.978 4.456-23.638 21.253-64.001 42.803-93.087 49.7-5.363 1.2715-9.75 2.8148-9.75 3.4295 0 0.6148 2.587 4.0266 5.75 7.582 17.871 20.092 41.229 33.741 70.75 41.344 9.604 2.4737 9.503 2.3641 7.96 8.6233-0.555 2.252-0.236 2.7858 2.195 3.6711 2.137 0.7784 2.347 1.048 0.845 1.0844-1.1 0.027-2.786-0.4092-3.747-0.9687z"/>
   <path d="m11101-3730.8c2.342-2.1349 3.185-3.964 3.769-8.1774l0.753-5.4274 6.997-1.7281c10.153-2.5079 19.17-6.1107 32.379-12.938 10.868-5.6178 30.251-18.978 34.466-23.758 2.202-2.4977 1.441-4.2215-1.864-4.2215-3.668 0-27.951-6.4566-37.289-9.9147-18.08-6.6956-33.753-15.099-46.758-25.07-10.657-8.1714-17.169-14.568-19.519-19.175-1.114-2.1837-2.564-3.8103-3.222-3.6145-0.658 0.1957-2.659 3.22-4.446 6.7206-1.788 3.5005-3.244 5.7323-3.236 4.9595 0.01-0.7729 1.765-4.6173 3.905-8.5432s4.899-9.9022 6.131-13.281 2.592-6.36 3.021-6.6255c0.43-0.2655 4.977 2.1559 10.105 5.3809 33.848 21.287 71.688 36.883 109.57 45.163 4.633 1.0123 8.629 2.047 8.882 2.2993 0.829 0.8292-7.11 18.078-11.058 24.025-6.363 9.5834-24.542 24.274-42.574 34.404-7.574 4.2547-22.698 10.592-36.736 15.394-6.47 2.2132-12.475 4.6663-13.343 5.4512-0.868 0.785-1.888 1.4272-2.266 1.4272s0.67-1.2375 2.329-2.75z"/>
   <path d="m11287-3701.2c-4.95-3.3678-11.7-8.1939-15-10.725-7.873-6.038-23.914-22.062-29.658-29.627-6.181-8.1406-14.153-22.557-16.979-30.707l-2.327-6.7069 1.834-4.7931c1.008-2.6361 3.088-8.3063 4.622-12.6 1.534-4.294 2.992-8.0106 3.241-8.2591 0.248-0.2485 6.041 0.202 12.871 1.001 34.562 4.0428 76.024 2.3134 107.74-4.4941 2.941-0.6311 5.699-0.7634 6.131-0.2939 0.431 0.4694 1.542 4.3365 2.469 8.5935 0.927 4.2569 2.816 10.521 4.197 13.921l2.512 6.1808-2.745 6.5792c-8.771 21.02-17.679 34.339-33.899 50.682-12.047 12.139-31.19 27.408-34.333 27.385-0.923-0.01-5.728-2.7679-10.678-6.1357z"/>
   <path d="m11740-3581.7c-31.751-3.9591-56.514-15.227-77.121-35.092-10.12-9.7559-21.253-23.089-16.094-19.275l2.978 2.2018 2.368-1.537c2.498-1.6206 19.259-7.971 36.869-13.969 22.982-7.8271 55.783-16.442 87.961-23.104 9.604-1.9879 17.907-4.0594 18.45-4.6032 0.652-0.6517-1.721-1.0303-6.961-1.1106l-7.95-0.1217 10.924-1.3247c9.442-1.1449 11.273-1.6742 13.5-3.9014 4.887-4.8879 2.77-14.314-4.162-18.529-4.628-2.8145-11.773-3.3318-28.381-2.0547-57.447 4.4171-135.9 19.49-195.02 37.468-31.815 9.6748-70.185 24.17-83.36 31.492-7.671 4.2632-8.412 4.1158-7.64-1.5193 1.613-11.768 10.944-34.159 20.372-48.888 5.465-8.5363 8.123-11.52 10.192-11.437 1 0.04 0.753 0.3942-0.676 0.9685-2.657 1.0678-11.288 14.03-17.189 25.817-6.363 12.706-14.026 37.151-11.647 37.151 0.367 0 2.337-0.8588 4.378-1.9084 4.207-2.1643 6.808-4.8254 13.775-14.092 23.134-30.772 62.469-54.506 106.82-64.453 21.644-4.8543 32.902-5.9195 62.617-5.9244 35.54-0.01 63.169 2.7759 107.5 10.823 26.241 4.7634 34.895 5.7739 50 5.838 16.188 0.069 25.372-1.0263 41-4.8887 14.916-3.6863 20.54-6.033 39.844-16.627 1.969-1.0802 3.998-3.5262 5.393-6.5 3.552-7.5696 2.681-4.0268-3.622 14.732-6.476 19.274-13.694 36.052-19.913 46.289-17.4 28.641-53.622 59.916-90.271 77.943-19.042 9.3665-21.071 9.8505-42.931 10.241-10.175 0.1817-20.075 0.134-22-0.106z"/>
   <path d="m10719-3583c-25.237-9.9407-42.608-19.692-63.786-35.806-13.193-10.038-36.997-33.832-47.561-47.54-4.557-5.9125-8.438-10.75-8.625-10.75-0.188 0-0.143 1.0125 0.1 2.25 0.458 2.3469-1.086-0.6219-8.255-15.866-6.507-13.837-9.923-22.935-14.869-39.591-2.912-9.8091-4.166-15.53-3.539-16.156 0.626-0.6264 2.401-0.3241 5.013 0.8535 2.224 1.0029 3.856 2.0111 3.626 2.2406-0.229 0.2295-1.787-0.2909-3.46-1.1565-4.36-2.2544-5.283-2.0154-4.544 1.1763 1.7 7.3454 4.669 11.187 12.943 16.749 13.7 9.2107 31.638 16.727 50.458 21.144 18.281 4.2903 54.504 4.2083 70.5-0.1595 2.75-0.751 8.6-1.7837 13-2.2951 4.4-0.5113 12.5-1.8622 18-3.0018 30.535-6.3272 58.42-8.613 96.336-7.8968 32.944 0.6222 46.263 2.229 71.34 8.6062 39.289 9.9912 69.127 26.259 93.181 50.804 8.272 8.441 18.62 21.62 18.664 23.773 0.02 1.0369 7.185 6.5275 8.517 6.5275 0.394 0 0.455-1.9125 0.134-4.25-0.396-2.8818-0.299-3.6061 0.302-2.25 2.189 4.9451 0.459 9.4591-2.524 6.5846-1.212-1.1679-27.876-12.241-45.45-18.875-90.472-34.15-148.27-47.354-248.34-56.732-18.394-1.7237-21.553-1.3555-25.634 2.9883-1.376 1.4643-2.459 4.1462-2.762 6.8404l-0.5 4.4317 3.681 4.0748c4.396 4.865 7.442 5.9777 22.55 8.2367l11.5 1.7196-23-0.753 4.5 1.508c2.475 0.8294 14.714 3.9654 27.197 6.969 45.183 10.871 69.727 18.327 97.444 29.603l12.37 5.0319 2.996-2.1338c1.648-1.1736 3.47-3.0169 4.047-4.0962 0.935-1.7466 0.468-2.2188-4.252-4.295-2.916-1.2829-6.349-2.6597-7.628-3.0594-1.278-0.3997-2.121-0.9307-1.872-1.18 0.726-0.7256 13.475 4.6624 14.794 6.2523 0.99 1.1918-1.584 4.2555-14.698 17.496-8.744 8.8283-19.451 18.743-23.793 22.032-9.292 7.0392-22.56 13.929-32.795 17.03l-7.31 2.2144-47.117 0.112-3.268 2.75c-1.798 1.5125-3.797 2.7099-4.442 2.661-0.645-0.049-6.573-2.2162-13.173-4.8159z"/>
   <path d="m11615-3526.7c-19.66-2.3716-41.153-7.4331-57.276-13.488-10.657-4.0024-29.465-13.062-36.615-17.637-2.26-1.4462-4.232-2.6963-4.383-2.778-3.098-1.6814 27.431-23.976 53.363-38.969 11.032-6.3789 44.701-23.465 46.238-23.465 0.542 0 2.673 2.3625 4.737 5.25 16.852 23.581 46.866 46.245 74.436 56.208 18.862 6.816 40.196 8.519 56.814 4.5352 4.572-1.0962 9.747-1.983 11.5-1.9708l3.186 0.022-2.459 1.8899c-3.363 2.5843-29.104 13.096-42.541 17.373-13.959 4.4426-39.037 10.25-52.558 12.172-9.523 1.3535-45.622 1.9232-54.442 0.8593z"/>
   <path d="m10849-3523.1c-32.264-2.4713-62.001-11.159-94.922-27.732-9.665-4.8654-11.459-6.8442-5.859-6.4643 18.526 1.2567 33.593 1.3893 40.858 0.3596 21.312-3.0204 37.413-9.434 54.827-21.839 10.97-7.8149 34.057-29.858 42.04-40.139 3.294-4.2423 6.245-7.0871 7.357-7.0918 2.229-0.01 41.704 26.204 60.643 40.269 17.675 13.127 29 22.578 29 24.201 0 1.936-20.551 14.981-32.281 20.491-20.36 9.5634-44.248 15.821-68.719 18-12.717 1.1328-17.56 1.1249-32.944-0.053z"/>
   <path d="m11137-3486.2c-13.627-11.352-48.036-37.777-58-44.542-2.475-1.6805-8.204-5.5871-12.732-8.6813-4.527-3.0942-8.869-5.381-9.649-5.0819-0.779 0.2991-1.761-0.013-2.182-0.6943-0.553-0.8945-0.234-1.0379 1.149-0.517 1.702 0.6415 1.672 0.4766-0.277-1.4928-1.205-1.2176-3.028-2.2756-4.053-2.3511-1.024-0.075-3.413-1.3451-5.309-2.8214-1.896-1.4764-7.947-6.2138-13.447-10.528-18.373-14.41-68.325-51.119-78.725-57.854-9.296-6.0197-15.936-10.907-9.775-7.1944 1.375 0.8285 8.8 5.3376 16.5 10.02 14.414 8.7655 22.44 13.211 67 37.109 33.535 17.986 57.504 31.73 75 43.007 19.673 12.68 52.668 34.67 54.712 36.464 2.078 1.8223 4.788 0.9918 4.788-1.4671 0-2.873-37.098-31.489-65.364-50.419-13.675-9.1587-19.835-13.622-15.636-11.329 9.693 5.2934 51.763 35.586 72.831 52.444 8.207 6.5665 9.267 7.7715 8.798 9.9984-1.137 5.4015-9.182 27.395-10.129 27.694-0.55 0.1734-7.525-5.1203-15.5-11.764z"/>
   <path d="m11416-3164.1c-23.487-1.8017-41.291-5.4986-64.931-13.483-23.577-7.9629-41.096-17.136-60.234-31.537-26.037-19.593-43.93-45.33-43.97-63.247-0.01-6.2902-2.381-10.171-7.804-12.796-5.744-2.7805-10.511-2.0216-14.905 2.3726-2.874 2.8742-3.414 4.2645-4.266 10.983-3.76 29.654-31.722 63.161-69.439 83.207-16.328 8.6784-37.149 16.212-55.38 20.037-26.15 5.4868-68.48 3.2807-96.217-5.0145-26.676-7.9777-43.214-15.107-46.127-19.885-2.64-4.3286-2.478-7.5632 0.377-7.5438 1.237 0.01 2.925 0.4578 3.75 0.9986 1.066 0.6992 0.561 0.8031-1.75 0.3597-2.843-0.5454-3.25-0.3573-3.25 1.5014 0 1.1688 0.955 3.0799 2.122 4.2471 3.187 3.1876 16.997 9.2733 29.378 12.947l11 3.2636 18.738 0.4273c61.156 1.3945 104.68-14.421 140.39-51.019 25.112-25.735 33.989-46.271 36.401-84.213 3.69-58.042 14.182-112.74 35.01-182.53 15.318-51.322 20.688-71.856 25.365-97 3.461-18.601 5.906-37.629 5.198-40.449-0.325-1.293-3.543-5.8251-7.151-10.071-3.609-4.2463-9.303-11.829-12.654-16.85s-6.275-9.3416-6.499-9.6006c-0.224-0.2591-0.826 0.1909-1.337 1-0.751 1.1865-0.934 1.0746-0.946-0.579-0.01-2.0605 1.695-4.45 3.185-4.45 0.44 0 0.8 0.5906 0.8 1.3125s2.742 5.3344 6.094 10.25c19.899 29.182 38.614 45.539 62.002 54.19l7.404 2.7389 28.5-0.206v5.107c0 9.285-8.123 65.661-10.678 74.107-0.333 1.1-3.954 5.4462-8.048 9.6583l-7.443 7.6582-2.792 13.842c-3.611 17.901-4.477 24.342-3.274 24.342 0.524 0 2.929-1.7199 5.344-3.8219s8.891-7.3708 14.391-11.708c5.5-4.3376 12.475-10.188 15.5-13 42.669-39.669 95.048-75.706 151.2-104.03 11.385-5.7427 21.06-10.429 21.5-10.415 0.439 0.015-10.001 5.555-23.201 12.312-34.63 17.726-65.545 36.731-96.5 59.321-23.247 16.965-51.948 42.048-49.253 43.045 0.686 0.2535 9.011-4.6679 18.5-10.936s18.676-12.268 20.416-13.332c24.213-14.813 53.724-32.349 69.733-41.437 22.859-12.977 48.854-28.139 59.078-34.458 5.985-3.6997 12.04-7.442 13.454-8.3163 6.898-4.2641-0.789 1.4136-10.928 8.0718-6.325 4.1533-18.684 13.259-27.464 20.234s-17.026 13.087-18.325 13.581c-3.329 1.2654-10.528 6.2663-18.711 12.997-3.85 3.1666-13.827 11.384-22.17 18.261-20.19 16.641-39.172 34.641-78.83 74.754-18.15 18.358-36.996 37.417-41.88 42.354l-8.881 8.9757-0.525 15.524c-0.573 16.96 1.297 66.707 2.892 76.906 0.549 3.5101 2.325 9.0098 3.946 12.221 3.637 7.2051 3.776 8.5797 0.359 3.5509-1.424-2.0955-2.796-3.6026-3.05-3.3492-0.972 0.9726 2.041 14.694 5.678 25.852 9.641 29.577 24.261 48.938 51.612 68.349 11.577 8.2159 21.882 13.814 34.212 18.586 23.593 9.1295 58.725 14.838 82.637 13.428 12.614-0.7441 39.353-4.7573 50.75-7.6171 9.087-2.2802 23.708-8.4112 25.5-10.693 0.687-0.8754 1.25-1.134 1.25-0.5747 0 1.9216-4.519 5.1455-15.024 10.718-22.506 11.939-50.909 18.572-88.476 20.663-9.35 0.5204-17.9 0.8907-19 0.8229-1.1-0.068-6.66-0.4807-12.354-0.9176z"/>
  </g>
  <path d="m120.88 125.27c-0.4307-0.29112-0.92549-0.7614-1.224-1.1634-0.21662-0.29169-0.4731-0.82968-0.4731-0.99236 0-0.0703-0.0285-0.0761 0.42875 0.0886 0.8369 0.30154 1.8636 0.36175 2.7978 0.16404 0.18385-0.0389 0.36518-0.08 0.40299-0.0913 0.0616-0.0184 0.0667-0.0134 0.0497 0.0492-0.0416 0.15259-0.34495 0.7209-0.48712 0.91263-0.083 0.11191-0.26941 0.32151-0.41431 0.46578-0.27524 0.27403-0.79422 0.6824-0.86724 0.6824-0.0233 0-0.11938-0.052-0.21345-0.11563zm6.023-0.71281c0.0347-0.2008 0.0453-0.189-0.23518-0.26126-0.85813-0.22101-1.5371-0.61778-2.0566-1.2018-0.0919-0.10335-0.16713-0.20252-0.16713-0.2204 0-0.0179 0.12752-0.0627 0.28341-0.0997 0.84736-0.20093 2.0186-0.82679 2.7092-1.4477 0.0935-0.0841 0.16388-0.12618 0.19248-0.1152 0.0249 0.01 0.0362 0.0318 0.0251 0.0496-0.011 0.0177-0.0179 0.165-0.0155 0.32721 0.0141 0.92832-0.15438 1.719-0.54811 2.5722-0.0934 0.20235-0.1772 0.39406-0.18632 0.42604-9e-3 0.032-0.01 0.0189-1e-3 -0.0291zm-11.439-2e-3c1e-3 -0.0339 8e-3 -0.0408 0.0176-0.0176 8e-3 0.021 7e-3 0.0461-2e-3 0.0557-0.01 0.01-0.0166-8e-3 -0.0153-0.0381zm0.0309-0.17018c-3e-3 -0.0877-0.0341-0.15271-0.13287-0.27831-0.43427-0.55278-0.65733-1.2142-0.71553-2.1216-0.0256-0.39981-0.0403-0.49292-0.0883-0.55955-0.0316-0.044-0.0443-0.0799-0.0282-0.0799s0.0554 0.0511 0.0873 0.1135c0.0674 0.13215 0.25786 0.3189 0.56641 0.5555 0.37803 0.28984 0.83361 0.53411 1.3592 0.72873 0.27141 0.10053 0.97731 0.28821 1.0839 0.28821 0.0961 0 0.1182 0.0501 0.0542 0.12271-0.12253 0.13892-0.68594 0.52728-1.0018 0.69058-0.38434 0.19865-0.64648 0.30334-0.94128 0.37597l-0.20349 0.0501-0.0354 0.22856zm-4.9602-2.7778c0.01-0.016 0.0245-0.0291 0.0325-0.0291s7e-3 0.0131-4e-3 0.0291c-0.01 0.016-0.0245 0.0291-0.0325 0.0291s-7e-3 -0.0131 4e-3 -0.0291zm20.958-0.0609 0.0195-0.10445-0.3439-0.0177c-0.89213-0.0457-1.8154-0.33735-2.4732-0.78122-0.11592-0.0782-0.21075-0.1531-0.21075-0.1664s0.14061-0.12683 0.31248-0.25227c0.55587-0.40574 1.2891-1.2026 1.5833-1.7207 0.10164-0.17904 0.17658-0.23925 0.29803-0.23951 0.0484 0 0.12727-0.0262 0.17522-0.058 0.109-0.0722 0.15947-0.0761 0.0724-6e-3l-0.0648 0.0525 0.14505 0.21642c0.41591 0.62054 0.58842 1.2313 0.58668 2.0768-7.3e-4 0.37097-0.062 1.0474-0.098 1.0832-0.0119 0.0118-0.0128-0.0256-2e-3 -0.083zm-20.97-0.0433c1e-3 -0.0339 8e-3 -0.0408 0.0176-0.0176 8e-3 0.021 7e-3 0.0461-2e-3 0.0557-0.01 0.01-0.0166-7e-3 -0.0153-0.0382zm-0.0617-0.33186c-0.0273-0.17813-0.0416-0.48249-0.0401-0.85751l2e-3 -0.58135 0.0747-0.27829c0.0906-0.33738 0.22185-0.65936 0.36222-0.88829 0.0575-0.0938 0.1233-0.20652 0.14618-0.25049 0.0505-0.097 0.062-0.10066 0.0466-0.0145-0.0259 0.14323 0.45959 0.82179 0.92474 1.2926 0.41227 0.41732 0.83218 0.73725 1.3026 0.99243 0.0846 0.0459 0.0559 0.0825-0.1704 0.21712-0.62903 0.37418-1.3143 0.55162-2.1302 0.55162-0.3946-1e-5 -0.45788 7e-3 -0.46631 0.0464-5e-3 0.0255-0.0288-0.0779-0.0521-0.22975zm-1.6178-3.9248c-0.25694-0.035-0.70011-0.15742-0.9462-0.26138-0.17447-0.0737-0.55848-0.29086-0.78573-0.44428-0.0415-0.0281-0.0572-0.0263-0.0795 9e-3 -0.0459 0.0721-0.033 0.0244 0.0567-0.20847 0.41925-1.0888 1.2346-2.0366 2.211-2.5701 0.0559-0.0306 0.10891-0.0652 0.1177-0.0769 9e-3 -0.0117 0.0311 0.0668 0.0495 0.17441 0.0185 0.10766 0.0891 0.38541 0.15684 0.61723 0.10849 0.37091 0.12392 0.45985 0.12857 0.74123 8e-3 0.50532 0.11671 0.97407 0.35132 1.5203l0.10609 0.24705-0.0546 0.04c-0.0301 0.022-0.1727 0.0774-0.31696 0.12318-0.2951 0.0936-0.69699 0.12958-0.99473 0.089zm23.086-0.0677c-0.34044-0.0781-0.6519-0.17853-0.72957-0.23533l-0.055-0.0402 0.0663-0.11145c0.10729-0.18055 0.34013-0.65096 0.40765-0.82363 0.17269-0.44158 0.28861-1.1466 0.2592-1.5767-8e-3 -0.11602-3.3e-4 -0.3231 0.017-0.46017l0.0314-0.24923 0.19882 0.0968c0.89274 0.43448 1.8835 1.3729 2.342 2.2184 0.14464 0.26673 0.31893 0.74289 0.28449 0.77731-9e-3 9e-3 -0.0171-6e-3 -0.0171-0.0347 0-0.0637 3e-3 -0.0646-0.47974 0.14048-0.20788 0.0883-0.5349 0.20231-0.72669 0.25328-0.31205 0.0829-0.39916 0.0937-0.82832 0.1022-0.41817 8e-3 -0.51689 7.3e-4 -0.7703-0.0571zm-25.026-0.34708c0.0109-0.0287 0.0272-0.0448 0.0361-0.0358 9e-3 9e-3 0 0.0324-0.0198 0.0521-0.0287 0.0285-0.032 0.0251-0.0163-0.0163zm0.0418-0.10776c0-0.0213 9e-3 -0.03 0.0193-0.0194 0.0107 0.0107 0.0107 0.0281 0 0.0387-0.0106 0.0107-0.0193 2e-3 -0.0193-0.0194zm0.0291-0.0872c0-0.0213 9e-3 -0.03 0.0193-0.0194 0.0107 0.0107 0.0107 0.0281 0 0.0387-0.0106 0.0107-0.0193 2e-3 -0.0193-0.0194zm0.84971-4.0836c-0.65973-0.20033-1.4115-0.73483-1.7587-1.2504-0.0646-0.0959-0.1204-0.1783-0.12401-0.18306-4e-3 -5e-3 -0.0965-0.0225-0.20626-0.0394-0.10979-0.0169-0.21926-0.0422-0.24324-0.0562-0.0265-0.0155-4e-3 -0.0172 0.0581-4e-3 0.0559 0.0117 0.1728 0.0213 0.25971 0.0213h0.158l0.21115-0.26161c0.37009-0.45853 0.75484-0.77605 1.2328-1.0174 0.49535-0.2501 1.1683-0.40251 1.7174-0.389l0.27989 7e-3 -0.0249 0.0868c-0.0503 0.17559-0.14124 0.86046-0.17417 1.3127-0.0191 0.26263-0.0272 0.72086-0.0186 1.0526 0.011 0.42347 6e-3 0.59511-0.0181 0.61465-0.0963 0.0783-0.45585 0.15593-0.77457 0.16732-0.29473 0.0105-0.36276 4e-3 -0.57463-0.061zm24.971 0.0387c-0.1483-0.0333-0.24301-0.13726-0.32533-0.35724-0.10202-0.27276-0.25885-1.1815-0.29282-1.697-0.0357-0.54148-0.1105-1.1588-0.14924-1.2313-0.0313-0.0586-0.028-0.0587 0.42448-0.0196 0.93186 0.0805 1.8977 0.48896 2.6526 1.1217 0.25737 0.21571 0.95174 0.88006 0.91985 0.88006-0.0126 0-0.0597-0.0352-0.10455-0.0781l-0.0815-0.0781-0.20833 0.22609c-0.55496 0.60228-1.4064 1.1021-2.088 1.2257-0.24774 0.0449-0.56705 0.0483-0.74713 8e-3zm-0.66993-4.5076c-0.0163-0.0202-0.0391-0.0826-0.0507-0.13852-0.14219-0.68631-0.60943-1.5454-1.175-2.1605l-0.26263-0.28564 0.18098-0.15803c0.21051-0.18386 0.56564-0.36831 0.83501-0.43373 0.2692-0.0654 0.8375-0.0873 1.1807-0.0455 0.33449 0.0407 0.85373 0.16916 1.1361 0.28106 0.31832 0.12617 0.70734 0.32964 0.72672 0.38013 0.0267 0.0697-0.0947 0.45674-0.22905 0.73023-0.0652 0.13256-0.10999 0.24946-0.0996 0.2598 0.0103 0.0103 0.0746-0.0327 0.14283-0.0957 0.0682-0.0629 0.0443-0.036-0.0533 0.0599s-0.23542 0.2264-0.30634 0.28994c-0.0709 0.0635-0.22702 0.20628-0.34693 0.31721-0.27243 0.25205-0.73905 0.56084-1.2533 0.8294-0.30696 0.16031-0.40242 0.19844-0.42542 0.16991zm-23.189-0.31275c-0.41542-0.0584-0.72929-0.22168-1.0622-0.55247-0.13679-0.13588-0.31248-0.34845-0.39041-0.47235-0.078-0.1239-0.15377-0.22527-0.16851-0.22527-0.0147 0-0.068 0.028-0.11845 0.0624l-0.0917 0.0624 0.0972-0.0923c0.0535-0.0508 0.0907-0.1083 0.0826-0.1278-8e-3 -0.0195-0.0665-0.1597-0.12985-0.31159-0.16609-0.3981-0.24533-0.63473-0.22405-0.66915 0.0575-0.0932 0.7628-0.38155 1.2008-0.49105 0.8663-0.21661 2.0037-0.12014 2.7488 0.23315 0.0621 0.0294 0.12752 0.0453 0.14534 0.0352 0.0178-0.01-3e-3 0.0197-0.0451 0.0661-0.28522 0.31067-0.83198 1.4195-1.0966 2.2238l-0.0631 0.19178-0.15171 0.0325c-0.22361 0.0478-0.53493 0.0626-0.73306 0.0347zm25.725-1.5408c0.01-0.016 0.0245-0.0291 0.0325-0.0291s7e-3 0.0131-4e-3 0.0291c-0.01 0.016-0.0245 0.0291-0.0325 0.0291s-7e-3 -0.0131 4e-3 -0.0291zm-23.48-2.449c-0.13493-0.1608-0.25571-0.3306-0.38488-0.54109-0.0428-0.0697-0.0888-0.11557-0.10218-0.10174-0.0134 0.0138-0.044 0.1212-0.0681 0.2386s-0.0523 0.22201-0.0628 0.23248c-0.02 0.02-0.0174 4e-3 0.0615-0.34858l0.0497-0.22237-0.0911-0.27469c-0.14133-0.42621-0.18784-0.77516-0.17147-1.2862 8e-3 -0.26061 0.0302-0.48281 0.0543-0.5523l0.0404-0.11627 0.29002 7e-3c1.1416 0.0248 2.2954 0.42157 3.1296 1.076l0.16532 0.12971-0.20892 0.14047c-0.11491 0.0773-0.29123 0.20718-0.39186 0.28871-0.13305 0.10783-0.24847 0.17027-0.42335 0.22904-0.47308 0.15898-0.90596 0.45636-1.3787 0.94712-0.16284 0.16909-0.31489 0.30744-0.33786 0.30744-0.023 0-0.0994-0.0687-0.16978-0.15262zm19.018-0.14083c-0.81006-0.63054-2.0026-1.3114-2.2232-1.2692l-0.0596 0.0114 0.0696-0.14728c0.1129-0.23889 0.31387-0.49998 0.50215-0.65231 0.37-0.29939 0.98273-0.56104 1.6064-0.68596 0.40416-0.081 1.0768-0.14067 1.2765-0.1133l0.13613 0.0187 0.0312 0.11592c0.0902 0.33497 0.12203 0.58851 0.12528 0.99811 3e-3 0.31417 0.0143 0.45183 0.0415 0.4846 0.0326 0.0392 0.0301 0.0437-0.017 0.0314-0.046-0.012-0.0657 0.0181-0.12 0.18352-0.0776 0.23622-0.2038 0.44987-0.4207 0.71195-0.17385 0.21006-0.54927 0.54781-0.60888 0.54781-0.0204 0-0.17304-0.10587-0.33929-0.23528zm1.5814-1.0774c-0.0129-0.0208-8e-3 -0.0256 0.0128-0.0128 0.0185 0.0114 0.0336 0.0265 0.0336 0.0336 0 0.0243-0.0257 0.0128-0.0464-0.0207zm-0.0408-0.0682c0-8e-3 7e-3 -0.0145 0.0145-0.0145 8e-3 0 0.0145 7e-3 0.0145 0.0145 0 8e-3 -7e-3 0.0145-0.0145 0.0145-8e-3 0-0.0145-7e-3 -0.0145-0.0145zm-17.056-1.2719c-0.0403-0.0501-0.0607-0.65094-0.0325-0.95721 0.0521-0.56667 0.30219-1.2823 0.65423-1.8723 0.0883-0.14796 0.1801-0.27652 0.20397-0.28568 0.0596-0.0229 0.80629 0.27539 1.1439 0.45687 0.47614 0.25596 0.84395 0.52101 1.1071 0.79777 0.23141 0.2434 0.57886 0.71651 0.57886 0.78824 0 0.0182 0.0152 0.0331 0.0339 0.0331s0.0241 0.01 0.0121 0.0218c-0.0307 0.0307-0.5168 0.0909-0.74996 0.0928-0.39964 4e-3 -1.0562 0.12019-1.5634 0.27834-0.3108 0.0969-0.88573 0.37307-1.1421 0.54858-0.10758 0.0737-0.20042 0.13393-0.20632 0.13393-6e-3 0-0.0238-0.0163-0.0398-0.0363zm12.071-0.15948c-0.57944-0.32766-1.2753-0.59045-1.8714-0.70676-0.3805-0.0742-0.91605-0.10867-0.94564-0.0608-0.0113 0.0182-0.0322 0.0332-0.0465 0.0332-0.0356 0 0.26908-0.53317 0.40702-0.71216 0.36368-0.47205 0.80281-0.8086 1.4544-1.1147 0.37082-0.17419 1.0206-0.38869 1.1408-0.3766l0.0879 9e-3 0.13976 0.27578c0.2418 0.47723 0.42974 1.1942 0.43204 1.6483 5.5e-4 0.0992 0.0153 0.18889 0.0331 0.19985 0.0233 0.0144 0.0231 0.0255-7.3e-4 0.0404-0.0182 0.0113-0.0591 0.12912-0.0908 0.2619s-0.0789 0.28627-0.10498 0.34111c-0.0521 0.10972-0.28182 0.30121-0.35556 0.29632-0.0256-1e-3 -0.15132-0.0623-0.27923-0.13459zm1.0707-0.69561c0.0107-0.0107 0.0281-0.0107 0.0387 0 0.0107 0.0107 2e-3 0.0194-0.0194 0.0194s-0.0301-9e-3 -0.0194-0.0194zm-0.0872-0.0291c0.0107-0.0107 0.0281-0.0107 0.0387 0 0.0107 0.0107 2e-3 0.0194-0.0194 0.0194s-0.0301-9e-3 -0.0194-0.0194zm-0.0872-0.0291c0.0107-0.0107 0.0281-0.0107 0.0387 0 0.0107 0.0107 2e-3 0.0194-0.0194 0.0194s-0.0301-9e-3 -0.0194-0.0194zm-4.7768-0.22242c0-0.0389-0.0164-0.0838-0.0363-0.0997-0.0347-0.0275-0.43593-0.10753-0.93745-0.18686-0.55172-0.0873-1.745-0.0261-2.3591 0.12099-0.1254 0.03-0.23608 0.0457-0.246 0.0348-0.0301-0.0331-0.0525-0.23575-0.0278-0.25104 0.0127-8e-3 0.059-0.11532 0.10281-0.23881 0.19165-0.53985 0.51053-1.07 0.94103-1.5645 0.21873-0.25124 0.72937-0.71242 0.78884-0.71242 0.0478 0 0.47581 0.35909 0.71653 0.60116 0.62731 0.63089 1.0032 1.229 1.1129 1.7708 0.0273 0.135 0.0575 0.23764 0.0671 0.22809 0.01-0.01-5.4e-4 0.0327-0.0223 0.0938-0.0218 0.0612-0.0402 0.13983-0.0409 0.17485-1e-3 0.0886-0.0594 0.11658-0.0594 0.0288z" fill="#addb28" stroke-width=".029068"/>
  <path d="m118.21 143.19c-2.5952-0.0806-4.4434-0.24729-6.6275-0.59767-1.6637-0.26688-3.301-0.72954-3.9572-1.1182-0.55278-0.32739-0.67286-0.79605-0.29195-1.1395 0.45326-0.40867 2.3036-0.92079 4.2346-1.172 0.31975-0.0416 0.59926-0.0814 0.62115-0.0884 0.0258-8e-3 -0.0378-0.094-0.18091-0.24381-0.53994-0.56515-0.83838-1.1608-0.91791-1.832-0.0328-0.27627-0.0125-0.51117 0.0549-0.63714 0.0639-0.11929 0.20494-0.20583 0.33554-0.20583 0.1542 0 0.24685 0.0707 0.43105 0.32884 0.3775 0.529 0.96944 0.90907 1.6027 1.029 0.30937 0.0586 0.86773 0.0362 1.2073-0.0485 0.2842-0.0709 0.8121-0.31551 1.114-0.51623 0.31123-0.20689 0.3103-0.20549 0.31042-0.46607 3.2e-4 -0.33672 0.0953-1.3191 0.17242-1.7804 0.0324-0.1938 0.0373-0.1832-0.45945-0.99833-0.42456-0.69675-0.67821-1.0492-1.1128-1.5464-0.43386-0.4963-1.1554-1.2342-1.2069-1.2342-0.0224 0-0.20048 0.1653-0.39573 0.36735-0.58328 0.60355-1.0419 0.94189-1.7494 1.2905-1.5037 0.74093-3.3199 0.8573-4.9804 0.31909-2.0694-0.67077-3.9898-2.1443-5.3219-4.0837-1.0556-1.5368-1.7839-3.298-1.9982-4.8322-0.0567-0.40568-0.0363-0.53943 0.10319-0.67896 0.15737-0.15735 0.41541-0.15778 0.72269-1e-3 0.18246 0.093 0.63626 0.2605 0.94668 0.34944 0.71123 0.20379 1.3254 0.29337 2.0114 0.29337 0.63787 0 1.0235-0.0607 2.1933-0.34551 1.421-0.3459 2.3443-0.45368 3.2816-0.38307 1.0248 0.0772 1.87 0.29631 2.6919 0.69784 1.458 0.71228 2.4698 1.8051 2.8878 3.119 0.10476 0.32931 0.14519 0.5222 0.17246 0.82269l0.0209 0.2308 0.47963 0.29196c0.56136 0.34171 0.95886 0.60638 1.5406 1.0258 0.42352 0.30533 1.0875 0.82621 1.1198 0.87842 0.0324 0.0525 0.10247 0.0281 0.1304-0.0453 0.0153-0.0403 0.11262-0.45564 0.21621-0.92291 0.28966-1.3068 0.43799-2.2368 0.55272-3.4657 0.0608-0.65094 0.10302-1.621 0.072-1.654-0.0142-0.0151-0.10825 0.0419-0.22214 0.13465-0.61939 0.5043-1.4196 0.88345-2.3839 1.1294-0.7224 0.18431-0.87189 0.15971-1.1993-0.19734-0.66655-0.72699-1.0517-1.7072-1.097-2.7919-0.01-0.2373-0.0294-0.41422-0.0456-0.41422-0.0156 0-0.145 0.0467-0.28765 0.10377-0.65543 0.26224-1.2293 0.34421-2.2622 0.32314-1.2844-0.0262-1.3585-0.0695-1.508-0.88097-0.11505-0.62445-0.13174-0.78866-0.13098-1.29 7.2e-4 -0.56629 0.0508-0.96706 0.18826-1.5115 0.0464-0.18385 0.0844-0.33577 0.0845-0.3376 0-2e-3 -0.19283-0.0108-0.42867-0.0198-0.69728-0.0268-1.3793-0.20849-2.0856-0.5556-0.43439-0.21345-1.0363-0.60469-1.187-0.77152-0.21295-0.23572-0.20847-0.41569 0.0283-1.1377 0.25075-0.76478 0.6813-1.5025 1.1775-2.0177 0.15755-0.16358 0.28647-0.31041 0.28647-0.32628 0-0.0158-0.10136-0.0713-0.22528-0.12308-0.85765-0.35869-1.8031-1.1958-2.3295-2.0625-0.14418-0.23736-0.20647-0.39177-0.20624-0.51109 3.3e-4 -0.14752 0.34885-0.72344 0.704-1.1633 0.46994-0.58204 1.279-1.1774 1.8245-1.3426 0.0879-0.0266 0.17138-0.0581 0.18548-0.07s-0.0723-0.13699-0.19193-0.27799c-0.26653-0.31407-0.49091-0.63627-0.68825-0.98819-0.39239-0.6998-0.72962-1.7212-0.72962-2.2098v-0.19087l0.12352-0.12188c0.0679-0.0671 0.27016-0.20969 0.44935-0.31704 0.93121-0.55783 2.0137-0.8577 2.988-0.82772l0.31975 0.01-5e-3 -0.0581c-3e-3 -0.032-0.0375-0.16278-0.0767-0.29068-0.11896-0.38809-0.1698-0.75049-0.18554-1.3226-0.0157-0.56867 0.0209-0.96226 0.13772-1.4825 0.14789-0.65872 0.2136-0.78051 0.45381-0.84099 0.20908-0.0527 1.0856-0.0722 1.5219-0.0339 0.64441 0.0565 1.5098 0.26163 1.8664 0.44237 0.18765 0.0951 0.21611 0.08 0.23902-0.12703 0.0489-0.44162 0.23575-1.0989 0.45254-1.5915 0.22803-0.51821 0.70914-1.2972 0.91011-1.4737 0.15197-0.13341 0.2312-0.13961 0.66664-0.0522 0.71406 0.14343 1.514 0.46261 2.0858 0.83232 0.24182 0.15634 0.70079 0.52533 0.84076 0.6759 0.0388 0.0417 0.0849 0.0758 0.10255 0.0758 0.0177 0 0.069-0.0847 0.11412-0.18834 0.25079-0.57573 0.77661-1.2325 1.4134-1.7654 0.47531-0.39777 0.8691-0.63333 1.0588-0.63333 0.28624 0 1.139 0.59742 1.7484 1.2249 0.37253 0.38359 0.61196 0.70699 0.79689 1.0764 0.0806 0.16089 0.15391 0.3046 0.16301 0.31934 9e-3 0.0147 0.13851-0.0897 0.28752-0.2322 0.7114-0.68011 1.7048-1.1407 3.0221-1.4013 0.38838-0.0768 0.51238-0.0652 0.64199 0.0605 0.12447 0.12063 0.61681 1.1048 0.75559 1.5104 0.19226 0.56191 0.33129 1.233 0.33275 1.606 5.4e-4 0.16969 0.0203 0.17248 0.28466 0.0404 0.5556-0.27758 1.1907-0.40795 1.9832-0.4071 0.84332 7.2e-4 1.3772 0.10691 1.5173 0.30129 0.07 0.097 0.18449 0.55896 0.24315 0.98051 0.0361 0.25942 0.0444 0.48255 0.0341 0.92343-0.0148 0.64048-0.0708 1.0033-0.22664 1.4684-0.047 0.14033-0.0855 0.26759-0.0855 0.2828 0 0.0152 0.12755 0.0355 0.28342 0.0452 0.98247 0.0608 2.1564 0.51241 2.9822 1.1473 0.30443 0.23405 0.32873 0.33063 0.20586 0.81793-0.21775 0.86345-0.70037 1.8118-1.3059 2.5662-0.14389 0.17925-0.26574 0.33565-0.27077 0.34757-5e-3 0.0119 0.12854 0.0866 0.29686 0.16603 0.90574 0.42723 1.7478 1.2244 2.3493 2.2241 0.17898 0.29747 0.19354 0.37902 0.10288 0.57609-0.15868 0.34488-0.81301 1.0882-1.2968 1.473-0.43442 0.34566-1.0559 0.71255-1.4246 0.8411-0.0501 0.0174-0.0911 0.0458-0.0911 0.0631 0 0.0172 0.12116 0.15199 0.26923 0.29946 0.56714 0.56483 0.94233 1.2083 1.2071 2.0703 0.21597 0.7033 0.23269 0.89313 0.0952 1.0829-0.1588 0.21921-0.84241 0.66045-1.4379 0.92809-0.62464 0.28073-1.1308 0.41092-1.696 0.43625-0.31341 0.014-0.38515 0.0253-0.38515 0.0604 0 0.0238 0.0451 0.15594 0.10026 0.29382 0.12212 0.30537 0.23405 0.74271 0.27998 1.0936 0.0707 0.54067 0 1.5642-0.14511 2.0988-0.0628 0.23127-0.2512 0.3753-0.6106 0.4667-0.26754 0.068-1.4477 0.0824-1.8773 0.0229-0.39832-0.0552-0.81224-0.15402-1.1019-0.26302-0.10952-0.0413-0.21144-0.0709-0.22644-0.0659s-0.0315 0.18537-0.0366 0.40084c-0.01 0.41341-0.0674 0.81277-0.16473 1.143-0.0323 0.10944-0.052 0.20563-0.0439 0.21375 8e-3 8e-3 0.17583-0.065 0.37268-0.1624 1.2077-0.59781 2.4858-0.69589 4.5437-0.34871 0.52003 0.0877 0.67063 0.11822 1.7005 0.34422 0.73475 0.16125 1.0523 0.20432 1.5078 0.20452 0.67405 3.4e-4 1.2317-0.11083 1.9682-0.39223 0.71059-0.2715 0.75853-0.28484 1.0346-0.2879 0.28076-3e-3 0.35637 0.0306 0.4818 0.21492 0.0832 0.12232 0.0845 0.27435 6e-3 0.73428-0.24751 1.4506-0.98895 3.2273-1.9197 4.6-1.5172 2.2377-3.5234 3.7366-5.6804 4.2438-0.54918 0.12914-0.92218 0.1707-1.5261 0.17004-0.6138-6.6e-4 -1.0623-0.0553-1.6191-0.1971-1.4072-0.35844-2.636-1.1169-3.2941-2.0332-0.053-0.0738-0.11932-0.13418-0.14737-0.13418-0.0614 0-0.81521 0.78361-1.2024 1.2499-0.6502 0.78309-1.1604 1.5598-1.7404 2.6495-0.17039 0.32014-0.18699 0.39457-0.13194 0.59158 0.0179 0.0639 0.0341 0.24776 0.0362 0.40849l4e-3 0.29222 0.11308 0.231c0.16377 0.33462 0.56706 0.73177 0.93535 0.92117 0.41912 0.21552 0.64515 0.26803 1.1462 0.26624 0.34015-1e-3 0.46608-0.0137 0.65246-0.065 0.50637-0.13921 1.0188-0.46877 1.2684-0.81578 0.0707-0.0982 0.16862-0.23388 0.21772-0.3015l0.0893-0.12293 0.1444 7.2e-4c0.1836 1e-3 0.30228 0.0819 0.39399 0.26818 0.0561 0.11387 0.0696 0.19386 0.0776 0.45949 0.0196 0.6552-0.20017 1.2105-0.74475 1.8816-0.0927 0.11424-0.14926 0.20802-0.13409 0.22231 0.0144 0.0136 0.22242 0.0465 0.46223 0.0732 2.0196 0.22452 4.0379 0.79615 4.54 1.2859 0.4323 0.42161 0.17244 0.91439-0.703 1.3331-1.5303 0.732-4.5578 1.2503-8.4878 1.453-1.0286 0.0531-3.6014 0.0763-4.6945 0.0423zm7.1943-2.0344c1.092-0.0607 1.9176-0.25359 2.5719-0.60064 0.34896-0.18512 0.43667-0.25487 0.43667-0.34717 0-0.0911-0.0456-0.0978-0.25707-0.0377-0.58586 0.16643-1.3398 0.26501-2.0393 0.26665-0.76844 1e-3 -1.3373-0.0835-1.9279-0.28907-0.95506-0.33244-1.8082-1.0049-2.4095-1.8993-0.28222-0.41976-0.67906-1.2416-0.71717-1.4852-0.0464-0.29694-0.10089-1.7426-0.0842-2.2362l0.0153-0.45127 0.25811-0.2609c0.14197-0.1435 0.68979-0.69751 1.2174-1.2311 1.1528-1.166 1.7045-1.6892 2.2914-2.1729 0.24253-0.19991 0.53252-0.43877 0.64443-0.53081 0.23786-0.19566 0.44714-0.34102 0.54389-0.3778 0.0378-0.0144 0.27749-0.19201 0.5327-0.39477 0.71499-0.56806 1.6152-1.1427 2.5525-1.6294 0.26594-0.13808 0.49022-0.26189 0.49839-0.27513 0.0429-0.0693-1.0475 0.34501-1.8798 0.71433-2.0886 0.92676-3.9281 2.117-5.4306 3.5139-0.0879 0.0817-0.29069 0.25179-0.45056 0.37788-0.15988 0.12609-0.34811 0.27924-0.41831 0.34034s-0.14008 0.11109-0.15531 0.11109c-0.035 0-0.01-0.1872 0.0952-0.70756l0.0812-0.40235 0.21634-0.22261c0.11898-0.12244 0.22426-0.24877 0.23395-0.28074 0.0742-0.24553 0.31035-1.8842 0.31035-2.1541v-0.14845l-0.82843 6e-3 -0.21522-0.0796c-0.67984-0.25148-1.2238-0.72695-1.8023-1.5752-0.0974-0.14288-0.17714-0.27696-0.17714-0.29794 0-0.0482-0.0419-0.0492-0.081-1e-3 -0.0165 0.02-0.0644 0.2914-0.10643 0.60315-0.0837 0.62062-0.24713 1.4843-0.42639 2.2528-0.12235 0.52439-0.14842 0.62396-0.53287 2.0348-0.62217 2.2831-0.8287 3.3828-0.95808 5.1014-0.0646 0.8583-0.0701 1.2063-0.0192 1.2063 0.0229 0 0.17072-0.18967 0.3285-0.42148 0.251-0.3688 0.34204-0.4821 0.34204-0.42558 0 8e-3 -0.0458 0.15521-0.10185 0.32622-0.19031 0.58098-0.60476 1.2853-1.0847 1.8434-0.76815 0.89324-1.6424 1.3505-2.8309 1.4806-0.70897 0.0776-1.7137-0.0264-2.364-0.24468-0.26913-0.0903-0.30415-0.0912-0.30401-8e-3 3.3e-4 0.19879 0.23341 0.34796 0.88645 0.56734 0.74919 0.25167 1.183 0.34331 1.8286 0.38628 0.92058 0.0612 1.6624-0.0549 2.5238-0.39546 1.3771-0.54434 2.452-1.6608 2.5813-2.6812 0.0248-0.19529 0.0405-0.23571 0.12401-0.31926 0.12775-0.12773 0.26632-0.14979 0.43329-0.0689 0.15761 0.0763 0.22641 0.18911 0.22681 0.37195 1e-3 0.52079 0.52128 1.2689 1.2781 1.8384 0.5563 0.41862 1.0656 0.68525 1.7509 0.91672 0.7764 0.26222 1.3038 0.3605 2.2465 0.41859 0.032 2e-3 0.2805-9e-3 0.55228-0.0239zm-10.67-2.4573c0.37472-0.0976 1.0871-0.48694 1.2273-0.67077 0.0693-0.0909 0.12748-0.30238 0.0832-0.30238-0.0121 0-0.1152 0.0514-0.22909 0.11424-0.26633 0.14693-0.60749 0.27905-0.91921 0.35595-0.35016 0.0864-1.0633 0.10709-1.3988 0.0406-0.48497-0.096-0.8961-0.2693-1.2392-0.52218-0.19763-0.1457-0.21073-0.15179-0.21044-0.0977 3.2e-4 0.0684 0.56286 0.85912 0.61412 0.86328 0.0192 1e-3 0.0628-0.11329 0.0574-0.15111-4e-3 -0.0311-0.0172-0.0357 0.3471 0.12491 0.482 0.21246 0.78355 0.28623 1.177 0.28792 0.19789 7.3e-4 0.38598-0.0155 0.49069-0.0429zm10.838-0.11347c0.32577-0.096 0.61182-0.23905 0.91454-0.45751 0.13191-0.0952 0.25172-0.16569 0.26628-0.15669 0.0146 9e-3 0.08-0.0444 0.14535-0.11865 0.15873-0.18032 0.16196-0.24002 7e-3 -0.13033-0.27446 0.19437-0.91457 0.45857-1.2835 0.52976-0.32226 0.0622-0.90312 0.0484-1.2005-0.0286-0.5056-0.13078-0.94159-0.35387-1.3417-0.6865-0.13589-0.11297-0.23999-0.18-0.25548-0.1645-0.0487 0.0488 0.0357 0.26021 0.1697 0.42466 0.32652 0.40084 1.032 0.77156 1.6542 0.86928 0.21295 0.0334 0.67222-7e-3 0.92401-0.081zm-2.4792-0.32193c0-8e-3 -7e-3 -0.0145-0.0145-0.0145-8e-3 0-0.0145 7e-3 -0.0145 0.0145 0 8e-3 7e-3 0.0145 0.0145 0.0145 8e-3 0 0.0145-7e-3 0.0145-0.0145zm-0.0882-0.28668c-0.0337-0.0901-0.0685-0.16387-0.0774-0.16387-0.0246 0 0.0125 0.15817 0.0661 0.28187 0.0722 0.16676 0.0816 0.0697 0.0113-0.118zm3.728 0.0856 0.0323-0.0605-0.05 0.0412c-0.0275 0.0227-0.0644 0.0684-0.0822 0.10174l-0.0323 0.0605 0.0499-0.0412c0.0275-0.0227 0.0645-0.0685 0.0822-0.10175zm-4.5119-0.55467c0-8e-3 -7e-3 -0.0145-0.0145-0.0145-8e-3 0-0.0145 7e-3 -0.0145 0.0145 0 8e-3 7e-3 0.0145 0.0145 0.0145 8e-3 0 0.0145-7e-3 0.0145-0.0145zm-5.2381-5.7432c0.18775-0.54267 0.19865-0.47416-0.11529-0.72535-1.7659-1.4129-3.4479-2.4108-5.8523-3.4718-0.35172-0.15521-0.82814-0.3666-1.0587-0.46973-0.23057-0.10315-0.43858-0.18375-0.46221-0.1791-0.0237 4e-3 0.10616 0.0927 0.28844 0.19562 0.43183 0.2439 1.0882 0.64136 1.3633 0.82554 0.26083 0.17462 1.784 1.3013 2.1946 1.6234 0.15986 0.1254 0.33575 0.26309 0.39087 0.30601 0.0551 0.0429 0.12458 0.0798 0.15435 0.082 0.0298 2e-3 0.0828 0.033 0.11782 0.0684 0.0566 0.0573 0.0575 0.062 8e-3 0.0434-0.0402-0.0151-0.0495-0.011-0.0334 0.015 0.0122 0.0198 0.0408 0.0288 0.0634 0.0202 0.0227-9e-3 0.14885 0.0578 0.28047 0.14771 0.13159 0.0899 0.29813 0.2035 0.37007 0.25235 0.28963 0.19666 1.2898 0.96479 1.6859 1.2948 0.23181 0.19312 0.43457 0.34699 0.45055 0.34195 0.016-5e-3 0.0853-0.17167 0.154-0.37028zm-8.0169-1.0451c0.71132-0.0634 1.4057-0.24525 1.9975-0.52324 0.34097-0.16015 0.93834-0.53934 0.93834-0.59562 0-0.0471-0.32919-0.32189-0.84297-0.70347-0.55049-0.40884-1.698-1.1708-1.7627-1.1705-0.0323 0-0.11814 0.0828-0.21389 0.20615-0.23202 0.29885-0.90311 0.9396-1.222 1.1668-0.5062 0.36059-0.97422 0.54702-1.5937 0.63482-0.21118 0.0299-0.64914 0.0261-1.1877-0.0105-0.16275-0.011-0.11063 0.0465 0.17032 0.1879 1.2694 0.63904 2.5314 0.91327 3.7168 0.80768zm22.904-0.13051c0.393-0.0559 1.122-0.22467 1.5277-0.35381 0.39059-0.12431 1.1388-0.42988 1.2366-0.50499l0.0715-0.0549-0.0926-6.6e-4c-0.0509-3.3e-4 -0.20135 0.0254-0.33428 0.0572-0.48302 0.11581-1.1032 0.0663-1.6514-0.13183-0.80138-0.28958-1.6738-0.94839-2.1637-1.6338-0.0599-0.0839-0.12194-0.1526-0.13766-0.1526-0.0447 0-1.0234 0.49666-1.3441 0.68209-0.75379 0.43583-1.6412 1.0839-1.5511 1.1328 4e-3 2e-3 0.0617 0.0387 0.12737 0.0808 0.20786 0.13299 0.75455 0.39634 1.0643 0.51268 0.46865 0.17601 1.0934 0.32315 1.6649 0.39208 0.25638 0.0309 1.3057 0.0144 1.5825-0.025zm-17.559-0.26826c-0.052-0.0663-0.11323-0.11738-0.18526-0.15449-0.032-0.0165 5.6e-4 0.023 0.0727 0.0876 0.14108 0.12682 0.17571 0.14738 0.11258 0.0668zm-1.6241 7e-3c0-8e-3 -7e-3 -0.0145-0.0145-0.0145-8e-3 0-0.0145 7e-3 -0.0145 0.0145 0 8e-3 7e-3 0.0145 0.0145 0.0145 8e-3 0 0.0145-7e-3 0.0145-0.0145zm11.129-1.2441c0.36172-0.25975 0.97423-0.64603 1.399-0.88233 0.32664-0.18169 0.3642-0.21078 0.37175-0.28776 0.0272-0.27702 0.13723-0.83329 0.21345-1.0792 0.10316-0.33266 0.41439-0.99816 0.56461-1.2072 0.0573-0.0797 0.098-0.16091 0.0905-0.1804-7e-3 -0.0195-0.0901-0.0523-0.18368-0.0729-0.7733-0.17024-1.6297-0.59348-2.2503-1.1122-0.073-0.061-0.13967-0.11089-0.14822-0.11089-9e-3 0-0.0235 0.42839-0.0332 0.95198-0.0177 0.95428-0.04 1.3688-0.1232 2.2891-0.0424 0.46963-0.16637 1.5324-0.20591 1.7659-0.0126 0.0748-8e-3 0.10901 0.0158 0.10901 0.0189 0 0.14906-0.0824 0.28932-0.18313zm-19.061-0.0421 0.095-0.0799 1.3696-2e-3 0.21248-0.0644c0.29751-0.0901 0.68321-0.2904 0.95331-0.49501 0.12622-0.0956 0.43876-0.38527 0.69456-0.64367l0.46509-0.46983-0.0642-0.0522c-0.0816-0.0663-0.67948-0.28599-1.2427-0.45656-0.77733-0.23541-1.5814-0.40398-2.5446-0.53346-0.61316-0.0824-0.72341-0.11647-0.85727-0.26462l-0.10868-0.12031 0.0145-0.12881c9e-3 -0.0783 0.0403-0.15627 0.0803-0.19884 0.11862-0.12627 0.21045-0.13697 0.74512-0.0869 2.9088 0.27259 4.5888 0.65639 7.2186 1.6491 0.51086 0.19283 1.2859 0.51471 1.3211 0.54865 0.0152 0.0146 0.0446 0.0266 0.0654 0.0266 0.14333 0-0.17124-0.78685-0.52875-1.3226-0.80243-1.2024-2.3334-2.0604-4.0221-2.2542-0.19462-0.0223-0.55968-0.0294-1.0319-0.0199-0.85858 0.0172-1.1097 0.0554-2.3514 0.35675-0.90316 0.21922-1.2861 0.28904-1.8427 0.33592-1.0382 0.0874-2.3839-0.11343-3.187-0.47571-0.12708-0.0573-0.20725-0.079-0.22536-0.0608-0.0182 0.0181 0.01851 0.1852 0.10294 0.46957 0.14376 0.48417 0.24309 0.74861 0.43223 1.1508 0.20836 0.44312 0.25327 0.52941 0.23993 0.46119-7e-3 -0.036-8e-3 -0.0654-3e-3 -0.0654s0.11828 0.14062 0.25071 0.31248c0.30708 0.39846 0.99901 1.0901 1.3825 1.3819 0.3978 0.30265 0.88768 0.61069 1.227 0.7715 0.28781 0.1364 0.95001 0.40472 1.01 0.40927 0.0188 1e-3 0.0769-0.0334 0.12912-0.0774zm30.489-0.0802c0.0879-0.0264 0.33557-0.13445 0.55029-0.24006 1.0653-0.52402 2.1182-1.4331 2.624-2.2656 0.18729-0.30829 0.39414-0.79346 0.59226-1.3892 0.18837-0.56633 0.24095-0.78132 0.19711-0.80622-0.0137-8e-3 -0.17862 0.0429-0.36643 0.11273-0.82625 0.30705-1.2842 0.39404-2.1002 0.39899-0.69582 4e-3 -0.85729-0.0181-2.2092-0.30495-1.632-0.34634-2.2049-0.41705-3.2144-0.39673-0.53084 0.0107-0.70815 0.0253-0.95679 0.0786-0.48988 0.10516-0.91329 0.25548-1.3654 0.48478-0.45427 0.23036-0.78376 0.4587-1.1425 0.79175-0.23219 0.21555-0.33564 0.27727-0.41422 0.24712-0.0629-0.0241-0.13731 0.0518-0.30079 0.30698-0.28547 0.44562-0.55581 1.0897-0.60356 1.4382-0.0225 0.1638-7.3e-4 0.16809 0.22207 0.0442 0.38297-0.21284 1.4983-0.6342 2.4231-0.91542 1.3851-0.4212 3.2739-0.81732 4.7567-0.99756 0.68019-0.0827 1.3194-0.12799 1.4955-0.106 0.27457 0.0343 0.42991 0.18063 0.43482 0.40953 2e-3 0.10084-0.0131 0.14413-0.071 0.20207l-0.0737 0.0737-0.47857 0.057c-0.92349 0.10995-2.2657 0.35589-3.1674 0.58035-0.59002 0.14689-1.0802 0.29963-1.0963 0.34159-0.0315 0.082 0.33143 0.55032 0.69987 0.9031 0.51715 0.49521 1.1548 0.81655 1.8826 0.94871 0.37466 0.068 0.41059 0.0702 0.98465 0.0599 0.39297-7e-3 0.58081-0.0225 0.69763-0.0576zm-34.416-2.4994c0-8e-3 -6e-3 -0.0145-0.0145-0.0145-8e-3 0-0.0145 7e-3 -0.0145 0.0145 0 8e-3 6e-3 0.0145 0.0145 0.0145 8e-3 0 0.0145-7e-3 0.0145-0.0145zm-0.0291-0.0581c0-8e-3 -7e-3 -0.0145-0.0145-0.0145-8e-3 0-0.0145 7e-3 -0.0145 0.0145 0 8e-3 7e-3 0.0145 0.0145 0.0145 8e-3 0 0.0145-7e-3 0.0145-0.0145zm20.614-0.90538c0.16502-0.12226 0.45714-0.3806 0.64918-0.57409 0.47147-0.47506 0.73043-0.86223 0.98535-1.4732l0.0798-0.19124-0.073-0.17966c-0.0402-0.0988-0.0951-0.28091-0.122-0.40464-0.0269-0.12375-0.0593-0.23616-0.0718-0.2498-0.0125-0.0137-0.0927-0.01-0.17819 9e-3 -0.92197 0.19789-2.1272 0.24816-3.1318 0.13064-0.19856-0.0232-0.36692-0.0363-0.37416-0.0291-7e-3 7e-3 -0.0495 0.11526-0.0942 0.24008-0.0446 0.12482-0.10505 0.28964-0.13437 0.36627l-0.0533 0.13932 0.0677 0.19496c0.0821 0.2369 0.31388 0.65596 0.49354 0.89259 0.167 0.21991 0.63325 0.68568 0.8621 0.8612 0.29975 0.22988 0.69548 0.48972 0.74644 0.4901 0.0268 3.2e-4 0.18379-0.0997 0.34881-0.22192zm-2.2434 0.0624c0-8e-3 -7e-3 -0.0145-0.0145-0.0145-8e-3 0-0.0145 7e-3 -0.0145 0.0145 0 8e-3 7e-3 0.0145 0.0145 0.0145 8e-3 0 0.0145-7e-3 0.0145-0.0145zm-3.8393-0.84085c0.0253-0.0228 0.19978-0.0941 0.38784-0.15846 0.40809-0.13958 0.84768-0.32379 1.0678-0.44747 0.52416-0.29444 1.0526-0.72148 1.2375-1 0.11476-0.17287 0.34553-0.67425 0.32143-0.69836-7e-3 -7e-3 -0.1235-0.0374-0.25814-0.0669-1.1013-0.24066-2.2012-0.69401-3.1851-1.3128-0.14904-0.0937-0.28123-0.16413-0.2937-0.15641-0.0125 8e-3 -0.0518 0.0938-0.0874 0.19138-0.0356 0.0975-0.11531 0.27126-0.17723 0.38605-0.14478 0.26839-0.18684 0.52344-0.16393 0.99353 9e-3 0.19185 0.0313 0.42729 0.0489 0.52322 0.10437 0.5713 0.45349 1.3009 0.79115 1.6533 0.13513 0.14105 0.22719 0.16857 0.31084 0.0929zm12.068-0.31198c0.36809-0.73426 0.50747-1.328 0.48343-2.0592-0.0251-0.76249-0.12906-1.0169-0.56293-1.3775-0.14636-0.12165-0.2803-0.2212-0.29766-0.2212-0.0173 0-0.12455 0.0597-0.23824 0.13252-0.79594 0.51017-2.0904 1.0795-2.8704 1.2624l-0.1552 0.0364 0.0195 0.10404c0.0367 0.1955 0.22373 0.6144 0.36227 0.81134 0.39889 0.56699 1.2071 1.1046 2.0806 1.3841 0.17534 0.0561 0.3842 0.12329 0.46414 0.14932 0.19652 0.064 0.42494 0.1241 0.48665 0.12801 0.0368 2e-3 0.0991-0.0933 0.22784-0.35024zm-5.6851-2.7711c1.8423-0.20732 3.5179-0.81146 4.9415-1.7817 0.76016-0.51807 1.6188-1.2921 2.1511-1.9392 0.93116-1.132 1.6791-2.577 2.0237-3.9096 0.41939-1.622 0.43974-3.7482 0.0512-5.3445-0.333-1.3678-1.1582-2.9713-2.1263-4.1317-0.82697-0.9913-1.9389-1.8607-3.2914-2.5733-2.167-1.1419-4.7524-1.4384-7.3269-0.84039-1.6204 0.37641-2.9672 1.0183-4.1976 2.0007-0.4353 0.34756-1.237 1.1416-1.5528 1.5381-1.3084 1.6422-2.0744 3.5014-2.3317 5.6594-0.062 0.52057-0.0716 1.7362-0.0169 2.1656 0.20871 1.6388 0.76024 3.1093 1.6898 4.5055 0.66248 0.99503 1.3707 1.763 2.2106 2.3972 1.7159 1.2956 3.3619 1.9772 5.4066 2.2388 0.7246 0.0927 1.6282 0.0984 2.369 0.0151zm9.961 0.0437c0.0588-3.3e-4 0.12547-0.019 0.14817-0.0416 0.0634-0.0634 0.11696-0.53633 0.1156-1.0198-2e-3 -0.71659-0.11824-1.2377-0.39472-1.7696-0.17289-0.33263-0.45061-0.65354-0.65608-0.75816-0.0736-0.0375-0.25551-0.15443-0.40426-0.25993-0.14874-0.10549-0.27518-0.1918-0.281-0.1918-6e-3 0-0.0845 0.10556-0.17493 0.23459-0.56147 0.80131-1.2763 1.556-2.0122 2.1244-0.1313 0.10143-0.23894 0.20404-0.23918 0.22801-3.3e-4 0.024 0.16607 0.21478 0.36955 0.42398 0.39948 0.41069 0.51575 0.48991 1.0095 0.68785 0.27649 0.11085 0.60423 0.20181 0.98831 0.27431 0.21821 0.0412 1.2387 0.0993 1.3662 0.0779 0.032-5e-3 0.10627-0.01 0.16507-0.0102zm-19.884-0.0851c0.56025-0.0967 1.0957-0.29194 1.5861-0.57834l0.20379-0.11902 0.10674-0.25573c0.0587-0.14065 0.10654-0.26489 0.1063-0.2761-3.2e-4 -0.0112-0.11488-0.10156-0.25478-0.20078-0.92205-0.65397-1.5825-1.326-2.2965-2.3366-0.0451-0.0639-0.10429-0.12037-0.13152-0.12562-0.0652-0.0126-0.45856 0.31036-0.60721 0.49841-0.22605 0.286-0.4054 0.72287-0.52108 1.2694-0.091 0.42996-0.0914 1.1648-7.2e-4 1.6998 0.0351 0.20746 0.0846 0.40895 0.10999 0.44776l0.0462 0.0706 0.6577-0.0177c0.45476-0.0122 0.76185-0.0357 0.9952-0.0759zm-2.3204-4.0144c0.10845-0.0157 0.27851-0.0555 0.37788-0.0885 0.17156-0.057 0.62907-0.30886 0.77386-0.4261l0.0674-0.0546-0.12049-0.19683c-0.30937-0.50547-0.73591-1.4453-0.84597-1.8641-0.0294-0.11193-0.0985-0.36044-0.15344-0.55229-0.055-0.19186-0.11706-0.44496-0.13796-0.56246s-0.0535-0.2196-0.0725-0.22689c-0.019-7e-3 -0.13764 0.0128-0.2637 0.0446-0.12604 0.0318-0.36347 0.0738-0.52762 0.0934l-0.29846 0.0355-0.26836 0.22242c-0.68473 0.56749-1.1593 1.2469-1.4854 2.1264-0.057 0.15378-0.11185 0.33089-0.12189 0.39358l-0.0182 0.11401 0.20587 0.1369c0.11321 0.0753 0.21763 0.13689 0.23201 0.13689 0.0144 0 0.20095 0.084 0.41457 0.18655 0.85009 0.40831 1.614 0.5723 2.2425 0.48142zm23.6-0.0407c0.46407-0.0898 0.72687-0.19969 1.6376-0.68471 0.3203-0.17059 0.34335-0.19391 0.32222-0.32613-0.0284-0.17784-0.18786-0.62996-0.32501-0.9216-0.35684-0.75894-0.97133-1.4036-1.6516-1.7328-0.4255-0.20585-1.0969-0.37098-1.1905-0.2928-0.0208 0.0174-0.0611 0.18193-0.0897 0.36579-0.12397 0.79836-0.52915 1.9394-0.97005 2.7317-0.0837 0.15051-0.14655 0.28745-0.13959 0.30432 0.0243 0.0586 0.50768 0.31034 0.789 0.41089 0.15563 0.0557 0.38271 0.11919 0.50461 0.14126 0.29441 0.0533 0.84812 0.0553 1.1129 4e-3zm0.54939-4.568c0.55464-0.19306 1.144-0.53323 1.6-0.9236 0.43561-0.37287 1.0143-0.96178 1.0143-1.0322 0-0.0854-0.46201-0.66424-0.80879-1.0133-0.68106-0.68563-1.4098-1.0345-2.2466-1.0755-0.51669-0.0253-1.2404 0.0902-1.2845 0.20506-8e-3 0.0212 3e-3 0.11591 0.0241 0.2105 0.0485 0.21454 0.12307 0.8139 0.14444 1.1603 9e-3 0.14388 0.0307 0.44474 0.0484 0.66855 0.0276 0.34779 0.0246 0.48093-0.0205 0.91564-0.0725 0.69911-0.0758 0.65011 0.0449 0.67363 0.50151 0.0977 0.74199 0.15769 0.91564 0.22829 0.11191 0.0455 0.21856 0.0836 0.23699 0.0846 0.0185 7.3e-4 0.16769-0.0448 0.33164-0.10193zm-24.803-0.0705c0.14871-0.0314 0.29061-0.0684 0.31538-0.0823 0.0393-0.022 0.0458-0.16947 0.0511-1.1561 5e-3 -0.90166 0.0165-1.2045 0.0576-1.4942 0.0462-0.32553 0.15315-0.89958 0.20707-1.1114 0.0323-0.1268-0.0641-0.14728-0.69801-0.14838-0.45886-7.2e-4 -0.60144 0.01-0.84296 0.0617-0.78152 0.16851-1.3075 0.45107-1.8473 0.99228-0.29379 0.29458-0.72521 0.87614-0.72521 0.97758 0 0.10349 0.46241 0.67484 0.84689 1.0464 0.48942 0.47301 1.0735 0.80401 1.6376 0.92795 0.26446 0.0581 0.68522 0.0523 0.99787-0.0137zm23.253-4.6098c0.2017-0.0534 0.39108-0.0798 0.65487-0.0914l0.37108-0.0163 0.21028-0.17969c0.47291-0.40414 0.77617-0.78739 1.25-1.5797 0.24624-0.41164 0.30998-0.5455 0.42158-0.88491l0.13147-0.3999-0.051-0.0564c-0.0814-0.0899-0.9486-0.51338-1.2473-0.60906-0.52973-0.16968-0.8227-0.21299-1.341-0.19826-0.39443 0.0112-0.50392 0.0249-0.72077 0.0901-0.31087 0.0935-0.54092 0.20678-0.74089 0.36482-0.18306 0.14471-0.55856 0.57949-0.55856 0.64676 0 0.0267 0.0348 0.09 0.0773 0.14052 0.32238 0.38312 0.91553 1.7224 1.1134 2.5142 0.0869 0.34763 0.0823 0.33429 0.11601 0.33429 0.0163 0 0.15732-0.0338 0.31341-0.0751zm-22.333-0.39727c0.38814-1.171 0.78777-2.0113 1.2713-2.6734l0.12145-0.16631-0.0521-0.0576c-0.095-0.10501-0.47941-0.35376-0.72311-0.46796-0.53089-0.2488-1.2688-0.34954-1.9175-0.26181-0.28817 0.0389-0.83523 0.18615-1.1498 0.30933-0.31944 0.12511-0.90137 0.4221-0.91946 0.46923-0.052 0.13562 0.46209 1.4627 0.65032 1.6786 0.0279 0.032 0.12053 0.16278 0.20591 0.29067 0.22821 0.34188 0.46017 0.61699 0.74838 0.88761l0.25583 0.24021 0.47898 0.0104c0.26344 6e-3 0.54439 0.0216 0.62433 0.0354 0.0799 0.0137 0.17946 0.0267 0.22117 0.0289l0.0758 4e-3zm20.623-3.5984c0.19944-0.19873 0.46753-0.38312 0.72333-0.4975 0.10673-0.0477 0.21371-0.0962 0.23768-0.10778 0.0556-0.0267 0.20558-0.32665 0.31908-0.638 0.0485-0.13293 0.11508-0.30085 0.14806-0.37316 0.0829-0.182 0.13527-0.48319 0.15842-0.9112 0.0288-0.53147-0.0634-1.397-0.15894-1.4926-0.0234-0.0234-0.24145-0.0335-0.72238-0.0335-0.61504 0-0.7213 7e-3 -0.99066 0.0676-1.0481 0.23466-1.8899 0.78633-2.2256 1.4585-0.12741 0.25513-0.20321 0.47726-0.18182 0.53297 0.01 0.0253 0.0738 0.0813 0.14252 0.12459 0.50375 0.31726 1.4055 1.2127 2.0133 1.9992l0.19986 0.25865 0.0877-0.11332c0.0482-0.0623 0.16049-0.18584 0.24943-0.27446zm-18.615-0.0787c0.37067-0.49587 1.0951-1.2607 1.4295-1.5092 0.0602-0.0448 0.19458-0.14864 0.2985-0.23082 0.10392-0.0822 0.29033-0.2171 0.41422-0.29985 0.12391-0.0827 0.22527-0.16228 0.22527-0.17674 0-0.0381-0.16094-0.30651-0.30501-0.50848-0.24983-0.35036-0.67862-0.69544-1.1033-0.88803-0.24097-0.10926-0.68655-0.23973-1.0479-0.30684-0.22472-0.0417-0.43218-0.0541-0.91424-0.0545l-0.62357-5.5e-4 -0.0353 0.12151c-0.14563 0.50134-0.18763 1.4402-0.0889 1.9859 0.071 0.39194 0.18124 0.76206 0.30792 1.0331 0.0966 0.20681 0.12734 0.24523 0.26655 0.33324 0.20409 0.12907 0.64456 0.45886 0.81135 0.6075 0.0719 0.0641 0.14557 0.11712 0.16362 0.1178 0.0181 6.6e-4 0.1086-0.10013 0.20124-0.22404zm15.303-2.3981c3.4e-4 -0.02 0.0708-0.18219 0.15694-0.36046 0.14261-0.2951 0.24388-0.4623 0.54569-0.90088 0.12883-0.18718 0.15609-0.40436 0.11095-0.8832-0.0608-0.64492-0.21919-1.1904-0.53834-1.854l-0.18827-0.39156-0.1381 0.0169c-0.16784 0.0205-0.56043 0.13288-0.95197 0.27249-0.65647 0.23406-1.2981 0.6208-1.701 1.0253-0.36271 0.36412-0.49673 0.63908-0.56758 1.1642-0.0511 0.37849-0.0522 0.46379-6e-3 0.47846 0.02 7e-3 0.20939 0.0578 0.42091 0.11425 0.81434 0.2175 1.741 0.65565 2.5872 1.2233 0.20106 0.13488 0.26911 0.1589 0.26957 0.0951zm-11.915-0.41438c0.43561-0.31095 0.93619-0.54146 1.7558-0.80851 0.48072-0.1566 0.57703-0.18025 1.0752-0.26402l0.37788-0.0636-4e-3 -0.27564c-6e-3 -0.50648-0.14906-0.80394-0.60708-1.2632-0.43954-0.44072-1.0138-0.79607-1.7296-1.0702-0.35709-0.13679-0.7479-0.2528-0.793-0.23541-0.06 0.0232-0.37419 0.53071-0.57534 0.92939-0.30821 0.61093-0.47956 1.2249-0.51113 1.8316-0.021 0.40348-0.0403 0.34955 0.29527 0.82399 0.1279 0.18081 0.24138 0.34382 0.25217 0.36223 0.0108 0.0184 0.0479 0.0826 0.0824 0.14266 0.0381 0.0661 0.0762 0.10131 0.0967 0.0892 0.0186-0.011 0.14642-0.10034 0.28403-0.19857zm7.7916-1.4118c0.0271-0.11869 0.0889-0.31457 0.13735-0.4353l0.088-0.2195-0.0401-0.1916c-0.17449-0.8339-0.78344-1.6555-1.8093-2.4412-0.21856-0.16739-0.28124-0.20181-0.34039-0.18696-0.10383 0.0261-0.62938 0.45135-0.9086 0.73528-0.57465 0.58433-0.89294 1.0937-1.0451 1.6726l-0.0514 0.19559 0.0655 0.20352c0.036 0.11195 0.0898 0.32905 0.11958 0.48246 0.0297 0.15341 0.0607 0.28567 0.069 0.29392 8e-3 8e-3 0.18275-9e-3 0.38776-0.0384 0.76583-0.10973 2.28-0.0562 2.996 0.10591 0.12398 0.0281 0.23821 0.0485 0.25385 0.0453 0.0156-3e-3 0.0506-0.10289 0.0778-0.22158z" fill="#0b2d2b" stroke-width=".029068"/>
  <path d="m114.07 110.5c-1.0839-0.27591-1.8289-1.473-1.6048-2.5674 0.0711-0.86212 0.75414-1.5996 1.5782-1.8192 0.93036-0.28639 2.0636 0.0655 2.5656 0.92549 0.56381 0.88348 0.41279 2.1732-0.39636 2.8587-0.54991 0.54038-1.387 0.83469-2.1427 0.60253z" fill="#123731" stroke-width=".0711"/>
  <path d="m114.9 108.44c0.46825-0.32585 0.52703-1.136 0.0372-1.4694-0.50595-0.33224-1.2625 0.0285-1.3758 0.60973-0.12397 0.44172 0.17409 0.97425 0.6479 1.0246 0.24021 0.0388 0.49097-0.0293 0.69064-0.16497z" fill="#fff" stroke-width=".0711"/>
  <path id="a" d="m124.35 110.48c-1.082-0.27545-1.8257-1.4704-1.602-2.563 0.0709-0.86064 0.75284-1.5969 1.5755-1.8161 0.92877-0.28589 2.0601 0.0653 2.5612 0.92389 0.56286 0.88197 0.4121 2.1695-0.39567 2.8538-0.54897 0.53947-1.3846 0.83326-2.139 0.60151z" fill="#123731" stroke-width=".070978"/>
  <path id="b" d="m125.19 108.43c0.46745-0.32529 0.52611-1.1341 0.0371-1.4669-0.50508-0.33167-1.2603 0.0285-1.3734 0.60868-0.12375 0.44097 0.17379 0.97258 0.64679 1.0229 0.23981 0.0387 0.49011-0.0293 0.68945-0.16468z" fill="#fff" stroke-width=".070978"/>
  <g fill="#0b2d2b">
   <path id="c" d="m125.62 104.58c-0.42127-0.39412-0.66392-0.48587-1.2862-0.48643l-0.3954-3.7e-4 -0.0988-0.066c-0.19352-0.12928-0.25291-0.37084-0.13441-0.54672 0.14206-0.21076 0.39075-0.29832 0.83502-0.29401 0.54022 5e-3 1.0574 0.22079 1.442 0.60104 0.1874 0.18522 0.24851 0.26752 0.29796 0.40123 0.0727 0.19643 0.077 0.27779 0.0222 0.40918-0.0571 0.1367-0.17737 0.22197-0.31305 0.22197-0.1012 0-0.13918-0.0247-0.36925-0.23995z" stroke-width=".0076909"/>
   <path id="d" d="m114.09 104.85c-0.20523-0.0594-0.35366-0.31503-0.31195-0.53735 0.0268-0.14273 0.21494-0.41498 0.41003-0.5933 0.21038-0.19225 0.47963-0.32623 0.88785-0.44179 0.27042-0.0765 0.38073-0.093 0.63272-0.0944 0.36564-2e-3 0.52896 0.0496 0.67721 0.21365 0.13346 0.14771 0.1585 0.28815 0.0802 0.44981-0.0915 0.18894-0.22454 0.25041-0.54339 0.25102-0.55081 1e-3 -0.95607 0.15841-1.2819 0.49769-0.18257 0.19012-0.33113 0.29035-0.42095 0.28403-0.0205-1e-3 -0.0789-0.0147-0.12986-0.0294z" stroke-width=".0076909"/>
   <path id="e" d="m118.99 109.64c-0.32001-0.047-0.62427-0.18886-0.84184-0.39237-0.16916-0.15826-0.23446-0.28128-0.23446-0.44173 0-0.098 0.0112-0.12948 0.0697-0.19618 0.13096-0.14918 0.28903-0.12363 0.53452 0.0864 0.22389 0.19151 0.58931 0.27636 0.91434 0.21233 0.2262-0.0445 0.38046-0.11707 0.56784-0.26684 0.11579-0.0926 0.15708-0.11269 0.23099-0.11269 0.19103 0 0.33469 0.12917 0.33485 0.3011 0 0.12223-0.0495 0.22526-0.17132 0.35547-0.32293 0.34523-0.89311 0.52973-1.4047 0.45453z" stroke-width=".0059982"/>
  </g>
  <g transform="translate(-58.738 1.0583)" fill="#e0500e" stroke-width=".029068">
   <path d="m171.97 110.22c1.2724-0.16495 0.67798-1.6446-0.40219-1.4289-1.0823-0.24377-1.7019 1.3106-0.39446 1.434 0.26174 0.0524 0.53611 0.057 0.79665-5e-3z"/>
   <path d="m187.13 110.25c0.92343-0.013 1.1339-1.2584 0.1556-1.3837-0.63945-0.16649-1.6243-0.16823-1.858 0.60487 0.0464 0.75356 1.1236 0.90754 1.7024 0.77885z"/>
  </g>
  <g id="f" transform="matrix(1.0698 0 0 1.1204 -8.038 -13.288)">
   <path d="m119.07 118.54c-0.50425-0.045-1.0583-0.203-1.546-0.44109-1.0569-0.51595-1.8936-1.6155-2.1977-2.8882-0.16699-0.69882-0.17701-1.5326-0.0265-2.2061 0.06-0.26837 0.19981-0.65219 0.33248-0.91267 0.40182-0.78896 1.0303-1.3052 1.9187-1.576 0.53752-0.16385 0.66911-0.17826 1.63-0.17845 0.91955-3.5e-4 1.0285 9e-3 1.5393 0.13663 0.5224 0.13002 1.1206 0.4037 1.5358 0.70265 0.8146 0.5865 1.3161 1.5822 1.3165 2.614 0 0.21224-9e-3 0.28371-0.0418 0.31612-0.0351 0.0351-0.0389 0.0886-0.0234 0.33358 0.0188 0.29638-8e-3 0.59368-0.0868 0.94854-0.14978 0.67825-0.50493 1.2785-1.1246 1.9006-0.5952 0.59756-1.1929 0.95058-1.9323 1.1412-0.26902 0.0693-0.83605 0.14442-1.0074 0.13337-0.0297-2e-3 -0.15835-0.0128-0.28604-0.0242z" fill="#0b2d2b" stroke-width=".0071285"/>
   <path d="m119.1 118.06c-0.29887-0.0429-0.6447-0.14153-0.92368-0.26345-0.31219-0.13644-0.51037-0.25769-0.83659-0.51184l-0.22458-0.17497 0.0916-0.0978c0.0503-0.0537 0.18752-0.21902 0.30482-0.3672 0.27035-0.34153 0.3853-0.45604 0.63402-0.63158 0.5287-0.37315 1.0301-0.53187 1.7627-0.55799 0.67804-0.0242 1.2965 0.085 2.0024 0.35361 0.17633 0.0671 0.3474 0.12199 0.38014 0.12199 0.0327 0 0.11159 0.0358 0.17522 0.0796l0.11568 0.0796-0.15407 0.3178c-0.0847 0.17479-0.20245 0.37842-0.26156 0.45252-0.56765 0.71143-1.5535 1.1816-2.5407 1.2118-0.20005 6e-3 -0.43647 6.8e-4 -0.52538-0.0121z" fill="#e0500e" stroke-width=".026942"/>
  </g>
  <path d="m119.95 121.95c-2.281-0.18556-4.1083-0.88803-5.9735-2.2964-1.0318-0.7791-1.9354-1.8428-2.6704-3.1436-0.37606-0.66547-0.71152-1.475-0.68405-1.6508 9e-3 -0.0565 2e-3 -0.18773-0.0153-0.29165-0.05-0.30093-0.10087-1.3796-0.0678-1.4386 0.0223-0.0399 0.0429 8e-3 0.0951 0.22151 0.36563 1.4946 1.2024 2.9036 2.4317 4.0948 1.0343 1.0022 2.4074 1.8591 3.7007 2.3093 1.3443 0.46793 2.8587 0.68147 4.2788 0.60336 2.0391-0.11215 3.7308-0.68627 5.3713-1.8228 0.7446-0.51587 1.3946-1.0904 1.9564-1.7293 1.5774-1.7938 2.3175-3.6779 2.3177-5.8998 0-0.49231 5e-3 -0.56026 0.0418-0.52323 0.0398 0.0406 0.28749 0.6395 0.3662 0.88554 0.0205 0.064 0.055 0.12939 0.0769 0.14543 0.033 0.0242 0.0347 0.12946 0.0101 0.62325-0.0716 1.4359-0.30105 2.4704-0.80645 3.6351-0.53037 1.2223-1.2449 2.2775-2.1626 3.1935-1.5404 1.5377-3.4604 2.5286-5.6657 2.9238-0.85325 0.15295-1.8997 0.21752-2.6008 0.16049z" fill="#e0500e" stroke-width=".029068"/>
  <path id="g" d="m99.032 109.59c-0.49337-0.0813-0.89593-0.21036-1.3226-0.42407-1.2176-0.60989-2.1217-1.7106-2.4964-3.0392-0.16258-0.57651-0.19069-0.80392-0.19031-1.5395 2.64e-4 -0.73562 0.0331-0.96519 0.22071-1.551 0.51398-1.6045 1.7871-2.8407 3.3696-3.2718 0.98113-0.26728 1.982-0.20486 2.9255 0.18247 0.92872 0.38124 1.7371 1.0523 2.2809 1.8934 0.72231 1.1173 1.001 2.6809 0.7203 4.0414-0.0312 0.15138-0.057 0.297-0.0572 0.32359-2.6e-4 0.032 0.2215 0.18307 0.65848 0.44841 0.80338 0.48781 0.85268 0.52777 0.85268 0.69122 0 0.26757-0.23807 0.49822-0.79937 0.77446-0.71429 0.35154-1.6366 0.5777-2.369 0.58096l-0.24707 1e-3 -0.24708 0.16194c-0.4646 0.3045-1.0614 0.5497-1.6619 0.68285-0.34852 0.0773-1.2826 0.10227-1.6373 0.0438zm1.4534-0.87432c0.53146-0.11906 0.98231-0.3185 1.4926-0.6603l0.30876-0.20679 0.48006-5e-3c0.54764-6e-3 0.87084-0.0618 1.3706-0.23569 0.50691-0.17646 0.5438-0.2114 0.34372-0.32566-0.2015-0.11509-0.80832-0.58531-0.88492-0.68574-0.0909-0.1192-0.0912-0.1908-2e-3 -0.55551 0.0987-0.40388 0.16049-0.83707 0.18034-1.2644 0.056-1.2059-0.43595-2.4097-1.34-3.2786-0.59443-0.57131-1.2159-0.8916-1.9883-1.0248-1.3986-0.24112-2.8508 0.38312-3.7869 1.6278-0.36809 0.4894-0.58921 0.98556-0.726 1.629-0.0861 0.40482-0.0929 1.1762-0.01439 1.6133 0.066 0.36729 0.26975 0.99164 0.42439 1.3006 0.3641 0.72743 0.97933 1.3724 1.6499 1.7297 0.26888 0.14326 0.74696 0.3083 1.0695 0.36918 0.29477 0.0557 1.1244 0.04 1.4227-0.0268z" fill="#0b2d2b" stroke-width=".0076909"/>
  <path id="h" d="m98.392 107.59c-0.26086-0.0835-0.45608-0.20601-0.63793-0.4004-0.6101-0.65222-0.51651-1.6174 0.2035-2.0982 0.27775-0.18546 0.5103-0.25171 0.87205-0.24844 0.23431 2e-3 0.34509 0.0173 0.47691 0.0652 0.21389 0.0777 0.22072 0.0775 0.22072-6e-3 0-0.0373-0.11119-0.77162-0.24708-1.6316s-0.24708-1.6243-0.24708-1.6984c0-0.33831 0.29719-0.53315 0.58747-0.38515 0.12781 0.0652 1.383 0.97625 1.7638 1.2802 0.1501 0.11984 0.34272 0.30255 0.42811 0.40602 0.42756 0.51838 0.60752 1.2809 0.44878 1.9016-0.068 0.266-0.117 0.36542-0.25542 0.51865-0.18522 0.205-0.39067 0.25838-0.54058 0.14046-0.11229-0.0883-0.12161-0.2101-0.0354-0.46165 0.12155-0.35453 0.0922-0.69698-0.0909-1.0584-0.0992-0.19599-0.25202-0.33796-0.7217-0.67061-0.41775-0.29585-0.50805-0.3446-0.50944-0.27495-2.6e-4 0.0219 0.0934 0.70684 0.20854 1.5222l0.20939 1.4825-0.0465 0.22485c-0.11446 0.55397-0.50892 1.0648-0.99562 1.2895-0.34765 0.16048-0.7824 0.2012-1.0916 0.10224z" fill="#0b2d2b" stroke-width=".0020349"/>
 </g>
</svg>
