<?xml version="1.0" encoding="UTF-8"?>
<!-- Created with Inkscape (http://www.inkscape.org/) -->
<svg width="27.9mm" height="36.4mm" version="1.1" viewBox="0 0 27.9 36.4" xmlns="http://www.w3.org/2000/svg">
 <g stroke-width=".0314">
  <path d="m3.4 1c-0.0102 5e-3 -0.0238 0.0424-0.0381 0.117-0.0125 0.0648-0.0236 0.648-0.0249 1.3-2e-3 1.1 2e-3 1.2 0.0694 1.55 0.145 0.76 0.304 1.24 0.637 1.91 0.21 0.423 0.329 0.615 0.635 1.03 0.944 1.27 2.32 2.08 3.84 2.26 0.312 0.0363 1.11 0.0376 1.42 2e-3 0.342-0.039 0.793-0.126 0.829-0.16 0.0425-0.0392-0.227-0.465-0.544-0.861-0.344-0.429-1.16-1.26-1.26-1.29-0.0407-9e-3 -0.555-0.0382-1.14-0.0646-2-0.0898-2.11-0.106-2.2-0.305-0.0516-0.123-0.0322-0.195 0.0773-0.287 0.102-0.0854 0.13-0.0886 1.49-0.163 0.946-0.0515 0.989-0.0562 0.989-0.105 0-0.0351-0.747-0.742-1.63-1.54-1.42-1.28-2.07-1.88-2.15-1.98-0.114-0.135-0.11-0.254 0.0115-0.393 0.109-0.124 0.271-0.172 0.394-0.116 0.163 0.0744 1.54 1.15 2.16 1.69 0.225 0.194 0.634 0.566 0.911 0.827 0.276 0.261 0.521 0.474 0.544 0.474 0.0338 1e-5 0.0397-0.181 0.0314-0.966-8e-3 -0.742-1e-3 -0.982 0.0301-1.04 0.0593-0.104 0.215-0.174 0.336-0.152 0.13 0.0244 0.324 0.218 0.346 0.344 9e-3 0.0536 0.0273 0.651 0.0404 1.33l0.024 1.23 0.346 0.355c0.397 0.407 0.828 0.919 1.3 1.54 0.183 0.242 0.339 0.421 0.354 0.406 0.0764-0.0764 0.248-0.906 0.241-1.16-4e-3 -0.137-5e-3 -0.134-0.0299 0.055-0.0433 0.334-0.0566 0.303-0.121-0.284-0.0194-0.177-0.0454-0.316-0.0734-0.413-0.0262-0.131-0.0668-0.333-0.139-0.726-0.277-1.16-0.892-1.96-2.14-2.8-0.346-0.232-1.26-0.711-1.29-0.679-0.01 0.01 0 0.0737 0.0203 0.143 0.0524 0.175 0.0162 0.331-0.0995 0.428-0.162 0.136-0.459 0.0913-0.622-0.0937-0.18-0.205-0.169-0.427 0.0326-0.619 0.0683-0.0649 0.117-0.118 0.109-0.118s-0.239-0.0483-0.512-0.107c-0.932-0.202-1.54-0.296-2.53-0.397-0.344-0.0346-0.635-0.0692-0.647-0.0769-0.0102-6e-3 -0.0196 0.0347-0.0284 0.0939 0.0128-0.128 6e-3 -0.202-0.01-0.194zm0.898 1.16c-0.0177 0.073-0.0117 0.15 0.0263 0.221 0.0276 0.0515 0.859 0.818 2.07 1.91 0.817 0.736 1.75 1.62 1.73 1.64-1e-3 5.9e-4 -0.018 2e-3 -0.0219 3e-3 -0.0768-0.103-0.946-0.923-1.72-1.62-1.21-1.09-2.04-1.86-2.07-1.91-0.0419-0.0783-0.0447-0.164-0.0197-0.243zm4.17 0.733c-0.041 0.127-0.0433 0.38-0.0433 0.999 0 0.516-0.0117 0.937-0.0261 0.937-8e-5 0-1e-3 -7.9e-4 -1e-3 -7.9e-4 0.0116-0.0929 0.0205-0.468 0.0205-0.914 0-0.654 2e-3 -0.902 0.0498-1.02z" fill="#3bc007"/>
  <path d="m11 6c-0.136 0.358-0.594 0.36-0.831 0.104-0.315-0.258-0.653-0.502-0.919-0.811-0.0859-0.342-0.0358-0.706-0.0559-1.06-0.0156-0.455 0.0255-0.919-0.056-1.37-0.0867-0.311-0.618-0.491-0.745-0.119-0.0778 0.634 1e-3 1.28-0.061 1.91-0.639-0.565-1.24-1.17-1.91-1.7-0.542-0.43-1.07-0.878-1.66-1.25-0.307-0.153-0.716 0.293-0.454 0.558 1.22 1.17 2.52 2.26 3.72 3.45-0.0648 0.128-0.538 0.0571-0.759 0.102-0.518 0.0377-1.04 0.0319-1.56 0.105-0.168 0.168-0.354 0.288-0.521 0.0389-0.988-0.864-1.56-2.12-1.8-3.4-0.0881-0.542-0.115-1.1-0.0295-1.65 1.02 0.0941 2.06 0.21 3.06 0.436 0.183 0.0653 0.543 0.0657 0.615 0.17-0.25 0.161-0.339 0.535-0.0836 0.735 0.195 0.206 0.634 0.196 0.702-0.124 0.032-0.182-0.142-0.523 0.17-0.309 1.09 0.532 2.18 1.24 2.8 2.31 0.361 0.604 0.465 1.31 0.588 1.99-0.037-0.0869-0.137-0.316-0.231-0.13z" fill="#9cf503"/>
  <path d="m13.6 7c-8e-3 -8e-3 -0.0147-0.102-0.0147-0.21s-0.0427-0.822-0.0948-1.59c-0.134-1.97-0.155-2.25-0.175-2.38-0.0368-0.23 0.112-0.244 0.555-0.0521 0.352 0.152 0.573 0.297 0.552 0.361-9e-3 0.0276-0.0662 0.188-0.127 0.356-0.203 0.562-0.324 1.45-0.445 3.25l-0.0191 0.284h-0.108c-0.0595 0-0.115-7e-3 -0.123-0.0147z" fill="#9cf503"/>
 </g>
 <path id="a" d="m3.2 23c-1.94-1.2-3.54-3.51-3.15-5.87 0.453-1.84 3.13 0.235 1.16 0.875-0.0543 1.05 1.02 3.28 1.63 3.12" stroke-width=".00831"/>
 <g stroke-width=".0314">
  <path d="m13.9 8c0.121-1.8 0.242-2.68 0.445-3.25 0.0606-0.168 0.118-0.328 0.127-0.356 0.0212-0.064-0.2-0.209-0.552-0.361-0.443-0.192-0.592-0.178-0.555 0.0521 0.0207 0.13 0.0412 0.407 0.175 2.38 0.0521 0.767 0.0948 1.48 0.0948 1.59 0 0.107 7e-3 0.202 0.0146 0.21 8e-3 8e-3 0.0633 0.0147 0.123 0.0147h0.108z" fill="#3bc007"/>
  <path d="m22.4 1 0.675 0.029c0.193 8e-3 0.367 0.0175 0.498 0.0257-0.156-7e-3 -0.332-7e-3 -0.322 8e-3 0.0184 0.0298 0.0809 0.0156-0.945 0.217-2.83 0.559-1.71 0.877-3.4 1.02-0.513 0.259-0.768 0.429-1.22 0.808-0.537 0.453-0.98 0.99-1.23 1.49-0.339 0.697-0.555 1.16-0.376 1.52-2e-3 4e-3 -3e-3 5e-3 -4e-3 9e-3 -0.0132 0.0356-0.0472 0.311-0.0755 0.612s-0.0639 0.559-0.079 0.574c-0.0156 0.0156-0.0407-0.0316-0.0581-0.11-0.0512-0.229-0.0409-0.0109 0.0117 0.249 0.0717 0.354 0.107 0.478 0.137 0.478 0.0146 0 0.114-0.12 0.22-0.266 0.259-0.356 0.749-0.936 1.27-1.5 0.235-0.256 0.434-0.489 0.444-0.518 9e-3 -0.0293 0.0514-0.614 0.0937-1.3 0.0566-0.918 0.0893-1.27 0.124-1.34 0.104-0.201 0.401-0.252 0.545-0.0943 0.136 0.15 0.137 0.161 0.0999 1.12-0.0251 0.649-0.0257 0.924-2e-3 0.948 0.0239 0.0238 0.155-0.0831 0.451-0.369 0.636-0.612 2.05-1.84 2.83-2.46 0.247-0.196 0.251-0.198 0.417-0.184 0.281 0.0233 0.454 0.25 0.366 0.479-0.0109 0.0284-0.272 0.263-0.579 0.522-0.308 0.258-0.797 0.678-1.09 0.932-0.644 0.564-2.18 2.08-2.18 2.15 0 0.0455 0.0796 0.0538 0.684 0.0704 0.376 0.0103 0.914 0.0297 1.2 0.0431 0.51 0.0243 0.514 0.0252 0.589 0.112 0.141 0.163 0.08 0.4-0.121 0.471-0.144 0.0507-1.38 0.148-2.67 0.211-0.378 0.0183-0.711 0.0459-0.738 0.0611-0.281 0.155-1.6 1.88-1.6 2.09 1e-5 0.0622 0.1 0.084 0.722 0.156 0.0605 7e-3 0.4 8e-3 0.754 3e-3 0.678-0.0106 0.992-0.0493 1.55-0.192 1.78-0.45 3.28-1.83 3.96-3.64 0.159-0.423 0.346-1.19 0.406-1.66 0.0985-0.774 0.156-2.69 0.0817-2.74-0.0168-0.0104-0.345-0.0244-0.73-0.0311zm1.37 0.0707c3e-3 4.9e-4 0.023 2e-3 0.0241 2e-3 0.0142 5e-3 0.0245 0.0583 0.031 0.142-7e-3 -0.0826-0.0168-0.135-0.031-0.139-5e-3 -2e-3 -0.016-3e-3 -0.0241-5e-3zm-1.33 0.845c0.013-6e-4 0.0262-2e-4 0.0397 7.8e-4 -0.0269-2e-3 -0.0531-1e-3 -0.0778 4e-3 0.0123-2e-3 0.0251-4e-3 0.0381-4e-3zm0.47 0.281c0.0131 0.0241 0.0229 0.0488 0.0292 0.0736-6e-3 -0.0248-0.0161-0.0495-0.0292-0.0736zm-0.159 0.437c-0.0578 0.0549-0.13 0.118-0.219 0.192 0.0893-0.074 0.162-0.137 0.219-0.192zm-3.93 0.373c0.01 0.0261 0.017 0.0569 0.0226 0.0947-6e-3 -0.0378-0.0131-0.0686-0.0226-0.0947zm-0.923 2.5c-0.0224 0.0686-0.333 0.356-0.617 0.59-0.0145 0.0119-0.0277 0.0221-0.042 0.0337 0.0143-0.0117 0.0275-0.0217 0.042-0.0337 0.283-0.234 0.596-0.525 0.617-0.59zm-1.58 0.896c0.0211 0.0158 0.0443 0.0313 0.0679 0.0468-0.0238-0.0121-0.046-0.029-0.0679-0.0468zm0.436 0.0466-0.018 6e-3zm-0.0949 0.0268c-0.0107 2e-3 -0.0216 5e-3 -0.032 7e-3 0.0105-2e-3 0.0213-4e-3 0.032-7e-3z" fill="#34a906"/>
  <path d="m16.4 6c-0.331-0.165-0.495-0.562-0.368-0.91 0.255-0.803 0.683-1.56 1.3-2.14 0.471-0.447 0.992-0.873 1.59-1.12 0.452-0.0309 0.915-0.114 1.29-0.383 0.863-0.456 1.85-0.574 2.79-0.776 0.245-0.0763 0.55-0.156 0.784-0.0221 0.0892 1.13-0.153 2.28-0.618 3.31-0.354 0.793-0.917 1.47-1.55 2.06-0.0355-0.14-0.141-0.355-0.304-0.362-0.732-0.0346-1.47-0.0322-2.2-0.06-0.0475-0.196 0.385-0.46 0.537-0.669 0.965-0.985 2.02-1.87 3.07-2.77 0.323-0.188 0.174-0.608-0.146-0.689-0.346-0.116-0.59 0.275-0.852 0.432-0.969 0.8-1.92 1.62-2.83 2.49-0.215 0.116-0.0423-0.491-0.0846-0.677-1e-3 -0.394 0.061-0.796-0.0171-1.19-0.141-0.343-0.723-0.242-0.741 0.127-0.0928 0.788-0.0953 1.58-0.182 2.37-0.277 0.335-0.627 0.609-0.978 0.865-0.148 0.0854-0.334 0.154-0.504 0.0987z" fill="#8ddd03"/>
  <path id="b" d="m12.8 30c-3.51-0.362-6.87-2.52-8.31-5.8-1.46-3.03-1.42-6.78 0.249-9.72 1.98-3.6 6.32-5.75 10.4-5.04 4.15 0.713 7.55 4.31 8.13 8.47 0.727 4.19-1.4 8.66-5.05 10.8-1.42 0.881-3.08 1.37-4.76 1.27-0.213-2.9e-4 -0.427 5e-3 -0.639-5e-3zm1.88-0.907c3.35-0.472 6.14-3.09 7.33-6.2 1.42-3.42 0.449-7.63-2.25-10.1-2.14-2.12-5.37-3.16-8.32-2.36-3.21 0.733-5.88 3.3-6.77 6.47-1.15 3.65 0.102 7.96 3.16 10.3 1.9 1.57 4.43 2.21 6.85 1.92zm-0.404-0.624c-0.869-0.44-0.263-1.73-0.451-2.52-9.6e-4 -1.16-2e-3 -2.31-3e-3 -3.47 0.81-0.0538 1.35-1.44 1.87-0.268 1.17 1.19 2.37 2.38 3.33 3.75-0.285 0.756-1.19 1.2-1.87 1.64-0.885 0.449-1.87 0.901-2.88 0.868zm-2.21-0.102c-1.56-0.301-3.2-0.898-4.19-2.2 0.3-0.979 1.33-1.67 1.94-2.51 0.655-0.615 1.35-1.72 2.01-2.04 0.428 0.801 1.8 0.549 1.32 1.68-0.0378 1.62 0.0855 3.25-0.049 4.86-0.223 0.348-0.694 0.243-1.04 0.201zm-4.93-3.04c-0.728-0.57-1.17-1.48-1.49-2.34 0.0205-0.936 1.53-0.817 2.1-1.37 0.969 0.499 2.02-1.04 0.629-1.19-0.805-0.298-1.28 0.567-1.16 0.948-0.885 0.313-2.24 0.792-2.12-0.672 0.0464-0.694-0.503-2.34 0.49-2.37 0.76 0.1 1.52 0.202 2.29 0.204-0.102 1.15 1.27 2.16 2.3 1.51 0.529-0.662 1.48-1.18 2.26-0.727-0.245 0.576-0.824 0.8-1.26 1.08-0.545 0.269-2.24-0.114-1.82 0.768 0.501-0.107 2.36-0.384 1.37 0.539-1.15 1.19-2.19 2.48-3.39 3.62-0.0243 0.104-0.191-0.0772-0.205-8e-3zm12.3-0.117c-1.22-1.4-2.58-2.67-3.81-4.05 0.866-0.411 1.94 0.21 2.87 0.329 0.94 0.272 1.94 0.428 2.82 0.841 4e-3 0.95-0.693 1.83-1.2 2.61-0.15 0.204-0.422 0.547-0.683 0.265zm-6.11-2.72c0.184-0.0307-0.0641 0.059 0 0zm0.268 3.1e-4c0.0913-0.0476 0.01 0.0673 0 0zm7.7-0.874c-1.89-0.512-3.78-1.09-5.73-1.32-0.644-0.837-1.78 1.77-1.71 0.114-0.187-0.604 0.284-0.795 0.652-1.17 0.914-0.372 1.72 0.266 2.33 0.873 1.03 0.457 2.2-0.481 2.19-1.55 0.432-0.0487 2.02-0.115 1.65-0.572-0.687-0.132-1.77 0.52-1.98-0.388-0.588-0.915-2.07-0.914-2.61 0.0474-0.283 0.611-0.116 1.26-1.02 0.94-1.08-0.343 0.922-1.18 1.27-1.65 1.15-0.881 2.2-1.89 3.39-2.71 0.84 0.0718 1.09 1.29 1.48 1.96 0.349 0.931 0.554 1.92 0.674 2.9-0.102 0.779 0.271 2.29-0.6 2.53zm-8.35-0.636c-0.893-0.282-0.824-1.07-0.0515-1.28 0.307-0.0241 0.384 1.51 0.0515 1.28zm-1.84-2.48c0.0272-1.22-1.57-2.06-2.53-1.22-0.405 0.961-1.41 0.754-2.28 0.593-1.41 0.118-0.76-1.26-0.395-1.99 0.359-0.794 1.07-2.31 1.97-1.12 1.49 1.16 2.94 2.37 4.47 3.46 0.234 0.527-1.23 0.582-1.23 0.283zm2.94-0.872c-0.37-0.139-0.112-0.651-0.188-0.965v-5.17c0.516-0.797 1.58-0.213 2.31-0.0754 1.08 0.359 2.15 0.908 2.92 1.77 0.119 1.01-1.28 1.46-1.85 2.17-0.973 0.805-1.92 1.65-2.95 2.38l-0.0907-0.0322-0.148-0.0731zm-1.73-0.191c-1.5-1.18-2.98-2.4-4.43-3.64-0.346-0.865 1.03-1.32 1.6-1.78 1.02-0.548 2.15-0.918 3.31-0.936 0.675 0.818 0.183 2.19 0.355 3.23-0.0443 1.07 0.107 2.19-0.0754 3.23-0.308 0.15-0.505 0.15-0.755-0.106zm-2.1-4.02c0.879 0.0639 1.16-1.22 0.122-1.11-0.842-0.149-1.92 1.62-0.122 1.11z" fill="#ecb800"/>
  <path id="c" d="m12 36c-2.56-0.123-5.15-0.184-7.64-0.822-1.37-0.837 1.54-1.02 2.11-1.17 1.19-0.172 2.71 0.143 2.25-1.53 0.154-1.21 1.44-2.52-0.495-2.81-2.52-1.48-4.35-4.02-5.1-6.83l-0.356-1.87c-0.474-4.45 1.83-9.16 5.92-11.1-0.907-0.361-3.03-0.773-3.9-2.02-2.03-2-2.49-5.05-2.07-7.77 1.17-0.825 3.1-0.27 4.52-0.113 2.84 0.559 5.51 3.02 5.35 6.07 0.336 0.82-1.18 2.46 0.201 2.5 0.254-0.691-0.0369-1.86 0.0338-2.71 0.201-1.44-0.74-3.18 0.174-4.42 1.33-0.75 3.15 0.744 2.07 2.12-0.318 1.66-0.283 3.35-0.289 5.03 1.06 0.382 0.396-1.14 0.411-1.62-0.208-2.01 0.345-4.19 2.01-5.47 2.03-1.66 4.81-1.97 7.33-1.75 0.845 1.13 0.37 2.97 0.242 4.35-0.545 2.87-2.93 5.45-5.92 5.69-0.238 0.413 1.84 1.17 2.28 1.93 2.55 2.43 3.75 6.08 3.35 9.54l-0.383 1.54c-0.815 3.28-3.15 6.13-6.22 7.53 0.76 1.02 0.593 2.64 0.911 3.55 1.56 0.206 3.24 0.165 4.67 0.857-0.695 1.1-2.72 0.779-3.96 1.08-2.49 0.297-4.99 0.282-7.49 0.272zm-0.817-2.37c2.1-0.0461 4.2-0.065 6.3 0.0748-0.0516-0.951-0.322-2.48-1.26-2.79-1.73 0.396-3.55 0.344-5.28-0.0408-0.817 0.803-1.89 3.52 0.248 2.76zm3.77-3.48c5.28-0.75 9.22-6.21 8.59-11.5-0.363-4.7-4.35-8.86-9.09-9.21-4.74-0.381-9.45 3.01-10.5 7.66-1.3 4.9 1.39 10.6 6.27 12.4 1.51 0.607 3.14 0.829 4.75 0.656zm-4.32-21.4c0.859-0.347-1.01-1.91-1.62-2.26-0.878-0.27-3.16 0.388-3.06-0.7 0.901-0.243 3.5 0.244 1.69-0.953-0.995-1.02-2.25-1.85-3.1-2.96 1-0.83 2.32 1.4 3.31 1.94 0.718 0.947 0.956 0.81 0.821-0.224-0.0621-0.491-0.0776-1.69 0.679-0.978 0.182 0.849 0.0468 1.79 0.107 2.68 0.744 0.596 1.48 1.93 2.04 2.24 0.453-1.62 0.227-3.55-0.97-4.81-1.71-1.87-4.52-2.47-6.92-2.02-0.239 2.11-3e-3 4.42 1.46 6.07 1.31 1.68 3.5 2.37 5.56 1.98zm7.99 0.0286c2.99-0.199 5.3-2.96 5.38-5.88-0.132-0.654 0.352-1.95-0.105-2.34-2.37-0.166-5.03 0.141-6.71 2.02-1.25 1.28-1.45 3.26-0.979 4.91 0.958-1.27 2.39-2.3 2.05-4.08-0.352-1.13 1.14-1.39 0.768-0.108-0.044 0.734-0.189 1.8 0.598 0.671 1.11-0.685 2.14-2.62 3.44-2.29-0.406 1.13-2 1.8-2.8 2.82-0.642 0.58-1.55 1.38-0.0842 1.14 0.661-0.279 2.49 0.385 0.981 0.691-0.997 0.159-2.1 0.0362-3.05 0.251-0.567 0.659-2.5 2.39-0.592 2.21 0.365 5e-3 0.731 8.6e-4 1.09-0.0261zm-4.73-0.759c0.154-1.88 0.0881-3.81 0.635-5.63-1.92-1.47-0.786 1.68-0.961 2.65 0.16 0.754-0.115 3.15 0.326 2.97z"/>
  <path id="d" d="m17.4 20.1c-2.11-0.564-1.04-4.08 1.02-3.11 1.68 0.664 0.914 3.44-0.849 3.14l-0.17-0.0303z"/>
  <path id="e" d="m9.15 20.2c-1.64-0.36-1.6-2.93 0.0406-3.24 1.38-0.365 2.47 1.44 1.58 2.53-0.357 0.527-0.994 0.792-1.62 0.708z"/>
  <path id="f" d="m13.2 24c-1.17 0.029-2.46-4.12-0.816-3.1 0.916 1.44 2.21-0.0446 3.09-0.306 0.875 1.15-1.37 3.93-2.28 3.41z"/>
 </g>
 <path id="g" d="m18.1 18.4c1.5-0.678-0.978-2.01-0.816-0.431 0.112 0.327 0.48 0.554 0.816 0.431z" fill="#fff"/>
 <path id="h" d="m10.2 18.5c1.66-1.21-1.77-1.6-0.604-0.0945 0.169 0.131 0.403 0.154 0.604 0.0945z" fill="#fff"/>
 <path id="i" d="m24.4 20c1.22-0.987 2.89-2.99 1.44-4.08 0.469-2 2.76-5e-3 1.92 1.38-0.365 1.83-1.64 3.43-3.29 4.28" stroke-width=".00831"/>
</svg>
