<?xml version="1.0" encoding="UTF-8" standalone="no"?>
<!-- Created with Inkscape (http://www.inkscape.org/) -->

<svg
   id="svg94264"
   width="22.5mm"
   height="28.2mm"
   version="1.1"
   viewBox="0 0 22.5 28.2"
   sodipodi:docname="sprout_opt.svg"
   inkscape:version="1.1.2 (0a00cf5339, 2022-02-04)"
   xmlns:inkscape="http://www.inkscape.org/namespaces/inkscape"
   xmlns:sodipodi="http://sodipodi.sourceforge.net/DTD/sodipodi-0.dtd"
   xmlns="http://www.w3.org/2000/svg"
   xmlns:svg="http://www.w3.org/2000/svg">
  <defs
     id="defs26" />
  <sodipodi:namedview
     id="namedview24"
     pagecolor="#ffffff"
     bordercolor="#666666"
     borderopacity="1.0"
     inkscape:pageshadow="2"
     inkscape:pageopacity="0.0"
     inkscape:pagecheckerboard="0"
     inkscape:document-units="mm"
     showgrid="false"
     inkscape:zoom="7.4965276"
     inkscape:cx="42.553035"
     inkscape:cy="53.224642"
     inkscape:window-width="1850"
     inkscape:window-height="1013"
     inkscape:window-x="0"
     inkscape:window-y="0"
     inkscape:window-maximized="1"
     inkscape:current-layer="svg94264" />
  <g
     id="g915">
    <path
       id="path94226"
       d="m9.05 28.2c-1.63-0.244-3.36-0.278-4.84-1.1-0.994-1.21 0.937-2.19 1.85-2.67 1.47-0.703 3.06-1.16 4.69-1.32-0.064-1.29-1.82-2.93-3-2.12-0.98 1.03-2.41 1.51-3.79 1.09-2.29-0.585-3.77-2.91-3.96-5.16 0.0715-1.4 1.78-0.815 2.71-0.962 2.07-0.0231 4.11 1.18 5.08 3.01 0.392 1.11 2.05 1.1 2.92 1.9-0.163-0.886 0.592-2.68-0.807-2.51-3.36-0.525-6.2-3.45-6.41-6.88-0.287-3.33 1.71-6.65 4.72-8.08 3-1.57 6.51-1.62 9.55-3.1 0.891-0.685 1.73 0.242 0.638 0.819-0.945 0.869-0.686 2.3-0.54 3.44 0.545 1.83 1.54 3.57 1.45 5.54 0.119 3.51-2.31 6.81-5.61 7.9-0.727 0.481-2.37-0.0233-2.03 1.23 0.0662 0.56-0.291 2.3 0.514 1.25 1.23-0.456 2.45-0.95 2.89-2.3 1.2-1.54 3.23-2.32 5.15-2.18 1.15-0.194 2.79 0.0918 2.13 1.64-0.53 1.63-1.37 3.34-3.03 4.07-1.2 0.588-2.85 0.769-3.94-0.101-0.688-1.25-2.22-1.12-3.03-0.0775-0.998 0.711-0.705 2.03 0.63 1.73 2.02 0.319 4.06 1.15 5.46 2.67 0.592 1.54-1.76 1.73-2.78 1.94-2.17 0.391-4.39 0.387-6.59 0.326z"
       fill="#123731"
       stroke-width=".0533" />
    <path
       id="path94228"
       d="m14.1 27.4c1.37-0.276 2.55-0.725 2.83-1.07 0.0856-0.107 0.0694-0.26 0.146-0.34l0.139-0.145-0.0857-0.104c-0.0959-0.117-0.123-0.216-0.88-0.58-1.09-0.526-1.8-0.793-2.46-0.93-0.849-0.177-2.42-0.283-3.16-0.212-1.81 0.173-3.74 0.816-4.93 1.65-0.444 0.309-0.606 0.482-0.616 0.656-7e-3 0.128 0.0714 0.17 0.606 0.324 0.225 0.065 0.58 0.175 0.789 0.245 0.498 0.166 2.46 0.369 5.03 0.518l1.99 0.116 0.602-0.121z"
       fill="#aa5a30"
       stroke-width=".0616" />
    <g
       stroke-width=".0533"
       id="g14">
      <g
         id="g94236"
         transform="translate(-23 -89)"
         fill="#8fee43">
        <path
           id="path94230"
           d="m41.3 110c0.984-0.326 1.82-1.08 2.35-2.13 0.352-0.695 0.724-1.89 0.62-1.99-0.0309-0.0309-0.397-0.0794-0.813-0.108-0.966-0.0659-1.61 4e-3 -2.44 0.265-0.91 0.286-1.46 0.629-2.11 1.31-0.309 0.325-0.606 0.815-0.536 0.885 0.0402 0.0402 1.34-0.372 2.32-0.738 0.42-0.156 0.754-0.252 0.814-0.233 0.109 0.0345 0.261 0.283 0.261 0.426 0 0.154-0.283 0.374-0.693 0.541-0.22 0.0891-0.913 0.351-1.54 0.582-0.629 0.232-1.15 0.455-1.17 0.497-0.0676 0.176 0.623 0.616 1.24 0.79 0.555 0.157 1.03 0.131 1.7-0.0927z" />
        <path
           id="path94232"
           d="m28.6 110c0.417-0.109 0.801-0.311 1.08-0.573 0.274-0.253 0.264-0.277-0.18-0.446-0.169-0.064-0.595-0.23-0.947-0.369-0.352-0.139-0.863-0.324-1.14-0.411-0.595-0.19-0.812-0.351-0.812-0.6 0-0.232 0.179-0.456 0.364-0.455 0.0785 6.1e-4 0.347 0.0752 0.596 0.166 2 0.728 2.24 0.802 2.24 0.695 0-0.134-0.467-0.73-0.867-1.11-1.03-0.971-2.32-1.36-4.23-1.28-0.44 0.0196-0.818 0.0536-0.841 0.0757-0.0867 0.0858 0.227 1.25 0.498 1.85 0.32 0.707 0.665 1.17 1.18 1.57 0.458 0.36 0.596 0.445 1.01 0.62 0.773 0.325 1.45 0.413 2.03 0.263z" />
        <path
           id="path94234"
           d="m35 106c2.21-0.241 4.2-1.64 5.37-3.5 0.496-0.857 0.751-1.84 0.942-2.8 0.0011-1.34 0.076-2.73-0.524-3.97-0.667-1.4-1.22-2.94-1-4.51 0.06-0.428 0.403-1.21-0.379-0.819-2.17 0.779-4.51 0.94-6.64 1.82-2.36 0.87-4.48 2.73-5.14 5.23-0.503 2.06-0.235 4.41 1.17 6.06 0.812 1.07 1.99 1.8 3.26 2.18 0.946 0.33 1.96 0.43 2.96 0.308z" />
      </g>
      <g
         id="g94244"
         transform="translate(-23 -89)"
         fill="#123731">
        <path
           id="path94238"
           d="m38.4 100c-0.639-0.127-1.25-0.597-1.39-1.25-0.0571-0.31-0.0267-0.627-0.0352-0.94 0.204-0.516 0.625-0.959 1.16-1.12 0.534-0.184 1.16-0.104 1.61 0.255 0.391 0.28 0.701 0.727 0.69 1.22 0.0204 0.64-0.279 1.31-0.842 1.64-0.352 0.218-0.79 0.292-1.19 0.197z" />
        <path
           id="path94240"
           d="m30.4 100c-0.46-0.127-0.848-0.462-1.06-0.886-0.13-0.225-0.167-0.488-0.154-0.744-1e-3 -0.454 0.115-0.951 0.482-1.25 0.444-0.384 1.08-0.596 1.65-0.431 0.414 0.108 0.785 0.376 0.998 0.75 0.149 0.233 0.233 0.505 0.226 0.782-0.0012 0.273 3e-3 0.561-0.137 0.805-0.172 0.32-0.445 0.574-0.735 0.785-0.371 0.237-0.85 0.306-1.27 0.189z" />
        <path
           id="path94242"
           d="m34 102c-0.376-0.134-0.742-0.321-1.04-0.594-0.218-0.218-0.399-0.542-0.296-0.856 0.0647-0.168 0.253-0.344 0.445-0.268 0.272 0.116 0.452 0.369 0.708 0.512 0.391 0.253 0.901 0.349 1.34 0.175 0.289-0.103 0.523-0.309 0.733-0.525 0.134-0.129 0.326-0.277 0.521-0.188 0.223 0.0746 0.378 0.317 0.321 0.551-0.0635 0.303-0.32 0.507-0.547 0.694-0.288 0.236-0.631 0.383-0.964 0.542-0.4 4e-3 -0.807 0.0518-1.2-0.0345l-0.0265-8e-3z" />
      </g>
      <path
         id="path94246"
         d="m16.3 10c0.338-0.16 0.486-0.682 0.287-1.01-0.417-0.685-1.47 0.0615-1.1 0.779 0.153 0.296 0.477 0.388 0.812 0.229z"
         fill="#fff" />
      <path
         id="path94248"
         d="m8.62 9.92c0.143-0.096 0.196-0.182 0.251-0.404 0.0618-0.251 0.059-0.303-0.0267-0.478-0.0721-0.148-0.151-0.215-0.317-0.273-0.197-0.0682-0.246-0.0666-0.462 0.0161-0.266 0.102-0.403 0.268-0.448 0.542-0.0401 0.247 0.01 0.41 0.177 0.577 0.189 0.189 0.561 0.198 0.826 0.0199z"
         fill="#fff" />
    </g>
    <path
       id="path94250"
       d="m16 13.1c-0.161-0.0394-0.35-0.102-0.42-0.14-0.157-0.0839-0.423-0.524-0.423-0.7 0-0.292 0.351-0.685 0.774-0.868 0.226-0.0974 0.972-0.0886 1.22 0.0144 0.301 0.126 0.568 0.457 0.568 0.706 0 0.438-0.369 0.878-0.844 1.01-0.285 0.0779-0.494 0.073-0.874-0.0202z"
       fill="#fa8f9a"
       stroke-width=".0582" />
    <path
       id="path94252"
       d="m6.5 13c-0.08-0.0256-0.255-0.0795-0.388-0.12-0.218-0.0656-0.259-0.109-0.398-0.419-0.181-0.403-0.165-0.535 0.102-0.838 0.262-0.299 0.603-0.43 1.12-0.43 0.363 0 0.456 0.0228 0.685 0.168 0.559 0.354 0.713 0.869 0.37 1.23-0.373 0.393-0.996 0.564-1.48 0.408z"
       fill="#fa8f9a"
       stroke-width=".0582" />
    <g
       id="g94262"
       transform="translate(-23 -89)"
       fill="#123731"
       stroke-width=".0533">
      <path
         id="path94254"
         d="m37.5 94.6c-0.0508 0.0827-0.0774 0.183-0.059 0.223 0.0184 0.0398 0.447 0.334 0.953 0.653 1.01 0.637 1.13 0.67 1.32 0.365l0.0947-0.154-0.146-0.23c-0.2-0.317-1.05-0.873-1.49-0.979-0.403-0.0965-0.549-0.0695-0.668 0.124z" />
      <path
         id="path94256"
         d="m32.7 95.2c0.0308 0.105 0.028 0.262-0.115 0.272-0.543 0.176-1.1 0.308-1.66 0.437-0.181 0.0269-0.372 0.0889-0.553 0.0312-0.151-0.0614-0.155-0.248-0.194-0.383 0.0522-0.154 0.278-0.268 0.432-0.352 0.417-0.184 0.867-0.298 1.32-0.331 0.208-0.0032 0.429 0.0088 0.618 0.103 0.0769 0.0499 0.13 0.133 0.146 0.223z" />
      <path
         id="path94258"
         d="m37.6 115c-0.422-0.0996-0.572-0.492-0.29-0.76 0.191-0.182 0.373-0.223 0.652-0.147 0.474 0.128 0.63 0.506 0.317 0.769-0.0903 0.0759-0.208 0.138-0.262 0.138-0.054 0-0.13 9e-3 -0.169 0.0211-0.0391 0.0116-0.151 2e-3 -0.248-0.0206z" />
      <path
         id="path94260"
         d="m30.1 116c-0.145-0.27-0.0145-0.444 0.339-0.452 0.261-6e-3 0.406 0.087 0.406 0.26 0 0.186-0.164 0.295-0.442 0.295-0.19 0-0.26-0.0239-0.303-0.103z" />
    </g>
  </g>
</svg>
