<?xml version="1.0" encoding="UTF-8"?>
<!-- Created with Inkscape (http://www.inkscape.org/) -->
<svg width="29.036mm" height="38.467mm" version="1.1" viewBox="0 0 29.036 38.467" xmlns="http://www.w3.org/2000/svg">
 <path id="a" d="m15.184 32.464c2.14-0.323 3.66-2.07 5.02-3.6 1.53-1.88 2.93-3.92 3.79-6.19 0.831-2.48 0.84-5.37-0.468-7.7-0.33-1.38-1.45-0.338-2.36-0.399-1.1 0.0784-2.24-0.215-3.11-0.903-0.456 1.91-2.4 3.71-4.46 3.18-1.42-0.418-2.47-1.67-2.93-3.04-1.4 0.765-3.19 1.11-4.65 0.327-0.916 0.253-1.21 1.75-1.54 2.63-0.372 1.4-0.38 2.88-0.137 4.3 0.481 2.43 1.7 4.66 3.13 6.65 1.55 1.95 3.32 4.04 5.83 4.69 0.62 0.147 1.27 0.151 1.89 0.0543z" fill="#ff2a2a" stroke-width=".0331"/>
 <g transform="translate(-151.82 -133.54)" stroke-width=".0331">
  <path id="b" d="m177 135-0.0202 0.497c-0.082 2.03-0.589 3.46-1.71 4.81-0.314 0.379-0.838 0.896-1.11 1.1-0.945 0.696-2.28 1.1-3.02 0.914-0.208-0.0526-0.491-0.196-0.723-0.368l-0.0842-0.062 0.189-0.201c0.104-0.111 0.013-0.0226-0.201 0.196-0.214 0.219-0.389 0.409-0.389 0.423 0 0.0139 0.0557 0.0345 0.124 0.0455 0.914 0.147 1.55 0.396 2.34 0.916h5.3e-4c0.161 0.106 0.302 0.193 0.313 0.193 0.0788 0 1.03-0.508 1.35-0.723 1.32-0.883 2.37-2.35 2.76-3.85 0.205-0.796 0.259-1.54 0.215-2.96zm-21.5 0.298-0.0289 0.696c-0.0801 1.94 0.239 3.41 1.03 4.74 0.522 0.881 1.29 1.66 2.07 2.11 0.374 0.212 0.878 0.422 1.22 0.508l0.249 0.0631 0.232-0.153c0.127-0.0846 0.314-0.2 0.414-0.255 0.309-0.172 1.09-0.465 1.44-0.54 0.182-0.0389 0.372-0.0809 0.423-0.0935l0.092-0.0233-0.332-0.389c-0.183-0.214-0.343-0.389-0.355-0.389-0.0124 0 0.025 0.0495 0.0832 0.11 0.11 0.113 0.13 0.156 0.0723 0.156-0.0185 0-0.112 0.0638-0.207 0.142-0.213 0.173-0.441 0.274-0.722 0.32-0.787 0.128-1.72-0.136-2.63-0.744-0.488-0.325-0.715-0.537-0.829-0.772-0.0538-0.111-0.226-0.337-0.421-0.552-0.611-0.675-0.97-1.24-1.28-2.02-0.222-0.56-0.447-1.71-0.491-2.51zm6.29 4.4-5e-3 0.0992c-4e-3 0.076 0.0347 0.144 0.163 0.29 0.0924 0.105 0.184 0.18 0.203 0.168 0.0205-0.0126 0.0256-6e-3 0.0124 0.0155-0.0292 0.0473 0.207 0.311 0.253 0.282 0.0194-0.0118 0.0251-5e-3 0.0134 0.0134-0.0117 0.0189 0.166 0.256 0.395 0.527s0.516 0.623 0.637 0.782h5.3e-4c0.121 0.159 0.235 0.29 0.253 0.289 0.0182-2.6e-4 0.0108-0.0149-0.0165-0.0326-0.0433-0.0276-0.0424-0.0322 5e-3 -0.0326 0.0766-7.9e-4 0.218-0.433 0.266-0.812 0.0357-0.285 0.0333-0.312-0.0522-0.596-0.0493-0.164-0.0969-0.318-0.105-0.343-8e-3 -0.0249-0.0556 0.0328-0.106 0.13-0.126 0.241-0.306 0.339-0.593 0.321-0.171-0.0102-0.234-0.033-0.381-0.134-0.162-0.112-0.689-0.616-0.803-0.77-0.0271-0.036-0.0496-0.0499-0.0506-0.03-5.3e-4 0.02 0.0292 0.0631 0.0656 0.0961s0.0661 0.0758 0.0661 0.0946c0 0.0799-0.196-0.162-0.208-0.256zm8.99 0.0558c-0.363 0.276-0.669 0.621-1.04 0.893-0.168 0.128-0.395 0.202-0.6 0.127-0.0646-0.112-0.165-0.225-0.248-0.335-0.0121-0.0808-0.0871-0.113-0.103-0.0124-0.0859 0.265-0.194 0.527-0.232 0.804 1e-4 0.127-0.0256-0.0861-0.0475-0.0186 0.0213 0.316 0.0883 0.629 0.183 0.932 0.0149 0.028 0.0192 0.0653 0.0486 0.0832 0.344-0.463 0.737-0.886 1.13-1.31 0.314-0.339 0.64-0.669 0.943-1.02-0.158 0.112-0.261 0.288-0.427 0.391 0.0554-0.102 0.143-0.18 0.222-0.263 0.0466-0.0845 0.223-0.18 0.167-0.276zm-4.51 1.11c-0.013 3e-3 -0.0372 0.0228-0.0687 0.0568-0.0515 0.0554-0.0863 0.131-0.0863 0.189 0 0.0526-0.014 0.104-0.0315 0.115-0.019 0.0117-0.037-0.091-0.045-0.255-7e-3 -0.151-6e-3 2e-3 2e-3 0.338 8e-3 0.337 0.0276 0.628 0.0439 0.648s0.0725 0.0297 0.125 0.0217c0.0904-0.0133 0.097-0.0248 0.117-0.214 0.012-0.11 0.019-0.277 0.017-0.369-3e-3 -0.146-8e-3 -0.155-0.0294-0.0693-0.0193 0.0759-0.0271 0.0403-0.0331-0.149-5e-3 -0.137-5e-3 -0.27-1e-3 -0.298 2e-3 -0.0109-2e-3 -0.0157-0.01-0.0139zm2.83 2.61c-0.0155 1e-3 -0.0151 0.0163 9e-3 0.0538 0.172 0.231 0.401 0.51 0.51 0.718 0.185 0.458 0.39 0.914 0.474 1.41 0.107 0.371 0.0387 0.777 0.134 1.14 0.519 0.557 1.25 0.893 1.99 1.02 0.636 0.0913 1.3 0.0379 1.91-0.139 0.905-0.274 1.65-0.926 2.15-1.72 0.143-0.241 0.341-0.507 0.411-0.759-0.162 0.231-0.484 0.272-0.676 0.479-0.569 0.537-1.22 1.01-1.97 1.24-0.804 0.29-1.72 0.226-2.48-0.172-0.64-0.298-1.2-0.822-1.4-1.52-0.0731-0.285-0.144-0.571-0.298-0.825-0.0812-0.272-0.0204-0.671-0.379-0.759-0.0758-8e-4 -0.331-0.177-0.386-0.173zm-6.12 1.06c-7e-3 -7e-3 -0.134 0.226-0.338 0.631-0.33 0.656-0.414 0.793-0.63 1.03-0.413 0.447-1.19 0.846-1.84 0.948-0.352 0.0549-0.934 0.0184-1.33-0.0837-0.952-0.245-1.65-0.626-2.32-1.27-0.199-0.189-0.377-0.344-0.396-0.344s-0.0438-0.0309-0.0558-0.0687-0.0303-0.0602-0.0393-0.0512c-0.0322 0.0322 0.157 0.473 0.309 0.719 0.402 0.653 0.831 1.04 1.55 1.38 0.492 0.239 1.1 0.401 1.68 0.446 0.188 0.0146 0.606-6e-3 0.921-0.0465 0.588-0.0749 1.29-0.415 1.75-0.849 0.188-0.177 0.194-0.197 0.224-0.672 0.0239-0.386 0.214-1.09 0.4-1.48 0.0916-0.193 0.13-0.284 0.126-0.289zm5.94 0.912c-0.0161 2e-3 7e-3 0.159 0.0418 0.236 0.0573 0.229-0.0381 0.0233-0.0672-0.0682-0.154-0.043-0.0762 0.353-0.0982 0.485 3e-3 1.09-0.457 2.18-1.26 2.93-0.347 0.369-0.838 0.634-1.36 0.585-0.625-0.0695-1.1-0.535-1.5-0.979-0.444-0.491-0.715-1.12-0.794-1.78-0.0876 0.375-0.0959 0.761-0.131 1.14-0.0991 0.209 0.099 0.423 0.179 0.626 0.393 0.784 1.12 1.45 2 1.6l-5.3e-4 5.3e-4c0.107 0.015 0.216 0.0117 0.324 8e-3 0.468-8e-4 0.912-0.187 1.29-0.454 0.676-0.501 1.25-1.19 1.5-2 0.18-0.728 0.145-1.51-0.0775-2.22-0.0263-0.0844-0.0418-0.115-0.0491-0.114z" fill="#30b70a"/>
  <path id="c" d="m177 135c-1.08 0.184-2.18 0.303-3.25 0.565-0.211 0.118-1.1 0.11-0.663 0.446 0.292 0.411-0.402 0.793-0.612 0.352 0.0139-0.553-0.476-0.144-0.746-0.0294-1.01 0.498-1.88 1.29-2.38 2.3-0.413 0.734-0.474 1.59-0.725 2.38 0.0741-0.0657 0.155-0.455 0.244-0.633 0.17 0.106 0.326 0.611 0.695 0.402 0.483-0.234 0.815-0.681 1.24-1 0.0804 0.131-0.417 0.511-0.559 0.721 0.23-0.201 0.438-0.426 0.658-0.638 0.0423-0.632 0.0759-1.26 0.104-1.9 0.062-0.357-0.0884-0.907 0.335-1.07 0.463-0.0921 0.532 0.472 0.491 0.807 0.0312 0.416-0.0628 1.04 0.0176 1.33 0.906-0.837 1.84-1.65 2.76-2.47 0.293-0.227 0.538-0.537 0.877-0.692 0.33-0.0569 0.804 0.392 0.446 0.666-1.04 0.978-2.14 1.89-3.18 2.87-0.229 0.259-0.654 0.516-0.727 0.797 0.574 0.0325 1.15 0.03 1.73 0.0537 0.313 0.0607 0.996-0.113 0.968 0.377-0.165 0.463-0.735 0.334-1.12 0.408-0.84 0.0884-1.69 0.0975-2.53 0.205-0.288 0.153-0.501 0.416-0.743 0.632 0.237 0.183 0.494 0.347 0.783 0.434 0.2 0.0525 0.409 0.0539 0.614 0.0413 0.96-0.087 1.88-0.507 2.63-1.1 0.819-0.729 1.52-1.61 1.97-2.61 0.524-1.14 0.656-2.4 0.669-3.64zm-21.4 0.238c-0.0165 0.491 0.0316 0.979 0.127 1.46 0.159 1.29 0.706 2.54 1.6 3.49 0.264 0.253 0.431 0.58 0.651 0.865 0.656 0.606 1.47 1.07 2.35 1.24 0.291 0.0502 0.591 0.0683 0.884 0.0227 0.372-0.0366 0.678-0.258 0.97-0.468-0.0615-0.21-0.421-0.507-0.671-0.621-0.983-0.0967-1.97-0.105-2.96-0.175-0.344 0.0886-0.981-0.306-0.573-0.633 0.516-0.125 1.06-0.108 1.58-0.152 0.387-0.0417 0.809-1e-3 1.18-0.0734-1.24-1.15-2.47-2.31-3.72-3.44-0.43-0.162-0.338-0.861 0.148-0.751 0.517 0.262 0.982 0.621 1.45 0.961 0.8 0.678 1.55 1.41 2.32 2.12 0.0848-0.197 0.0266-0.607 0.046-0.889 0.0228-0.369-0.0469-0.759 0.0625-1.11 0.181-0.39 0.759-0.129 0.765 0.238 0.0431 0.802 0.0319 1.61 0.0481 2.41-0.042 0.16 0.0911 0.253 0.181 0.362 0.287 0.292-0.01-0.0807-0.0956-0.214 0.227 0.223 0.471 0.495 0.729 0.708 0.274 0.303 0.858 0.345 1.07-0.045 0.171-0.52 0.231 0.418 0.309 0.269-0.25-0.892-0.434-1.83-0.953-2.62-0.607-0.88-1.48-1.57-2.44-2.02-0.414-0.334-0.167 0.325-0.469 0.445-0.383 0.282-0.86-0.255-0.608-0.621 0.265-0.156 0.131-0.304-0.135-0.308-1.27-0.311-2.57-0.398-3.87-0.439zm11.4 1.5c-0.0335-1e-3 -0.0798 4e-3 -0.141 0.0134-0.232 0.036-0.41 0.146-0.529 0.327-0.0941 0.142-0.138 0.425-0.142 0.918-2e-3 0.181-0.0135 0.24-0.0481 0.24-0.0251 0-0.0569-0.0334-0.0708-0.0744-0.0687-0.202-0.0785-0.183-0.063 0.124 0.0255 0.507 0.113 2.7 0.113 2.84 2e-4 0.0756 0.0138 0.118 0.0336 0.105 0.0182-0.0112 0.0331-0.0632 0.0331-0.116 0-0.0572 0.0349-0.133 0.0863-0.189 0.0505-0.0544 0.0825-0.072 0.0786-0.0429-4e-3 0.0273-4e-3 0.161 0 0.298 0.0108 0.37 0.0515 0.143 0.0977-0.546 0.0832-1.24 0.243-2.59 0.372-3.15 0.0381-0.164 0.113-0.385 0.166-0.491 0.0971-0.193 0.113-0.257 0.0129-0.261zm2.21 6.73c-8e-3 1.3e-4 -5e-3 7e-3 9e-3 0.0222 0.0182 0.019 0.149 0.0821 0.291 0.141 0.303 0.125 0.354 0.197 0.381 0.527 0.013 0.162 0.0437 0.261 0.124 0.399 0.0588 0.101 0.124 0.265 0.145 0.365 0.116 0.558 0.345 0.984 0.703 1.31 0.454 0.408 1.06 0.71 1.65 0.83 0.445 0.0892 0.98 0.0561 1.47-0.0909 0.727-0.217 1.33-0.575 1.97-1.16 0.187-0.173 0.364-0.301 0.527-0.381 0.301-0.148 0.349-0.225 0.0791-0.128-0.106 0.0384-0.2 0.0813-0.21 0.0956s-0.107 0.0567-0.215 0.0941c-0.186 0.0642-0.332 0.0996-0.843 0.203-0.122 0.0248-0.437 0.0436-0.729 0.0439-0.783 8e-4 -0.881-0.0341-2.2-0.792-0.815-0.468-1.61-0.87-2.14-1.07-0.29-0.114-0.796-0.313-0.994-0.392-0.0127-5e-3 -0.0211-7e-3 -0.0258-7e-3zm-5.43 0.0625c-0.374 0.142-0.753 0.267-1.14 0.382-0.379 0.144-0.767 0.309-1.08 0.575 0.083 0.0754 0.384-0.179 0.567-0.198 0.272-0.04 0.536-0.159 0.801-0.186-0.125 0.239-0.335 0.45-0.489 0.681-0.741 0.743-1.71 1.32-2.78 1.4-0.223 0.0142-0.787 0.0596-0.642-0.3 0.252-0.211 0.595-0.26 0.88-0.415 0.436-0.207 0.878-0.42 1.27-0.704-0.698 0.258-1.34 0.654-2.06 0.85-0.551 0.162-1.13 0.207-1.7 0.171-0.444-0.025-0.907-0.139-1.26-0.42 0.0447 0.14 0.394 0.343 0.533 0.518 0.721 0.681 1.66 1.08 2.63 1.26v5.3e-4c0.359 0.0255 0.726 0.0345 1.08-0.032 0.743-0.186 1.48-0.573 1.92-1.22 0.48-0.791 0.784-1.71 1.46-2.37zm3.08 0.226c-0.105-5e-3 -0.0893 0.163-0.0842 0.924l7e-3 0.935 0.292 0.407c0.672 0.934 0.818 1.27 0.635 1.45-0.103 0.103-0.181 0.0801-0.354-0.103-0.0877-0.093-0.256-0.255-0.375-0.36l-0.215-0.191 0.0119 0.554c0.0128 0.614-0.0261 0.906-0.128 0.961-0.0999 0.0535-0.187 0.0389-0.293-0.0501-0.187-0.157-0.311-0.52-0.38-1.11l-0.0388-0.329-0.356 0.448c-0.311 0.392-0.367 0.448-0.452 0.448-0.108 0-0.253-0.144-0.289-0.288-0.0295-0.117 0.0336-0.367 0.165-0.651 0.14-0.304 0.284-0.527 0.568-0.882 0.318-0.398 0.338-0.436 0.363-0.723 0.0455-0.516 0.121-1.22 0.138-1.29 0.0162-0.0648 7e-3 -0.0712-0.0822-0.06-0.218 0.0276-0.773 0.383-1.08 0.693-0.504 0.504-0.866 1.27-0.939 1.99-0.032 0.315 0.0189 0.678 0.148 1.06 0.145 0.429 0.466 0.908 0.89 1.32 0.363 0.358 0.605 0.52 0.944 0.636h5.3e-4c0.373 0.127 0.762 0.0836 1.17-0.131 0.291-0.151 0.847-0.717 1.08-1.1 0.464-0.756 0.657-1.42 0.657-2.27 0-0.359 0.0154-0.466 0.0672-0.466 0.0149 0 0.0447 0.0528 0.0661 0.118 0.061 0.185 0.0714 0.113 0.0124-0.0858l-0.0527-0.178-0.118 0.156-0.136-0.29c-0.344-0.733-0.886-1.22-1.66-1.49-0.0863-0.03-0.146-0.0585-0.188-0.0605z" fill="#bbf312"/>
  <path id="d" d="m162 149c-0.294-2.5e-4 -0.521 0.194-0.614 0.527-0.136 0.485 0.0262 1.05 0.348 1.2 0.432 0.213 0.858-0.207 0.857-0.846-5.3e-4 -0.539-0.231-0.885-0.591-0.885zm9.24 0.0186c-0.0367 8e-4 -0.0734 6e-3 -0.11 0.0155-0.159 0.0429-0.361 0.271-0.421 0.476-0.11 0.373 0.0479 0.93 0.317 1.12h5.3e-4c0.0916 0.0652 0.165 0.0889 0.277 0.0889 0.211 0 0.352-0.102 0.476-0.346 0.0907-0.177 0.0997-0.225 0.0977-0.496-2e-3 -0.23-0.0183-0.335-0.0708-0.449-0.119-0.258-0.343-0.416-0.567-0.412zm3.4 3.13c-0.167-2e-3 -0.336 0.0964-0.472 0.29-0.0893 0.127-0.1 0.172-0.113 0.452-0.0103 0.235 2.3e-4 0.352 0.0439 0.484 0.0595 0.179 0.245 0.416 0.363 0.464 0.037 0.015 0.115 0.0284 0.174 0.0294 0.55 0.0109 0.815-0.999 0.395-1.51-0.115-0.14-0.252-0.209-0.391-0.211zm-15.9 0.0377c-0.121 4e-3 -0.245 0.0577-0.36 0.173-0.168 0.168-0.236 0.371-0.233 0.7 4e-3 0.4 0.168 0.73 0.428 0.86 0.337 0.169 0.724-0.119 0.811-0.605 0.112-0.625-0.25-1.14-0.646-1.13zm7.93 0.0424c-0.122 4e-3 -0.242 0.0593-0.347 0.164-0.168 0.169-0.251 0.396-0.251 0.685 2.7e-4 0.407 0.152 0.729 0.403 0.853v-5.3e-4c0.179 0.0888 0.267 0.0896 0.444 4e-3 0.457-0.221 0.559-1.09 0.177-1.5-0.128-0.139-0.278-0.207-0.426-0.202zm-7.39 3.6c-0.271 2e-3 -0.523 0.225-0.553 0.657-0.0254 0.368 0.178 0.765 0.464 0.906 0.225 0.111 0.46 0.0429 0.63-0.182 0.158-0.209 0.194-0.486 0.103-0.792-0.118-0.398-0.389-0.591-0.644-0.589zm14.7 0.1c-0.0137 5.3e-4 -0.0277 1e-3 -0.0419 3e-3 -0.151 0.0145-0.186 0.0336-0.306 0.166-0.16 0.176-0.214 0.336-0.214 0.624 2.7e-4 0.26 0.101 0.496 0.277 0.651 0.151 0.133 0.341 0.146 0.502 0.0357 0.246-0.169 0.389-0.584 0.318-0.926-0.0776-0.376-0.257-0.561-0.535-0.553zm-7.34 2.94c-0.35-2.5e-4 -0.607 0.323-0.635 0.799-0.0239 0.398 0.106 0.699 0.372 0.861 0.216 0.132 0.562 0.0409 0.717-0.189 0.404-0.598 0.135-1.47-0.454-1.47zm-4.8 0.0129c-0.177 4e-3 -0.353 0.117-0.468 0.335-0.0776 0.147-0.0878 0.201-0.0858 0.48 3e-3 0.429 0.109 0.674 0.361 0.835 0.214 0.137 0.523 8e-3 0.698-0.289 0.0661-0.113 0.0907-0.209 0.104-0.405 0.0201-0.299-0.0169-0.462-0.153-0.677-0.121-0.19-0.288-0.282-0.455-0.278zm9.57 0.0305c-0.112 2e-3 -0.232 0.0486-0.348 0.148-0.203 0.174-0.297 0.395-0.297 0.705-2.7e-4 0.208 0.0153 0.281 0.091 0.43 0.0529 0.104 0.138 0.211 0.204 0.254 0.381 0.253 0.871-0.196 0.873-0.8 2e-3 -0.453-0.236-0.742-0.523-0.738zm-2.29 2.65c-0.0739 1e-3 -0.152 0.0202-0.231 0.0594-0.235 0.117-0.352 0.327-0.367 0.66-0.019 0.418 0.115 0.713 0.389 0.857 0.15 0.0794 0.187 0.0798 0.356 3e-3 0.273-0.124 0.43-0.465 0.403-0.874-0.0284-0.435-0.26-0.71-0.549-0.706zm-5.06 0.0543c-0.189 6e-3 -0.331 0.102-0.461 0.312-0.0864 0.14-0.102 0.2-0.112 0.436-0.0181 0.428 0.141 0.778 0.406 0.893 0.0561 0.0244 0.128 0.0448 0.161 0.0455 0.193 4e-3 0.468-0.239 0.569-0.504 0.0824-0.216 0.0604-0.613-0.0455-0.83-0.108-0.22-0.296-0.353-0.5-0.353-6e-3 0-0.012-1.8e-4 -0.0181 0zm2.54 2.07c-0.174 5e-3 -0.345 0.128-0.465 0.356-0.0786 0.149-0.0899 0.208-0.0899 0.469-7e-5 0.388 0.0899 0.589 0.316 0.704 0.18 0.0922 0.32 0.0773 0.511-0.0532 0.366-0.251 0.417-0.943 0.0966-1.3-0.112-0.124-0.241-0.182-0.368-0.178z" fill="#bbf312"/>
 </g>
 <g fill="#0a1521" stroke-width=".0331">
  <path id="e" d="m13.184 38.464c-2.93-0.13-5.92-0.218-8.76-0.959-0.44-1.18 2.27-1.18 3.24-1.28 1.04-0.109 0.675-0.312 1.15-1.48 0.517-1.29 1.93-2.67 0.136-3.46-1.92-1.87-3.41-4.15-4.6-6.54-0.449-0.477-0.564-1.02-0.592-1.63-0.813-1.71-0.588-6.38 1.2-8.98-1.08-0.835-2.74-3.03-1.3-4.08 0.768 0.55 3.37 0.784 3.14 0.0251-3.09-1.52-4.46-5.25-4.04-8.53-0.21-2.15 2.36-1.39 3.68-1.44 3.37 0.19 6.75 2.89 6.72 6.45-0.163 0.649 0.057 2.81 0.251 1.29-0.0115-1.84-0.241-3.67-0.186-5.51 0.576-1.82 3.89-0.176 2.7 1.42-0.33 1.48-0.372 3.01-0.444 4.52 0.863-0.319-0.0282-2.61 0.65-3.65 1.13-3.08 4.64-4.63 7.75-4.59 0.697 0.183 1.79-0.407 2.2 0.394 0.838 3.56-0.42 7.85-3.79 9.65-0.231 0.776 2.21 0.715 2.96 0.1 1.97 0.2-6e-3 3.18-0.978 3.86 0.53 1.14 1.43 2.62 1.5 4.07 0.407 1.5-0.33 3.91-0.192 4.82 0.869-0.302 0.176 1.52-0.805 1.71-1.41 2.89-3.34 5.54-5.75 7.67 0.657 1.11 0.602 2.68 0.808 3.75 1.68 0.19 3.45 0.25 5.01 0.914-0.614 1.28-3.18 0.866-4.56 1.25-2.36 0.243-4.73 0.247-7.1 0.236zm-1.19-2.6c2.15-0.0418 4.3-0.0842 6.44 0.0774 0.0274-1.03-0.375-3.49-1.71-2.28-1.68 0.822-3.72 0.541-5.29-0.395-0.474 0.791-1.7 3.3 0.22 2.62l0.343-0.0159zm3.39-2.9c2.68-0.486 4.41-2.87 6.02-4.86 1.9-2.6 3.65-5.64 3.34-8.99-0.0729-1.59-0.547-3.27-1.63-4.46-1.55 0.685-3.5 0.584-4.86-0.483-0.468 2.2-3.1 4.18-5.26 2.84-1.68-0.506-1.6-3.68-3.48-2.14-1.61 0.95-3.87-1.39-4.39 1.1-1.48 3.27-0.636 7.1 1.15 10.1 1.46 2.52 3.36 4.94 5.93 6.38 0.972 0.508 2.09 0.716 3.18 0.529zm-0.314-16.6c1.83-0.659 2.84-2.86 2.12-4.67-0.312-1.73-2.57-3.25-4.06-1.85-2.19 1.64-1.78 5.93 1.05 6.6 0.296 0.0266 0.601 3e-3 0.888-0.0752zm-0.566-1.94c-0.391-0.826-0.264-1.93-1.06-0.593-1.21-0.524 1.2-2.09 0.756-3.22 0.372-1.8 0.927 0.319 0.738 1.16 0.562 0.557 1.58 2.84 0.139 1.34-0.433-0.324 0.255 1.91-0.578 1.31zm-5.77-0.386c2.14-0.0464 1.9-2.21 2.69-3.58 0.331-0.54 1.41-1.31 0.0494-0.975-2.36 0.0874-4.01 2.62-6.48 2.1-1.69-0.72 0.287 1.97 1.19 2.07 0.79 0.369 1.69 0.514 2.55 0.379zm-1.44-1.72c0.505-0.713 2.26-1.39 3.3-1.84 0.162 1.11-2.03 1.96-3.16 1.89l-0.139-0.0517zm14.8 1.66c1.2-0.0742 2.97-1.92 2.65-2.48-1.91 0.699-3.71-0.52-5.26-1.5-0.752-0.434-3.47-1.22-1.8 0.0995 0.935 1.46 0.443 3.89 2.84 3.93 0.522 0.0631 1.06 0.0494 1.57-0.0457zm-1.23-1.64c-0.905-0.194-2.83-1.13-2.43-2.04 0.942 0.569 3.05 1.21 3.14 2.02-0.232 0.0926-0.482 0.0589-0.718 0.015zm0.578-2.9c2.64-1.21 4.16-4.2 3.85-7.05 0.396-2.2-2.79-1.15-4.09-0.985-2.4 0.608-4.61 2.76-4.4 5.37-0.083 0.832 0.137 2.3 0.854 0.926 0.414-0.776 1.63-1.19 1.55-2.18 8e-3 -0.623-0.0553-3.29 0.863-1.98-0.0217 0.938-0.247 2.44 0.784 1.04 1.1-0.552 2.27-3 3.44-2.11-1.04 1.34-2.61 2.37-3.82 3.62-0.794 0.785 3.97-0.0101 1.85 1.09-1.06 0.319-2.45-0.183-3.34 0.502-0.939 0.636-0.884 1.05 0.26 1.1 0.796 0.0285 1.47 1.27 2.2 0.662zm-12.5-0.224c1.06-0.487 2.76-0.537 1.05-1.62-0.953-0.603-2.33-0.113-3.43-0.385-1.46-0.835 1.59-0.723 2.2-0.765-0.298-0.807-2.16-2.1-3.09-3.1-1.16-0.482-0.595-1.69 0.352-0.723 1.13 0.48 2.5 2.6 3.18 2.42-0.312-0.744 0.286-2.99 0.785-1.29-0.214 1.58 0.142 2.95 1.43 3.96 1.11 1.62 0.948-1.83 0.619-2.6-0.884-2.97-4.33-4.25-7.19-4.04-1.92-0.287-0.959 2.42-0.961 3.61 0.433 2.26 2.07 4.44 4.4 4.94 0.212-0.141 0.424-0.283 0.646-0.409zm5.63-1.1c0.18-1.73 0.125-3.54 0.697-5.18-1.99-1.44-0.914 1.56-1.06 2.62 0.219 0.613-0.269 2.48 0.359 2.56z"/>
  <path id="f" d="m10.184 21.464c-2.39-0.704-0.647-4.58 1.45-3.11 1.51 0.865 0.609 3.35-1.05 3.19l-0.199-0.0267z"/>
  <path id="g" d="m18.184 21.405c-2.17-0.288-1.62-3.97 0.573-3.46 2.15 0.449 1.63 3.76-0.573 3.46z"/>
  <path id="h" d="m14.184 24.464c-1.05 0.0425-2.56-2.56-0.965-2.21 0.863 1.35 2.52 0.783 3.27-0.257 1.58 0.772-1.21 3.04-2.31 2.47z"/>
 </g>
 <path id="i" d="m11.392 20.016c0.46-0.212 0.618-0.628 0.371-0.976-0.163-0.23-0.409-0.353-0.71-0.354-0.286-9e-4 -0.433 0.0461-0.606 0.194-0.188 0.161-0.247 0.279-0.246 0.496 9e-4 0.248 0.123 0.44 0.375 0.592 0.164 0.0985 0.23 0.116 0.43 0.116 0.155 0 0.288-0.0237 0.385-0.0683z" fill="#fff" stroke-width=".0378"/>
 <path id="j" d="m19.184 19.935c0.32-0.219 0.417-0.618 0.228-0.941-0.265-0.452-0.93-0.467-1.24-0.0283-0.191 0.272-0.169 0.589 0.0593 0.849 0.161 0.183 0.292 0.233 0.579 0.22 0.185-8e-3 0.273-0.0318 0.373-0.0999z" fill="#fff" stroke-width=".0367"/>
 <path id="k" d="m25.579 22.934c0.911-0.8 2.71-2.79 1.69-3.82-1.34-1.66 2.21-2.19 1.72-0.177-0.0412 2.56-1.78 4.92-4.21 5.7" fill="#0a1521" stroke-width=".00876"/>
 <path id="l" d="m4.2607 24.46c-2.5-0.941-4.58-3.6-4.22-6.34 0.688-1.92 2.87 0.11 1.32 1.06 0.226 1.45 1.05 2.87 2.3 3.65" fill="#0a1521" stroke-width=".00876"/>
</svg>
